<svg width="129" height="94" viewBox="0 0 129 94" fill="none" xmlns="http://www.w3.org/2000/svg">
<rect x="10.3816" y="15.2097" width="108.204" height="74.4328" rx="3" fill="#6D92F0"/>
<rect x="13.3816" y="25.1824" width="102.205" height="60.3008" rx="1" fill="#F4F5F8"/>
<rect x="0.953369" y="88.1238" width="127.771" height="5.62072" rx="2.81036" fill="#6D92F0"/>
<rect x="59.6711" y="89.8434" width="9.62512" height="2.18154" rx="1.09077" fill="#F5F5F5"/>
<path d="M61.9954 49.4618H26.9954V71.576H61.9954V49.4618Z" fill="#83E5F2"/>
<path d="M44.4954 58.5472L61.9954 71.5757H26.9954L44.4954 58.5472Z" fill="#54CEDD"/>
<path d="M44.4954 63.6947L26.9954 49.4618H61.9954L44.4954 63.6947Z" fill="#2FA5B4"/>
<path d="M44.4954 62.4902L26.9954 49.4618H61.9954L44.4954 62.4902Z" fill="#BDF8FE"/>
<circle cx="27.5606" cy="49.4619" r="7.21417" fill="#E74C3C"/>
<path d="M27.5587 53.1113C27.0823 53.1113 26.6567 53.0292 26.2821 52.865C25.9097 52.7008 25.6148 52.473 25.3974 52.1816C25.1824 51.8879 25.0667 51.5479 25.0505 51.1617H26.1398C26.1537 51.3721 26.2242 51.5548 26.3514 51.7098C26.4809 51.8624 26.6498 51.9804 26.8579 52.0636C27.0661 52.1469 27.2973 52.1885 27.5517 52.1885C27.8316 52.1885 28.079 52.14 28.2941 52.0428C28.5115 51.9457 28.6815 51.8104 28.8041 51.6369C28.9266 51.4612 28.9879 51.2588 28.9879 51.0299C28.9879 50.7916 28.9266 50.5823 28.8041 50.402C28.6838 50.2193 28.5069 50.0759 28.2733 49.9718C28.042 49.8677 27.7622 49.8157 27.4338 49.8157H26.8336V48.9415H27.4338C27.6974 48.9415 27.9287 48.8941 28.1276 48.7992C28.3288 48.7044 28.4861 48.5726 28.5994 48.4038C28.7127 48.2326 28.7694 48.0326 28.7694 47.8036C28.7694 47.5839 28.7197 47.3931 28.6202 47.2312C28.5231 47.067 28.3843 46.9387 28.2039 46.8462C28.0258 46.7537 27.8154 46.7074 27.5726 46.7074C27.3413 46.7074 27.125 46.7502 26.9238 46.8358C26.7249 46.919 26.5631 47.0393 26.4382 47.1965C26.3133 47.3515 26.2462 47.5377 26.237 47.7551H25.1997C25.2113 47.3711 25.3246 47.0335 25.5397 46.7421C25.7571 46.4507 26.0438 46.2229 26.4 46.0587C26.7562 45.8945 27.1516 45.8124 27.5864 45.8124C28.042 45.8124 28.4352 45.9014 28.7659 46.0795C29.0989 46.2553 29.3557 46.49 29.536 46.7837C29.7187 47.0774 29.8089 47.3989 29.8066 47.7481C29.8089 48.1459 29.6979 48.4836 29.4736 48.7611C29.2516 49.0386 28.9556 49.2248 28.5855 49.3196V49.3751C29.0573 49.4468 29.4227 49.6341 29.6817 49.9371C29.9431 50.2401 30.0726 50.6159 30.0703 51.0645C30.0726 51.4554 29.9639 51.8058 29.7442 52.1157C29.5268 52.4256 29.2296 52.6696 28.8526 52.8476C28.4757 53.0234 28.0443 53.1113 27.5587 53.1113Z" fill="white"/>
<path d="M48.3616 49.9495C48.247 45.1754 51.7073 33.8628 66.4649 26.8048M89.7665 41.8125C89.7665 33.1517 83.8519 11.1833 55.7575 13.7181" stroke="#E3E7ED"/>
<path d="M76.5892 22.2557L66.8548 33.0191L63.2589 27.9844L76.5892 22.2557Z" fill="#ECB168"/>
<path d="M76.5892 22.2556L62.2574 26.5882L59.9587 23.3728L76.5892 22.2556Z" fill="#E5A864"/>
<path d="M62.2572 26.5881L61.1257 29.9716L63.2918 28.0018L76.5889 22.2555L62.2572 26.5881Z" fill="#C0874A"/>
<path d="M61.1258 29.9716L63.7898 28.7318L63.2852 27.9984L61.1258 29.9716Z" fill="#C0874A"/>
<path d="M41.2411 17.1012L56.0468 19.8603L56.4043 13.4563L41.2411 17.1012Z" fill="#ECB168"/>
<path d="M41.241 17.1011L56.5071 11.6777L56.7374 7.58641L41.241 17.1011Z" fill="#E5A864"/>
<path d="M56.507 11.6776L59.4377 13.755L56.3845 13.4914L41.241 17.1009L56.507 11.6776Z" fill="#C0874A"/>
<path d="M59.4379 13.755L56.3537 14.4052L56.3886 13.4844L59.4379 13.755Z" fill="#C0874A"/>
<path d="M109.799 53.3488L109.186 53.7351L106.136 55.6506L93.0675 63.8516L92.9026 63.9604L92.8672 63.9822L92.2018 64.4012L92.1782 64.4122L91.6305 64.0693L91.5303 64.004L79.151 56.2329L78.3089 55.7051L74.5986 53.3759L74.5574 53.3488L78.3089 50.9924L91.7542 42.552H92.6022L106.136 51.0468L106.583 51.3298L109.799 53.3488Z" fill="#C0874A"/>
<path d="M106.798 42.4883V68.9409C106.798 69.5478 106.255 70.0425 105.583 70.0425H78.8499C78.1834 70.0425 77.6404 69.5478 77.6404 68.9409V42.4883C77.6404 41.8757 78.1834 41.3812 78.8499 41.3812H105.583C106.255 41.3812 106.798 41.8757 106.798 42.4883Z" fill="#69B25F"/>
<path d="M95.3202 46.5566H82.1919V48.3055H95.3202V46.5566Z" fill="#A2CC86"/>
<path d="M95.3202 46.2804H82.1919V48.0292H95.3202V46.2804Z" fill="#53A654"/>
<path d="M102.142 56.1754H82.1919V57.9243H102.142V56.1754Z" fill="#A2CC86"/>
<path d="M102.142 55.8993H82.1919V57.6481H102.142V55.8993Z" fill="#53A654"/>
<path d="M102.142 60.9849H82.1919V62.7337H102.142V60.9849Z" fill="#A2CC86"/>
<path d="M102.142 60.7087H82.1919V62.4576H102.142V60.7087Z" fill="#53A654"/>
<path d="M102.142 51.366H82.1919V53.1148H102.142V51.366Z" fill="#A2CC86"/>
<path d="M102.142 51.0898H82.1919V52.8387H102.142V51.0898Z" fill="#53A654"/>
<path d="M92.2195 63.579L92.0133 63.7005L88.0262 66.0284L87.5374 66.3168L75.4114 73.3965L74.5986 73.8672V53.2909L79.4809 56.1401L91.554 63.1894L91.6482 63.2451L92.2018 63.5689L92.2195 63.579Z" fill="#F0BA7D"/>
<path d="M109.719 52.9097C109.785 52.8707 109.84 52.9021 109.84 52.9796V73.2793C109.84 73.3568 109.839 73.419 109.837 73.4176C109.836 73.4161 109.828 73.4105 109.82 73.4049C109.811 73.3993 109.799 73.3913 109.793 73.3872C109.787 73.383 109.78 73.3796 109.778 73.3796C109.777 73.3796 109.721 73.3476 109.654 73.3086L92.8533 63.5015C92.7865 63.4625 92.6772 63.3983 92.6105 63.359L92.5526 63.3249C92.4859 63.2855 92.3837 63.2249 92.3254 63.1901C92.2671 63.1553 92.2742 63.0951 92.3412 63.0561L92.769 62.8078C92.836 62.7689 92.8948 62.7348 92.8996 62.732C92.9045 62.7293 92.9124 62.7247 92.9173 62.7219C92.9222 62.7191 92.9809 62.685 93.0479 62.6461L93.4228 62.4283C93.4898 62.3894 93.5992 62.3256 93.6661 62.2865L109.719 52.9097Z" fill="#E5A864"/>
<path opacity="0.68" d="M100.547 49.1881C102 49.1881 103.178 48.01 103.178 46.5566C103.178 45.1033 102 43.9252 100.547 43.9252C99.0937 43.9252 97.9155 45.1033 97.9155 46.5566C97.9155 48.01 99.0937 49.1881 100.547 49.1881Z" fill="#EEF3CA"/>
<path d="M109.84 70.6861V73.8428H109.805L109.298 73.8663H76.4654L76.4419 73.3775C77.0367 72.9712 77.8258 72.4234 78.3382 72.0759L78.4088 72.0288L80.1286 70.845L82.8141 68.9899L83.5914 68.454L91.7482 62.8298L92.2958 62.4469C92.4254 62.3645 92.5726 62.2938 92.7316 62.2468C92.9201 62.1819 93.1262 62.1407 93.3323 62.1231C93.403 62.1171 93.4677 62.1113 93.5384 62.1171C93.6091 62.1054 93.6798 62.1054 93.7505 62.1054C93.939 62.0995 94.1216 62.1171 94.2982 62.1524C94.4866 62.1878 94.6574 62.2468 94.8106 62.3291L100.994 65.7685L104.051 67.4704L104.846 67.9121L107.726 69.514L109.622 70.5682C109.675 70.5977 109.734 70.6271 109.793 70.6625C109.805 70.6684 109.822 70.6802 109.84 70.6861Z" fill="#C0874A"/>
<path d="M109.84 71.7993V73.8664H74.5986V71.7993C75.217 71.4222 76.0298 70.91 76.5598 70.5919L76.6304 70.5448L78.4031 69.4436L81.177 67.7239L81.9779 67.2233L90.3938 61.9994L90.9591 61.6461C91.2536 61.4694 91.6364 61.3811 92.0133 61.3752C92.084 61.3692 92.1488 61.3692 92.2195 61.3752C92.2902 61.3692 92.3608 61.3692 92.4315 61.3752C92.5964 61.3752 92.7555 61.3929 92.9086 61.4282C93.1206 61.4694 93.3149 61.546 93.4799 61.6461L94.2985 62.1526L99.4928 65.38L102.461 67.2234L103.233 67.7062L106.036 69.4436L107.879 70.5921C107.932 70.6216 107.985 70.6509 108.044 70.6863C108.421 70.9278 108.904 71.2282 109.357 71.5049C109.522 71.6108 109.687 71.7109 109.84 71.7993Z" fill="#ECB168"/>
<path opacity="0.2" d="M106.795 42.4884V42.7828C106.795 42.1704 106.254 41.6757 105.582 41.6757H78.8506C78.1852 41.6757 77.6375 42.1703 77.6375 42.7828V42.4884C77.6374 41.8759 78.1852 41.3812 78.8506 41.3812H105.582C106.254 41.3812 106.795 41.8759 106.795 42.4884Z" fill="#BADB9E"/>
</svg>
