<svg width="129" height="79" viewBox="0 0 129 79" fill="none" xmlns="http://www.w3.org/2000/svg">
<rect x="9.77234" y="0.209717" width="108.204" height="74.4328" rx="3" fill="#6D92F0"/>
<rect x="12.7723" y="10.1824" width="102.205" height="60.3008" rx="1" fill="#F4F5F8"/>
<rect x="0.343994" y="73.1238" width="127.771" height="5.62072" rx="2.81036" fill="#6D92F0"/>
<rect x="59.0619" y="74.8434" width="9.62512" height="2.18154" rx="1.09077" fill="#F5F5F5"/>
<path fill-rule="evenodd" clip-rule="evenodd" d="M17.1187 5.52403C17.1187 6.14527 16.6151 6.64889 15.9939 6.64889C15.3726 6.64889 14.869 6.14527 14.869 5.52403C14.869 4.90279 15.3726 4.39917 15.9939 4.39917C16.6151 4.39917 17.1187 4.90279 17.1187 5.52403ZM20.4937 5.52403C20.4937 6.14527 19.9901 6.64889 19.3688 6.64889C18.7476 6.64889 18.244 6.14527 18.244 5.52403C18.244 4.90279 18.7476 4.39917 19.3688 4.39917C19.9901 4.39917 20.4937 4.90279 20.4937 5.52403ZM22.7429 6.64889C23.3641 6.64889 23.8678 6.14527 23.8678 5.52403C23.8678 4.90279 23.3641 4.39917 22.7429 4.39917C22.1217 4.39917 21.618 4.90279 21.618 5.52403C21.618 6.14527 22.1217 6.64889 22.7429 6.64889Z" fill="white"/>
<rect x="20.6266" y="17.1696" width="24.349" height="19.4792" rx="3" fill="#CDD4E0"/>
<rect x="51.6996" y="17.1696" width="24.349" height="19.4792" rx="3" fill="#CDD4E0"/>
<rect x="82.7734" y="17.1696" width="24.349" height="19.4792" rx="3" fill="#CDD4E0"/>
<rect x="20.6266" y="42.5155" width="86.4949" height="3.06671" fill="#CDD4E0"/>
<rect x="20.6266" y="48.9528" width="86.4949" height="3.06671" fill="#CDD4E0"/>
<rect x="20.6266" y="55.3903" width="86.4949" height="3.06671" fill="#CDD4E0"/>
</svg>
