<svg width="22" height="22" viewBox="0 0 22 22" fill="none" xmlns="http://www.w3.org/2000/svg">
<path fill-rule="evenodd" clip-rule="evenodd" d="M13.5553 9.22943C14.2158 9.22931 14.8587 9.01608 15.3883 8.62141C15.918 8.22674 16.3061 7.67171 16.4951 7.0388H18.8128C19.0452 7.0388 19.2681 6.94648 19.4324 6.78215C19.5967 6.61782 19.6891 6.39495 19.6891 6.16255C19.6891 5.93016 19.5967 5.70728 19.4324 5.54295C19.2681 5.37862 19.0452 5.2863 18.8128 5.2863H16.4951C16.3058 4.65372 15.9175 4.09907 15.3879 3.70473C14.8583 3.3104 14.2156 3.09741 13.5553 3.09741C12.895 3.09741 12.2523 3.3104 11.7227 3.70473C11.1931 4.09907 10.8048 4.65372 10.6155 5.2863H3.04031C2.80792 5.2863 2.58504 5.37862 2.42071 5.54295C2.25638 5.70728 2.16406 5.93016 2.16406 6.16255C2.16406 6.39495 2.25638 6.61782 2.42071 6.78215C2.58504 6.94648 2.80792 7.0388 3.04031 7.0388H10.6155C10.8045 7.67171 11.1926 8.22674 11.7223 8.62141C12.2519 9.01608 12.8948 9.22931 13.5553 9.22943ZM3.04031 14.0488C2.80792 14.0488 2.58504 14.1411 2.42071 14.3054C2.25638 14.4698 2.16406 14.6927 2.16406 14.9251C2.16406 15.1574 2.25638 15.3803 2.42071 15.5447C2.58504 15.709 2.80792 15.8013 3.04031 15.8013H4.91987C5.10917 16.4339 5.49746 16.9885 6.02708 17.3829C6.5567 17.7772 7.19939 17.9902 7.85969 17.9902C8.51999 17.9902 9.16267 17.7772 9.69229 17.3829C10.2219 16.9885 10.6102 16.4339 10.7995 15.8013H18.8128C19.0452 15.8013 19.2681 15.709 19.4324 15.5447C19.5967 15.3803 19.6891 15.1574 19.6891 14.9251C19.6891 14.6927 19.5967 14.4698 19.4324 14.3054C19.2681 14.1411 19.0452 14.0488 18.8128 14.0488H10.7995C10.6102 13.4162 10.2219 12.8616 9.69229 12.4672C9.16267 12.0729 8.51999 11.8599 7.85969 11.8599C7.19939 11.8599 6.5567 12.0729 6.02708 12.4672C5.49746 12.8616 5.10917 13.4162 4.91987 14.0488H3.04031Z" fill="#C6C6C6"/>
</svg>
