<svg width="641" height="432" viewBox="0 0 641 432" fill="none" xmlns="http://www.w3.org/2000/svg">
<path d="M477.772 383.363C530.263 387.044 595.921 366.218 624.943 320.438C636.946 301.498 644.918 277.171 636.588 256.166C630.228 240.278 603.535 222.325 597.712 206.257C591.89 189.92 592.696 171.518 595.652 154.373C604.251 105.002 556.239 28.0729 454.841 19.8146C377.896 13.6208 343.142 73.4941 277.663 81.6628C211.646 89.9211 134.164 40.3708 86.9582 81.6628C28.2869 132.919 55.7863 184.175 62.9522 208.142C72.0888 238.931 27.3015 274.119 36.5277 319.54C57.2195 420.975 207.436 352.574 251.507 348.265C296.204 343.957 340.633 356.703 384.435 366.936C428.237 377.17 474.727 384.889 517.543 370.796L477.772 383.363Z" fill="#27459C"/>
<path d="M316.627 431.837C491.061 431.837 632.467 425.085 632.467 416.756C632.467 408.427 491.061 401.676 316.627 401.676C142.194 401.676 0.787354 408.427 0.787354 416.756C0.787354 425.085 142.194 431.837 316.627 431.837Z" fill="#18346C"/>
<path d="M41.7229 158.412L40.7375 158.502C38.5877 139.741 44.3205 121.429 58.8316 100.962L59.6378 101.501C45.3058 121.788 39.5731 139.831 41.7229 158.412Z" fill="#7B93CF"/>
<path d="M35.6319 170.979L34.7362 171.248C23.7185 136.24 42.6187 107.784 62.5043 84.625L63.2209 85.2534C43.5145 108.323 24.7934 136.419 35.6319 170.979Z" fill="#7B93CF"/>
<path d="M499.001 21.6998C476.966 10.3894 458.334 7.33742 440.33 12.095L440.061 11.1973C458.334 6.35 477.235 9.40201 499.449 20.8022L499.001 21.6998Z" fill="#7B93CF"/>
<path d="M515.572 22.9565C490.044 6.70903 459.588 -7.74316 426.983 7.96574L426.535 7.06809C459.588 -8.91011 490.312 5.72161 516.02 22.0589L515.572 22.9565Z" fill="#7B93CF"/>
<path d="M235.652 119.095H234.219C234.219 118.377 234.308 117.659 234.308 116.941L235.741 117.031C235.652 117.749 235.652 118.377 235.652 119.095Z" fill="#7B93CF"/>
<path d="M330.869 107.426C330.511 106.079 330.063 104.733 329.526 103.386L330.869 102.937C331.407 104.284 331.855 105.72 332.213 107.067L330.869 107.426ZM236.189 112.812L234.845 112.632C235.114 111.196 235.383 109.76 235.741 108.323L237.085 108.682C236.727 110.029 236.458 111.375 236.189 112.812ZM327.913 99.4367C327.286 98.1799 326.659 96.9232 325.943 95.6665L327.107 94.9484C327.824 96.2051 328.54 97.4618 329.168 98.8083L327.913 99.4367ZM238.249 104.553L236.906 104.104C237.354 102.758 237.891 101.322 238.518 100.065L239.772 100.604C239.235 101.95 238.697 103.207 238.249 104.553ZM323.524 92.1657C322.718 90.9987 321.822 89.9215 320.927 88.8444L322.002 87.9467C322.987 89.0239 323.883 90.1908 324.689 91.3578L323.524 92.1657ZM241.743 96.8335L240.489 96.1153C241.205 94.8586 241.922 93.6019 242.818 92.435L243.982 93.2429C243.176 94.4098 242.459 95.5767 241.743 96.8335ZM318.06 85.7026C317.075 84.7152 316 83.7278 314.925 82.8301L315.821 81.7529C316.985 82.6506 318.06 83.638 319.046 84.6254L318.06 85.7026ZM246.49 89.8318L245.415 88.9341C246.311 87.7672 247.296 86.69 248.282 85.7026L249.267 86.69C248.371 87.5877 247.386 88.6648 246.49 89.8318ZM311.432 80.3167C310.267 79.5088 309.013 78.7907 307.849 78.0725L308.565 76.8158C309.819 77.534 311.073 78.3418 312.238 79.1497L311.432 80.3167ZM252.402 83.7278L251.506 82.6506C252.581 81.6632 253.746 80.7655 254.91 79.9576L255.716 81.1246C254.552 81.8427 253.477 82.7403 252.402 83.7278ZM304.087 76.1875C302.833 75.6489 301.489 75.1103 300.145 74.5717L300.593 73.2252C301.937 73.6741 303.28 74.2126 304.624 74.841L304.087 76.1875ZM259.299 78.7009L258.583 77.5339C259.837 76.8158 261.091 76.0977 262.434 75.4694L263.061 76.7261C261.718 77.3544 260.464 77.9828 259.299 78.7009ZM296.114 73.315C294.771 72.9559 293.338 72.6866 291.994 72.4173L292.263 71.0709C293.696 71.3402 295.129 71.6094 296.562 71.9685L296.114 73.315ZM266.913 75.0205L266.376 73.6741C267.719 73.1355 269.153 72.6866 270.496 72.3276L270.854 73.6741C269.6 74.0331 268.257 74.4819 266.913 75.0205ZM287.694 71.9685C286.261 71.8787 284.828 71.789 283.484 71.8788V70.4425C284.918 70.4425 286.44 70.4425 287.874 70.5323L287.694 71.9685ZM275.064 72.6866L274.796 71.3402C276.229 71.0709 277.662 70.8913 279.095 70.7118L279.274 72.148C277.841 72.2378 276.408 72.4173 275.064 72.6866Z" fill="#7B93CF"/>
<path d="M333.557 113.44L332.213 113.62C332.123 112.902 332.034 112.273 331.855 111.555L333.198 111.286C333.288 112.004 333.467 112.722 333.557 113.44Z" fill="#7B93CF"/>
<path d="M239.862 119.544L234.846 121.967L229.561 119.993L235.293 132.021L239.862 119.544Z" fill="#7B93CF"/>
<path d="M192.298 188.753C192.119 185.521 193.373 181.841 194.269 182.2C195.164 182.559 194.358 185.521 194.896 186.419C195.702 187.586 196.329 188.663 195.791 191.446L192.298 188.753Z" fill="#FCB47E"/>
<path d="M163.634 411.191L161.126 390.724H176.085L176.802 411.191H163.634Z" fill="#FCB47E"/>
<path d="M176.533 402.394C170.89 403.92 162.47 401.137 162.47 401.137L161.843 396.29L176.354 397.546L176.533 402.394Z" fill="#FCA377"/>
<path d="M91.9742 411.191L93.4074 390.724H108.366L105.142 411.191H91.9742Z" fill="#FCB47E"/>
<path d="M107.65 395.123L106.664 401.586C99.767 402.035 94.8404 399.432 92.8698 398.175L93.3176 391.891L107.65 395.123Z" fill="#FCA377"/>
<path d="M195.612 398.354C195.612 398.354 185.58 272.055 158.528 210.656L133.358 211.912C133.358 211.912 135.508 300.78 154.408 398.265C154.318 398.354 177.966 404.01 195.612 398.354Z" fill="#233970"/>
<path d="M124.221 398.354C124.221 398.354 99.4091 402.394 85.2563 392.699C85.2563 392.699 92.7806 255.807 115.801 210.925H142.942C142.942 210.925 142.136 284.712 124.221 398.354Z" fill="#233970"/>
<path d="M116.518 145.935C117.145 143.511 118.399 140.459 118.399 140.459C117.951 142.703 117.951 145.306 118.04 146.653C123.952 149.346 136.224 152.847 155.303 148.179C155.035 146.204 154.945 144.319 154.945 144.319C155.303 145.576 155.751 146.832 156.199 147.91C156.916 147.73 157.543 147.551 158.259 147.371C157.722 144.947 157.453 140.728 157.453 140.728C158.08 143.242 159.424 145.845 159.961 146.922C161.126 146.563 162.29 146.204 163.544 145.755C163.544 145.755 159.782 139.921 157.274 124.75C155.214 112.273 148.854 106.438 139.18 106.707C119.294 107.246 113.92 144.319 113.92 144.319C113.92 144.319 114.726 145.037 116.518 145.935Z" fill="#374263"/>
<path d="M185.311 189.83C185.311 189.83 177.339 153.834 145.63 151.949C96.8115 149.077 81.7629 180.943 81.7629 180.943L185.311 189.83Z" fill="white"/>
<path d="M134.791 115.953C140.165 112.901 149.66 112.722 151.81 120.082C153.781 126.815 153.512 147.191 144.465 146.832C135.06 146.473 132.104 139.292 131.208 134.894C130.939 133.188 129.327 119.005 134.791 115.953Z" fill="#FCB47E"/>
<path d="M131.477 134.355C131.477 134.355 127.267 135.612 126.461 131.842C125.744 128.431 129.775 127.084 131.119 128.61L131.477 134.355Z" fill="#FCB47E"/>
<path d="M189.7 233.186C195.702 221.337 200.449 193.69 200.449 193.69C201.166 192.613 204.122 187.855 204.301 184.264C204.391 182.649 203.584 181.751 202.51 182.2C202.151 180.943 201.345 180.674 200.36 181.392C199.822 180.225 199.106 180.315 198.389 180.853C196.866 178.25 193.731 186.509 193.821 187.496C193.821 188.214 194 190.727 194.179 191.446C194.358 192.433 176.085 223.582 176.085 223.582L189.7 233.186Z" fill="#FCB47E"/>
<path d="M90.1828 394.943L89.3766 394.854C89.4662 393.507 98.6028 257.423 121.982 213.259L122.698 213.618C99.4985 257.692 90.2723 393.597 90.1828 394.943Z" fill="white"/>
<path d="M109.979 189.022L101.469 238.034C123.773 244.766 148.944 238.752 169.546 225.018L161.036 176.724L145.182 152.488C145.182 152.488 137.478 161.375 128.879 152.308L106.665 161.644L109.979 189.022Z" fill="white"/>
<path d="M191.223 199.614L186.744 188.394C186.744 188.394 175.458 165.414 166.232 159.489L160.32 199.704L191.223 199.614Z" fill="white"/>
<path d="M138.464 288.302L137.658 288.212C138.912 274.478 139.987 261.103 140.793 248.357L141.599 248.446C140.882 261.103 139.807 274.568 138.464 288.302Z" fill="#47393D"/>
<path d="M160.32 398.624C160.141 397.816 143.39 317.476 138.643 276.902L139.449 276.812C144.197 317.296 160.947 397.636 161.037 398.444L160.32 398.624Z" fill="white"/>
<path d="M161.336 176.6L160.542 176.74L169.058 225.095L169.852 224.955L161.336 176.6Z" fill="#3F5A9F"/>
<path d="M127.983 127.892C127.983 127.892 129.506 126.994 131.029 128.61C131.029 128.61 131.387 125.379 132.462 123.404L133.179 126.994C134.253 127.174 137.747 127.712 141.509 127.802C142.584 127.802 145.629 127.802 145.629 127.802L146.346 121.878L147.6 127.712C148.496 127.623 149.212 127.533 149.839 127.443L150.377 123.942L151.362 127.264C152.348 127.084 152.975 126.994 153.333 126.905C153.512 124.391 153.602 117.659 149.123 113.709C144.017 109.221 133.179 111.644 130.671 117.03C128.162 122.416 127.983 127.892 127.983 127.892Z" fill="#374263"/>
<path d="M138.105 156.347C142.584 156.347 145.271 152.398 145.271 152.398L144.107 139.472L131.835 132.111L128.7 152.218C128.7 152.308 132.552 156.347 138.105 156.347Z" fill="#FCB47E"/>
<path d="M144.017 147.461V146.653C138.374 146.384 134.791 142.165 132.82 138.574L132.104 138.933C134.254 142.703 138.105 147.191 144.017 147.461Z" fill="#374263"/>
<path d="M160.23 420.886L198.21 421.065C199.553 421.065 200.628 419.988 200.539 418.642C200.539 418.642 200.539 418.642 200.539 418.552C200.539 418.283 200.449 417.923 200.449 417.654C200.359 416.667 200.091 415.59 199.553 414.961C197.762 412.538 194.268 411.46 188.088 408.947C184.146 407.331 180.832 405.267 179.399 404.279C178.951 403.92 178.324 404.01 177.876 404.459C170.352 411.819 165.694 410.204 164.35 407.152C163.276 404.818 161.842 405.267 161.394 405.985C160.14 408.139 159.424 414.333 159.155 417.385C159.155 417.744 159.066 418.013 159.066 418.283C158.976 418.821 158.976 419.18 158.976 419.18C158.797 420.168 159.334 420.886 160.23 420.886Z" fill="#374263"/>
<path d="M185.848 412.986C188.535 411.73 188.177 408.857 188.177 408.857L187.55 408.947C187.55 409.037 187.908 411.281 185.579 412.358L185.848 412.986Z" fill="white"/>
<path d="M189.162 414.153C191.67 412.717 191.402 410.293 191.402 410.203L190.775 410.293C190.775 410.383 190.954 412.358 188.894 413.525L189.162 414.153Z" fill="white"/>
<path d="M167.754 412.358C170.262 412.358 172.591 411.191 172.681 411.191L172.412 410.563C172.322 410.563 166.589 413.435 163.634 409.755L163.096 410.204C164.261 411.909 166.052 412.358 167.754 412.358Z" fill="white"/>
<path d="M163.625 418.015L163.623 418.644L185.748 418.725L185.75 418.097L163.625 418.015Z" fill="white"/>
<path d="M188.594 418.056L188.592 418.685L193.787 418.704L193.79 418.076L188.594 418.056Z" fill="white"/>
<path d="M89.1078 420.886L127.087 421.065C128.431 421.065 129.506 419.988 129.416 418.642C129.416 418.642 129.416 418.642 129.416 418.552C129.416 418.283 129.327 417.923 129.327 417.654C129.237 416.667 128.969 415.59 128.431 414.961C126.64 412.538 123.146 411.46 116.966 408.947C113.024 407.331 109.71 405.267 108.277 404.279C107.829 403.92 107.202 404.01 106.754 404.459C99.2297 411.819 94.5719 410.204 93.2283 407.152C92.1534 404.818 90.7202 405.267 90.2723 405.985C89.0182 408.139 88.3016 414.333 88.0329 417.385C88.0329 417.744 87.9433 418.013 87.9433 418.283C87.8538 418.821 87.8538 419.18 87.8538 419.18C87.6746 420.168 88.3016 420.886 89.1078 420.886Z" fill="#374263"/>
<path d="M114.726 412.986C117.413 411.73 117.055 408.857 117.055 408.857L116.428 408.947C116.428 409.037 116.786 411.281 114.457 412.358L114.726 412.986Z" fill="white"/>
<path d="M118.04 414.153C120.548 412.717 120.28 410.293 120.28 410.203L119.653 410.293C119.653 410.383 119.832 412.358 117.771 413.525L118.04 414.153Z" fill="white"/>
<path d="M96.6319 412.358C99.14 412.358 101.469 411.191 101.558 411.191L101.29 410.563C101.2 410.563 95.4674 413.435 92.5115 409.755L91.974 410.204C93.228 411.909 94.93 412.358 96.6319 412.358Z" fill="white"/>
<path d="M92.5167 417.94L92.5144 418.568L114.639 418.65L114.642 418.021L92.5167 417.94Z" fill="white"/>
<path d="M117.485 418.071L117.483 418.7L122.678 418.719L122.681 418.091L117.485 418.071Z" fill="white"/>
<path d="M111.681 292.97L238.518 272.863C241.116 272.414 242.907 269.99 242.549 267.387L229.561 185.611C229.113 183.008 226.694 181.212 224.097 181.571L97.2592 201.679C94.6615 202.128 92.87 204.551 93.2283 207.155L106.127 288.931C106.575 291.534 108.993 293.419 111.681 292.97Z" fill="#6D92F0"/>
<path d="M136.672 259.757L113.831 263.347C113.114 263.437 112.487 262.988 112.308 262.27L111.591 257.872C111.502 257.154 111.95 256.525 112.666 256.346L135.508 252.755C136.224 252.665 136.851 253.114 137.03 253.832L137.747 258.231C137.926 258.949 137.389 259.667 136.672 259.757Z" fill="white"/>
<path d="M166.859 254.999L144.017 258.59C143.301 258.679 142.674 258.23 142.494 257.512L141.778 253.114C141.688 252.396 142.136 251.767 142.853 251.588L165.694 247.997C166.411 247.907 167.038 248.356 167.217 249.074L167.934 253.473C168.113 254.191 167.575 254.909 166.859 254.999Z" fill="white"/>
<path d="M197.045 250.241L174.204 253.832C173.487 253.922 172.86 253.473 172.681 252.755L171.964 248.356C171.875 247.638 172.323 247.01 173.039 246.83L195.881 243.24C196.597 243.15 197.225 243.599 197.404 244.317L198.12 248.715C198.299 249.433 197.762 250.062 197.045 250.241Z" fill="white"/>
<path d="M227.232 245.394L204.39 248.985C203.674 249.075 203.047 248.626 202.868 247.908L202.151 243.509C202.061 242.791 202.509 242.163 203.226 241.983L226.067 238.392C226.784 238.303 227.411 238.752 227.59 239.47L228.307 243.868C228.486 244.676 227.948 245.304 227.232 245.394Z" fill="white"/>
<path d="M229.113 259.129L199.106 263.886C198.21 264.066 197.404 263.437 197.314 262.54L196.687 258.68C196.508 257.782 197.135 256.974 198.031 256.884L228.038 252.127C228.934 251.947 229.74 252.576 229.83 253.473L230.457 257.333C230.546 258.141 230.009 258.949 229.113 259.129Z" fill="white"/>
<path d="M112.756 226.813L111.323 217.657C110.964 215.682 112.397 213.797 114.368 213.438L132.104 210.655C134.074 210.296 135.956 211.732 136.314 213.707L137.747 222.863C138.105 224.838 136.672 226.723 134.701 227.082L116.966 229.865C114.906 230.224 113.024 228.788 112.756 226.813ZM114.547 214.425C113.114 214.694 112.129 216.041 112.308 217.477L113.741 226.633C114.01 228.069 115.353 229.057 116.787 228.877L134.522 226.095C135.956 225.825 136.941 224.479 136.762 223.043L135.329 213.887C135.06 212.45 133.716 211.463 132.283 211.642L114.547 214.425Z" fill="white"/>
<path d="M230.983 191.496L230.098 191.636L233.186 211.232L234.071 211.092L230.983 191.496Z" fill="#2E4882"/>
<path d="M166.679 284.712L166.5 283.814L238.429 272.414C239.593 272.234 240.579 271.606 241.295 270.708C242.012 269.721 242.28 268.644 242.101 267.477L235.831 227.801L236.727 227.621L242.997 267.297C243.176 268.644 242.907 270.08 242.012 271.247C241.206 272.414 239.952 273.132 238.608 273.312L166.679 284.712Z" fill="#2E4882"/>
<path d="M154.153 285.733L127.522 289.95L127.662 290.837L154.292 286.619L154.153 285.733Z" fill="#2E4882"/>
<path d="M203.315 182.2C203.853 182.379 204.122 183.008 203.942 183.546C203.495 184.534 202.778 185.521 202.24 185.521C201.345 185.611 201.793 183.995 202.151 182.828C202.24 182.379 202.778 182.02 203.315 182.2Z" fill="#FCB47E"/>
<path d="M201.793 182.2C202.151 182.469 202.33 182.918 202.151 183.367C201.793 184.444 200.897 185.97 200.001 185.791C199.464 185.701 199.822 184.085 200.18 182.739C200.36 182.02 201.255 181.841 201.793 182.2Z" fill="#FCB47E"/>
<path d="M199.553 181.661C200.091 181.751 200.449 182.29 200.27 182.828C200.091 183.905 199.464 185.431 198.299 185.79C197.314 186.15 197.852 183.816 198.21 182.379C198.299 181.841 198.837 181.572 199.374 181.661H199.553Z" fill="#FCB47E"/>
<path d="M197.672 180.405C198.658 180.584 198.747 181.482 198.479 182.11C198.031 183.277 197.225 184.534 196.508 184.713C195.702 184.893 196.15 183.008 196.418 181.572C196.597 180.943 197.045 180.315 197.672 180.405Z" fill="#FCB47E"/>
<path d="M101.021 231.661C101.021 231.661 86.1519 209.848 109.173 194.318L122.34 157.245V156.976C106.933 156.886 90.3619 166.312 81.4045 179.597C66.4455 201.769 67.8787 228.25 93.0492 241.894L101.021 231.661Z" fill="white"/>
<path d="M108.546 198.986L107.739 198.896L109.979 187.406L110.785 187.586L108.546 198.986Z" fill="#3F5A9F"/>
<path d="M98.5132 242.253C87.6747 236.328 80.5983 227.711 78.0902 217.298C75.2238 205.36 78.2693 191.895 86.7789 179.417L87.4059 179.866C79.0755 192.164 76.03 205.449 78.8964 217.119C81.4044 227.352 88.3017 235.79 98.8715 241.535L98.5132 242.253Z" fill="#3F5A9F"/>
<path d="M99.6778 233.456C100.394 234.084 102.813 236.059 103.709 236.239C104.604 236.418 109.441 236.598 109.352 237.585C109.173 238.662 105.858 237.854 105.948 238.662C105.948 239.201 112.487 240.996 111.77 242.073C111.322 242.791 107.56 241.265 107.471 241.714C107.381 242.163 112.487 243.15 111.86 244.317C111.233 245.484 106.396 242.522 106.127 243.061C106.038 243.33 111.95 245.484 111.412 246.382C110.785 247.639 106.217 244.587 105.858 245.125C105.679 245.395 107.471 246.202 108.456 246.741C108.994 247.1 108.814 247.549 108.367 247.549C103.798 247.369 98.0655 241.804 97.3489 241.535C96.274 241.176 95.1991 240.727 94.2137 240.278L99.6778 233.456Z" fill="#FCB47E"/>
<path d="M99.7675 204.551L99.0509 204.103C101.201 200.332 104.515 196.921 108.904 194.049L109.352 194.767C105.142 197.55 101.917 200.871 99.7675 204.551Z" fill="#3F5A9F"/>
<path d="M583.47 159.13C583.47 159.399 583.47 159.758 583.47 160.028C584.545 198.178 580.693 227.98 574.064 251.139L554.448 263.347L570.571 260.834L571.019 260.744C562.241 286.237 550.148 302.665 538.682 313.257C531.606 319.899 524.709 324.208 519.066 326.991C518.707 327.17 518.349 327.35 517.991 327.529C517.095 327.978 516.199 328.337 515.393 328.696L504.555 329.235C504.375 328.696 504.286 328.248 504.107 327.709C504.017 327.35 503.928 327.081 503.838 326.722C503.748 326.273 503.569 325.914 503.48 325.465C490.76 276.184 506.794 236.867 527.844 208.86C527.934 208.77 527.934 208.68 528.023 208.591C535.368 198.896 543.251 190.548 550.685 183.546L555.433 195.754L556.15 178.699C569.138 167.388 579.976 160.836 582.664 159.31C583.291 159.22 583.47 159.13 583.47 159.13Z" fill="#9AADE5"/>
<path d="M583.828 159.309L583.56 160.027L561.345 206.526L560.897 207.334L554.896 220.08L554.717 220.529L535.458 260.924L535.369 261.013L504.017 326.901L503.48 327.888L502.763 329.414L501.778 329.504L502.584 327.888L503.659 325.644L534.652 260.564L535.189 259.398L582.843 159.489L583.112 158.95L583.828 159.309Z" fill="white"/>
<path d="M582.093 201.335L554.566 220.309L554.972 220.901L582.5 201.927L582.093 201.335Z" fill="white"/>
<path d="M582.212 192.155L560.662 207.009L561.068 207.6L582.618 192.746L582.212 192.155Z" fill="white"/>
<path d="M528.673 208.655L527.962 208.747L534.724 261.002L535.435 260.91L528.673 208.655Z" fill="white"/>
<path d="M500.345 337.762C500.345 337.762 525.963 349.881 562.33 328.157L550.506 322.502L569.765 323.31C584.007 313.346 599.593 298.176 615.806 275.286L611.328 273.131L617.15 273.401C619.837 269.451 622.614 265.322 625.391 261.013C625.391 261.013 614.731 260.026 599.414 261.821L591.532 272.503L593.771 262.629C562.509 267.386 517.006 283.724 500.345 337.762Z" fill="#BAC8F3"/>
<path d="M625.207 260.697L498.217 335.072L498.623 335.769L625.613 261.394L625.207 260.697Z" fill="white"/>
<path d="M592.328 280.347L592.255 281.062L610.432 282.935L610.505 282.22L592.328 280.347Z" fill="white"/>
<path d="M583.631 285.312L583.506 286.019L604.67 289.798L604.796 289.091L583.631 285.312Z" fill="white"/>
<path d="M530.263 290.995L529.635 290.277C540.295 280.762 553.283 273.401 568.242 268.284L568.511 269.182C553.642 274.298 540.832 281.659 530.263 290.995Z" fill="#2E4882"/>
<path d="M275.96 230.224C275.96 230.493 276.05 230.852 276.05 231.122C281.335 268.913 290.113 297.638 300.504 319.361L321.912 328.158L305.61 328.427H305.162C318.06 352.125 332.751 366.308 345.739 374.836C353.89 380.132 361.325 383.274 367.326 385.069C367.685 385.159 368.133 385.338 368.491 385.428C369.476 385.697 370.372 385.967 371.268 386.146L382.017 384.889C382.106 384.351 382.106 383.812 382.196 383.363C382.196 383.004 382.285 382.735 382.285 382.376C382.375 381.927 382.375 381.478 382.375 381.119C386.764 330.402 364.37 294.316 338.931 270.259C338.842 270.17 338.752 270.08 338.663 269.99C329.795 261.642 320.658 254.73 312.148 249.075L309.461 261.911L305.968 245.215C291.278 236.238 279.454 231.571 276.587 230.493C276.139 230.314 275.96 230.224 275.96 230.224Z" fill="#9AADE5"/>
<path d="M275.602 230.494L276.05 231.212L305.699 273.312L306.237 274.119L314.299 285.609L314.567 285.968L340.275 322.593L340.365 322.682L382.286 382.376L382.913 383.274L383.898 384.71L384.883 384.62L383.898 383.184L382.375 381.119L340.992 322.144L340.186 321.067L276.588 230.494L276.229 230.045L275.602 230.494Z" fill="white"/>
<path d="M284.389 271.713L284.087 272.365L314.391 286.464L314.693 285.813L284.389 271.713Z" fill="white"/>
<path d="M282.656 262.599L282.355 263.251L306.078 274.288L306.38 273.637L282.656 262.599Z" fill="white"/>
<path d="M338.967 269.98L338.25 270.008L340.294 322.658L341.012 322.63L338.967 269.98Z" fill="white"/>
<path d="M387.75 392.52C387.75 392.52 364.55 408.767 325.047 393.417L335.796 385.877L316.896 389.827C301.221 382.376 283.306 369.989 263.51 350.24L267.63 347.368L261.897 348.535C258.583 345.124 255.179 341.533 251.686 337.673C251.686 337.673 262.076 334.98 277.394 334.172L286.889 343.328L283.037 333.993C314.657 333.454 362.221 342.072 387.75 392.52Z" fill="#BAC8F3"/>
<path d="M251.757 337.379L251.473 338.134L389.067 390.209L389.352 389.453L251.757 337.379Z" fill="white"/>
<path d="M287.35 351.205L269.742 356.1L269.933 356.792L287.541 351.897L287.35 351.205Z" fill="white"/>
<path d="M296.728 354.745L276.49 362.013L276.732 362.689L296.97 355.421L296.728 354.745Z" fill="white"/>
<path d="M350.397 351.407L350.934 350.599C338.842 343.059 324.779 337.853 309.282 335.339L309.103 336.327C324.51 338.84 338.394 343.957 350.397 351.407Z" fill="#2E4882"/>
<path d="M392.855 416.038H366.968C358.548 416.038 351.651 409.485 351.293 401.137L336.692 145.755C336.334 136.958 343.5 129.598 352.368 129.598H382.196L392.855 416.038Z" fill="#446BD0"/>
<path d="M520.768 145.755L513.154 401.137C512.796 409.485 505.898 416.038 497.478 416.038H382.823C374.403 416.038 364.46 409.485 364.102 401.137L356.488 145.755C356.13 136.958 363.296 129.598 372.164 129.598H505.003C513.96 129.598 521.126 136.958 520.768 145.755Z" fill="#DCE8FF"/>
<path d="M388.108 147.192H382.017C381.211 147.192 380.405 147.551 379.867 148.089C379.33 148.628 378.971 149.436 378.971 150.244C378.971 151.949 380.315 153.296 382.017 153.296H388.108H488.252H494.343C495.15 153.296 495.956 152.937 496.493 152.398C497.031 151.859 497.389 151.052 497.389 150.244C497.389 148.538 496.045 147.192 494.343 147.192H488.252H388.108Z" fill="#3F5A9F"/>
<path d="M493.179 247.729H384.077C382.017 247.729 380.315 246.113 380.225 243.958L377.538 172.864C377.449 170.62 379.24 168.825 381.39 168.825H495.866C498.106 168.825 499.808 170.62 499.718 172.864L497.031 243.958C496.941 246.113 495.239 247.729 493.179 247.729Z" fill="white"/>
<path d="M411.308 295.753H394.378C391.422 295.753 389.004 293.329 389.004 290.367V282.647C389.004 279.685 391.422 277.261 394.378 277.261H411.218C414.174 277.261 416.593 279.685 416.593 282.647V290.367C416.682 293.329 414.264 295.753 411.308 295.753Z" fill="#647CE2"/>
<path d="M411.308 325.824H394.378C391.422 325.824 389.004 323.4 389.004 320.438V312.718C389.004 309.756 391.422 307.333 394.378 307.333H411.218C414.174 307.333 416.593 309.756 416.593 312.718V320.438C416.682 323.4 414.264 325.824 411.308 325.824Z" fill="#647CE2"/>
<path d="M411.308 355.895H394.378C391.422 355.895 389.004 353.472 389.004 350.509V342.879C389.004 339.917 391.422 337.493 394.378 337.493H411.218C414.174 337.493 416.593 339.917 416.593 342.879V350.599C416.682 353.472 414.264 355.895 411.308 355.895Z" fill="#647CE2"/>
<path d="M411.308 385.966H394.378C391.422 385.966 389.004 383.543 389.004 380.581V372.861C389.004 369.899 391.422 367.475 394.378 367.475H411.218C414.174 367.475 416.593 369.899 416.593 372.861V380.581C416.682 383.633 414.264 385.966 411.308 385.966Z" fill="#3F5A9F"/>
<path d="M446.332 295.753H429.492C426.536 295.753 424.117 293.329 424.117 290.367V282.647C424.117 279.685 426.536 277.261 429.492 277.261H446.332C449.288 277.261 451.706 279.685 451.706 282.647V290.367C451.706 293.329 449.288 295.753 446.332 295.753Z" fill="#647CE2"/>
<path d="M446.332 325.824H429.492C426.536 325.824 424.118 323.4 424.118 320.438V312.718C424.118 309.756 426.536 307.333 429.492 307.333H446.332C449.288 307.333 451.707 309.756 451.707 312.718V320.438C451.707 323.4 449.288 325.824 446.332 325.824Z" fill="#647CE2"/>
<path d="M446.332 355.895H429.492C426.536 355.895 424.118 353.472 424.118 350.509V342.879C424.118 339.917 426.536 337.493 429.492 337.493H446.332C449.288 337.493 451.707 339.917 451.707 342.879V350.599C451.707 353.472 449.288 355.895 446.332 355.895Z" fill="#647CE2"/>
<path d="M446.332 385.966H429.492C426.536 385.966 424.118 383.543 424.118 380.581V372.861C424.118 369.899 426.536 367.475 429.492 367.475H446.332C449.288 367.475 451.707 369.899 451.707 372.861V380.581C451.707 383.633 449.288 385.966 446.332 385.966Z" fill="#647CE2"/>
<path d="M481.355 295.753H464.515C461.559 295.753 459.141 293.329 459.141 290.367V282.647C459.141 279.685 461.559 277.261 464.515 277.261H481.355C484.311 277.261 486.73 279.685 486.73 282.647V290.367C486.73 293.329 484.311 295.753 481.355 295.753Z" fill="#647CE2"/>
<path d="M481.355 325.824H464.515C461.559 325.824 459.141 323.4 459.141 320.438V312.718C459.141 309.756 461.559 307.333 464.515 307.333H481.355C484.311 307.333 486.729 309.756 486.729 312.718V320.438C486.729 323.4 484.311 325.824 481.355 325.824Z" fill="#647CE2"/>
<path d="M481.355 355.895H464.515C461.559 355.895 459.141 353.472 459.141 350.509V342.879C459.141 339.917 461.559 337.493 464.515 337.493H481.355C484.311 337.493 486.729 339.917 486.729 342.879V350.599C486.729 353.472 484.311 355.895 481.355 355.895Z" fill="#647CE2"/>
<path d="M481.355 385.966H464.515C461.559 385.966 459.141 383.543 459.141 380.581V372.861C459.141 369.899 461.559 367.475 464.515 367.475H481.355C484.311 367.475 486.729 369.899 486.729 372.861V380.581C486.729 383.633 484.311 385.966 481.355 385.966Z" fill="#3F5A9F"/>
<path d="M416.234 295.753H399.394C396.438 295.753 394.02 293.329 394.02 290.367V282.647C394.02 279.685 396.438 277.261 399.394 277.261H416.234C419.19 277.261 421.609 279.685 421.609 282.647V290.367C421.609 293.329 419.28 295.753 416.234 295.753Z" fill="#6D92F0"/>
<path d="M416.234 325.824H399.394C396.438 325.824 394.02 323.4 394.02 320.438V312.718C394.02 309.756 396.438 307.333 399.394 307.333H416.234C419.19 307.333 421.609 309.756 421.609 312.718V320.438C421.609 323.4 419.28 325.824 416.234 325.824Z" fill="#6D92F0"/>
<path d="M416.234 355.895H399.394C396.438 355.895 394.02 353.472 394.02 350.509V342.879C394.02 339.917 396.438 337.493 399.394 337.493H416.234C419.19 337.493 421.609 339.917 421.609 342.879V350.599C421.609 353.472 419.28 355.895 416.234 355.895Z" fill="#6D92F0"/>
<path d="M416.234 385.966H399.394C396.438 385.966 394.02 383.543 394.02 380.581V372.861C394.02 369.899 396.438 367.475 399.394 367.475H416.234C419.19 367.475 421.609 369.899 421.609 372.861V380.581C421.609 383.633 419.28 385.966 416.234 385.966Z" fill="#3F5A9F"/>
<path d="M451.258 295.753H434.418C431.462 295.753 429.043 293.329 429.043 290.367V282.647C429.043 279.685 431.462 277.261 434.418 277.261H451.258C454.214 277.261 456.632 279.685 456.632 282.647V290.367C456.632 293.329 454.303 295.753 451.258 295.753Z" fill="#6D92F0"/>
<path d="M451.258 325.824H434.418C431.462 325.824 429.043 323.4 429.043 320.438V312.718C429.043 309.756 431.462 307.333 434.418 307.333H451.258C454.214 307.333 456.632 309.756 456.632 312.718V320.438C456.632 323.4 454.303 325.824 451.258 325.824Z" fill="#6D92F0"/>
<path d="M451.258 355.895H434.418C431.462 355.895 429.043 353.472 429.043 350.509V342.879C429.043 339.917 431.462 337.493 434.418 337.493H451.258C454.214 337.493 456.632 339.917 456.632 342.879V350.599C456.632 353.472 454.303 355.895 451.258 355.895Z" fill="#6D92F0"/>
<path d="M451.258 385.966H434.418C431.462 385.966 429.043 383.543 429.043 380.581V372.861C429.043 369.899 431.462 367.475 434.418 367.475H451.258C454.214 367.475 456.632 369.899 456.632 372.861V380.581C456.632 383.633 454.303 385.966 451.258 385.966Z" fill="#6D92F0"/>
<path d="M486.282 295.753H469.442C466.486 295.753 464.067 293.329 464.067 290.367V282.647C464.067 279.685 466.486 277.261 469.442 277.261H486.282C489.238 277.261 491.656 279.685 491.656 282.647V290.367C491.656 293.329 489.327 295.753 486.282 295.753Z" fill="#6D92F0"/>
<path d="M486.282 325.824H469.442C466.486 325.824 464.067 323.4 464.067 320.438V312.718C464.067 309.756 466.486 307.333 469.442 307.333H486.282C489.238 307.333 491.656 309.756 491.656 312.718V320.438C491.656 323.4 489.327 325.824 486.282 325.824Z" fill="#6D92F0"/>
<path d="M486.282 355.895H469.442C466.486 355.895 464.067 353.472 464.067 350.509V342.879C464.067 339.917 466.486 337.493 469.442 337.493H486.282C489.238 337.493 491.656 339.917 491.656 342.879V350.599C491.656 353.472 489.327 355.895 486.282 355.895Z" fill="#6D92F0"/>
<path d="M486.282 385.966H469.442C466.486 385.966 464.067 383.543 464.067 380.581V372.861C464.067 369.899 466.486 367.475 469.442 367.475H486.282C489.238 367.475 491.656 369.899 491.656 372.861V380.581C491.656 383.633 489.327 385.966 486.282 385.966Z" fill="#3F5A9F"/>
<path d="M416.234 296.291H399.394C396.17 296.291 393.572 293.688 393.572 290.457V282.737C393.572 279.505 396.17 276.902 399.394 276.902H416.234C419.459 276.902 422.057 279.505 422.057 282.737V290.457C422.146 293.598 419.549 296.291 416.234 296.291ZM399.394 277.8C396.707 277.8 394.557 279.954 394.557 282.647V290.367C394.557 293.06 396.707 295.214 399.394 295.214H416.234C418.922 295.214 421.071 293.06 421.071 290.367V282.647C421.071 279.954 418.922 277.8 416.234 277.8H399.394Z" fill="white"/>
<path d="M416.234 326.363H399.394C396.17 326.363 393.572 323.759 393.572 320.528V312.808C393.572 309.577 396.17 306.973 399.394 306.973H416.234C419.459 306.973 422.057 309.577 422.057 312.808V320.528C422.146 323.67 419.549 326.363 416.234 326.363ZM399.394 307.871C396.707 307.871 394.557 310.025 394.557 312.718V320.438C394.557 323.131 396.707 325.285 399.394 325.285H416.234C418.922 325.285 421.071 323.131 421.071 320.438V312.718C421.071 310.025 418.922 307.871 416.234 307.871H399.394Z" fill="white"/>
<path d="M416.234 356.434H399.394C396.17 356.434 393.572 353.831 393.572 350.599V342.879C393.572 339.648 396.17 337.044 399.394 337.044H416.234C419.459 337.044 422.057 339.648 422.057 342.879V350.599C422.146 353.741 419.549 356.434 416.234 356.434ZM399.394 337.942C396.707 337.942 394.557 340.096 394.557 342.789V350.509C394.557 353.202 396.707 355.357 399.394 355.357H416.234C418.922 355.357 421.071 353.202 421.071 350.509V342.879C421.071 340.186 418.922 338.032 416.234 338.032H399.394V337.942Z" fill="white"/>
<path d="M416.234 386.505H399.394C396.17 386.505 393.572 383.902 393.572 380.671V372.951C393.572 369.719 396.17 367.116 399.394 367.116H416.234C419.459 367.116 422.057 369.719 422.057 372.951V380.671C422.146 383.902 419.549 386.505 416.234 386.505ZM399.394 368.103C396.707 368.103 394.557 370.258 394.557 372.951V380.671C394.557 383.363 396.707 385.518 399.394 385.518H416.234C418.922 385.518 421.071 383.363 421.071 380.671V372.951C421.071 370.258 418.922 368.103 416.234 368.103H399.394Z" fill="white"/>
<path d="M451.258 296.291H434.418C431.193 296.291 428.596 293.688 428.596 290.457V282.737C428.596 279.505 431.193 276.902 434.418 276.902H451.258C454.483 276.902 457.08 279.505 457.08 282.737V290.457C457.17 293.598 454.572 296.291 451.258 296.291ZM434.418 277.8C431.731 277.8 429.581 279.954 429.581 282.647V290.367C429.581 293.06 431.731 295.214 434.418 295.214H451.258C453.945 295.214 456.095 293.06 456.095 290.367V282.647C456.095 279.954 453.945 277.8 451.258 277.8H434.418Z" fill="white"/>
<path d="M451.258 326.363H434.418C431.193 326.363 428.596 323.759 428.596 320.528V312.808C428.596 309.577 431.193 306.973 434.418 306.973H451.258C454.483 306.973 457.08 309.577 457.08 312.808V320.528C457.17 323.67 454.572 326.363 451.258 326.363ZM434.418 307.871C431.731 307.871 429.581 310.025 429.581 312.718V320.438C429.581 323.131 431.731 325.285 434.418 325.285H451.258C453.945 325.285 456.095 323.131 456.095 320.438V312.718C456.095 310.025 453.945 307.871 451.258 307.871H434.418Z" fill="white"/>
<path d="M451.258 356.434H434.418C431.193 356.434 428.596 353.831 428.596 350.599V342.879C428.596 339.648 431.193 337.044 434.418 337.044H451.258C454.483 337.044 457.08 339.648 457.08 342.879V350.599C457.17 353.741 454.572 356.434 451.258 356.434ZM434.418 337.942C431.731 337.942 429.581 340.096 429.581 342.789V350.509C429.581 353.202 431.731 355.357 434.418 355.357H451.258C453.945 355.357 456.095 353.202 456.095 350.509V342.879C456.095 340.186 453.945 338.032 451.258 338.032H434.418V337.942Z" fill="white"/>
<path d="M451.258 386.505H434.418C431.193 386.505 428.596 383.902 428.596 380.671V372.951C428.596 369.719 431.193 367.116 434.418 367.116H451.258C454.483 367.116 457.08 369.719 457.08 372.951V380.671C457.17 383.902 454.572 386.505 451.258 386.505ZM434.418 368.103C431.731 368.103 429.581 370.258 429.581 372.951V380.671C429.581 383.363 431.731 385.518 434.418 385.518H451.258C453.945 385.518 456.095 383.363 456.095 380.671V372.951C456.095 370.258 453.945 368.103 451.258 368.103H434.418Z" fill="white"/>
<path d="M486.282 296.291H469.442C466.217 296.291 463.62 293.688 463.62 290.457V282.737C463.62 279.505 466.217 276.902 469.442 276.902H486.282C489.507 276.902 492.104 279.505 492.104 282.737V290.457C492.194 293.598 489.596 296.291 486.282 296.291ZM469.442 277.8C466.755 277.8 464.605 279.954 464.605 282.647V290.367C464.605 293.06 466.755 295.214 469.442 295.214H486.282C488.969 295.214 491.119 293.06 491.119 290.367V282.647C491.119 279.954 488.969 277.8 486.282 277.8H469.442Z" fill="white"/>
<path d="M486.282 326.363H469.442C466.217 326.363 463.62 323.759 463.62 320.528V312.808C463.62 309.577 466.217 306.973 469.442 306.973H486.282C489.507 306.973 492.104 309.577 492.104 312.808V320.528C492.194 323.67 489.596 326.363 486.282 326.363ZM469.442 307.871C466.755 307.871 464.605 310.025 464.605 312.718V320.438C464.605 323.131 466.755 325.285 469.442 325.285H486.282C488.969 325.285 491.119 323.131 491.119 320.438V312.718C491.119 310.025 488.969 307.871 486.282 307.871H469.442Z" fill="white"/>
<path d="M486.282 356.434H469.442C466.217 356.434 463.62 353.831 463.62 350.599V342.879C463.62 339.648 466.217 337.044 469.442 337.044H486.282C489.507 337.044 492.104 339.648 492.104 342.879V350.599C492.194 353.741 489.596 356.434 486.282 356.434ZM469.442 337.942C466.755 337.942 464.605 340.096 464.605 342.789V350.509C464.605 353.202 466.755 355.357 469.442 355.357H486.282C488.969 355.357 491.119 353.202 491.119 350.509V342.879C491.119 340.186 488.969 338.032 486.282 338.032H469.442V337.942Z" fill="white"/>
<path d="M486.282 386.505H469.442C466.217 386.505 463.62 383.902 463.62 380.671V372.951C463.62 369.719 466.217 367.116 469.442 367.116H486.282C489.507 367.116 492.104 369.719 492.104 372.951V380.671C492.194 383.902 489.596 386.505 486.282 386.505ZM469.442 368.103C466.755 368.103 464.605 370.258 464.605 372.951V380.671C464.605 383.363 466.755 385.518 469.442 385.518H486.282C488.969 385.518 491.119 383.363 491.119 380.671V372.951C491.119 370.258 488.969 368.103 486.282 368.103H469.442Z" fill="white"/>
<path d="M483.415 416.756H382.823C374.134 416.756 363.833 409.934 363.475 401.227L355.861 145.755C355.682 141.357 357.294 137.138 360.34 133.906C363.475 130.675 367.685 128.88 372.253 128.88H505.092C509.661 128.88 513.871 130.675 517.006 133.906C520.051 137.138 521.664 141.267 521.484 145.755L521.037 159.669H519.693L520.141 145.755C520.32 141.716 518.887 137.856 516.02 134.894C513.154 131.932 509.302 130.226 505.092 130.226H372.253C368.043 130.226 364.191 131.842 361.325 134.894C358.548 137.856 357.025 141.716 357.205 145.755L364.818 401.137C365.177 409.126 374.761 415.41 382.823 415.41H483.415V416.756Z" fill="#3F5A9F"/>
<path d="M518.494 198.902L514.049 347.404L515.392 347.444L519.838 198.942L518.494 198.902Z" fill="#3F5A9F"/>
<path d="M488.252 98.09V153.385H388.287V98.09C388.018 94.3198 386.316 90.9088 383.719 88.3953C381.121 85.9717 377.538 84.4457 373.687 84.4457H473.652C477.503 84.4457 481.086 85.9717 483.684 88.3953C486.282 90.819 487.984 94.3198 488.252 98.09Z" fill="white"/>
<path d="M388.287 98.09H358.996C359.265 94.3198 360.967 90.9088 363.654 88.3953C366.252 85.9717 369.835 84.4457 373.686 84.4457C377.538 84.4457 381.121 85.9717 383.719 88.3953C386.227 90.9088 388.018 94.3198 388.287 98.09Z" fill="#2E4882"/>
<path d="M488.7 153.834H387.839V98.09C387.66 94.5891 386.048 91.2678 383.361 88.7544C380.673 86.2409 377.269 84.8945 373.597 84.8945V83.9968H473.562C477.414 83.9968 481.086 85.4331 483.953 88.0363C486.819 90.6394 488.432 94.23 488.7 98.0002V153.834ZM388.735 152.936H487.804V98.09C487.536 94.4993 486.013 91.178 483.326 88.7544C480.639 86.2409 477.235 84.8945 473.562 84.8945H378.703C380.584 85.6126 382.375 86.6898 383.898 88.0363C386.764 90.6394 388.377 94.23 388.645 98.0002L388.735 152.936Z" fill="#2E4882"/>
<path d="M494.433 153.834H382.017C380.046 153.834 378.523 152.218 378.523 150.333C378.523 149.436 378.882 148.538 379.598 147.82C380.225 147.192 381.121 146.743 382.106 146.743H388.197V147.64H382.106C381.39 147.64 380.763 147.91 380.225 148.448C379.688 148.987 379.419 149.615 379.419 150.333C379.419 151.77 380.584 152.937 382.017 152.937H494.433C495.149 152.937 495.776 152.667 496.314 152.129C496.851 151.68 497.12 150.962 497.12 150.244C497.12 148.807 495.956 147.64 494.522 147.64H488.431V146.743H494.522C496.493 146.743 498.016 148.359 498.016 150.244C498.016 151.231 497.658 152.039 496.941 152.757C496.224 153.475 495.329 153.834 494.433 153.834Z" fill="#2E4882"/>
<path d="M498.643 419.898C498.643 422.412 516.827 424.386 539.31 424.386C561.793 424.386 579.977 422.322 579.977 419.898C579.977 419.808 579.977 419.808 579.977 419.719V407.51H498.732V419.629C498.643 419.808 498.643 419.898 498.643 419.898Z" fill="#F49B51"/>
<path d="M539.31 412.268C561.769 412.268 579.977 410.259 579.977 407.78C579.977 405.301 561.769 403.292 539.31 403.292C516.85 403.292 498.643 405.301 498.643 407.78C498.643 410.259 516.85 412.268 539.31 412.268Z" fill="#FCC659"/>
<path d="M489.059 405.266C489.059 407.78 507.242 409.755 529.726 409.755C552.209 409.755 570.392 407.69 570.392 405.266C570.392 405.177 570.392 405.177 570.392 405.087V392.879H489.148V404.997C489.059 405.177 489.059 405.177 489.059 405.266Z" fill="#F49B51"/>
<path d="M529.725 397.547C552.185 397.547 570.392 395.537 570.392 393.059C570.392 390.58 552.185 388.57 529.725 388.57C507.266 388.57 489.059 390.58 489.059 393.059C489.059 395.537 507.266 397.547 529.725 397.547Z" fill="#FCC659"/>
<path d="M498.643 390.545C498.643 393.058 516.827 395.033 539.31 395.033C561.793 395.033 579.977 392.968 579.977 390.545C579.977 390.455 579.977 390.455 579.977 390.365V378.157H498.732V390.276C498.643 390.455 498.643 390.545 498.643 390.545Z" fill="#F49B51"/>
<path d="M539.31 382.825C561.769 382.825 579.977 380.816 579.977 378.337C579.977 375.858 561.769 373.849 539.31 373.849C516.85 373.849 498.643 375.858 498.643 378.337C498.643 380.816 516.85 382.825 539.31 382.825Z" fill="#FCC659"/>
<path d="M539.31 424.925C555.881 424.925 580.425 423.579 580.425 419.898H579.439C579.439 421.335 565.645 423.938 539.31 423.938C538.324 423.938 537.429 423.938 536.443 423.938V424.925C537.339 424.925 538.324 424.925 539.31 424.925Z" fill="#2E4882"/>
<path d="M523.186 424.566L523.276 423.578C519.156 423.399 515.393 423.13 512.079 422.771L511.99 423.758C515.214 424.117 519.066 424.386 523.186 424.566Z" fill="#2E4882"/>
<path d="M555.344 409.126C570.571 407.69 570.571 405.805 570.571 405.177H569.586C569.586 405.625 566.988 407.062 555.164 408.139L555.344 409.126Z" fill="#2E4882"/>
<path d="M529.457 410.204C534.025 410.204 538.504 410.114 542.803 409.934V408.947C535.189 409.216 526.68 409.306 518.797 409.037V410.024C522.291 410.114 525.874 410.204 529.457 410.204Z" fill="#2E4882"/>
<path d="M508.675 409.575L508.765 408.588C504.465 408.318 500.613 407.959 497.568 407.51L497.389 408.408C500.524 408.857 504.376 409.216 508.675 409.575Z" fill="#2E4882"/>
<path d="M566.63 382.197C580.156 380.85 580.156 379.055 580.156 378.427H579.171C579.171 378.427 578.812 380.043 566.451 381.299L566.63 382.197Z" fill="#2E4882"/>
<path d="M539.041 383.364C543.699 383.364 548.267 383.274 552.656 383.095V382.107C548.357 382.287 543.788 382.376 539.131 382.376C530.8 382.376 522.738 382.107 515.931 381.569L515.841 382.556C522.649 383.095 530.711 383.364 539.041 383.364Z" fill="#2E4882"/>
<path d="M484.221 375.913C484.221 378.427 502.405 380.401 524.888 380.401C547.372 380.401 565.555 378.337 565.555 375.913C565.555 375.823 565.555 375.823 565.555 375.734V363.526H484.311V375.644C484.221 375.734 484.221 375.823 484.221 375.913Z" fill="#F49B51"/>
<path d="M524.888 368.194C547.348 368.194 565.555 366.184 565.555 363.705C565.555 361.227 547.348 359.217 524.888 359.217C502.429 359.217 484.221 361.227 484.221 363.705C484.221 366.184 502.429 368.194 524.888 368.194Z" fill="#FCC659"/>
<path d="M491.835 363.705C491.835 365.411 506.615 366.757 524.978 366.757C543.251 366.757 558.121 365.411 558.121 363.705C558.121 362 543.341 360.653 524.978 360.653C506.615 360.653 491.835 362 491.835 363.705Z" fill="#F49B51"/>
<path d="M477.593 108.772H455.826V111.465H477.593V108.772Z" fill="#E1EAFF"/>
<path d="M445.794 108.772H402.082V111.465H445.794V108.772Z" fill="#E1EAFF"/>
<path d="M477.593 120.442H427.252V123.134H477.593V120.442Z" fill="#E1EAFF"/>
<path d="M421.071 120.442H402.082V123.134H421.071V120.442Z" fill="#E1EAFF"/>
<path d="M468.187 133.009H447.585V135.702H468.187V133.009Z" fill="#E1EAFF"/>
<path d="M438.897 133.009H402.082V135.702H438.897V133.009Z" fill="#E1EAFF"/>
<path d="M437.374 247.1H410.143V248.447H437.374V247.1Z" fill="#3F5A9F"/>
<path d="M493.179 248.446H447.944V247.1H493.179C494.881 247.1 496.314 245.753 496.404 244.048L498.733 181.841L500.076 181.93L497.747 244.138C497.568 246.471 495.598 248.446 493.179 248.446Z" fill="#3F5A9F"/>
<path d="M241.205 153.385C226.247 150.423 211.825 160.118 208.779 175.109C205.823 190.099 215.498 204.641 230.457 207.604C245.415 210.566 259.927 200.871 262.883 185.88C265.749 170.979 256.075 156.437 241.205 153.385ZM257.508 184.803C256.344 190.638 253.029 195.665 248.103 198.896C243.176 202.218 237.264 203.385 231.442 202.218C219.439 199.794 211.646 188.125 214.064 176.096C215.229 170.261 218.543 165.234 223.47 162.003C228.217 158.861 233.86 157.604 239.504 158.592C239.683 158.592 239.862 158.682 240.131 158.682C251.954 161.015 259.658 172.416 257.687 184.175C257.598 184.444 257.598 184.624 257.508 184.803Z" fill="#FCC659"/>
<path d="M257.687 184.265C257.687 184.444 257.598 184.624 257.598 184.893C256.433 190.728 253.119 195.754 248.192 198.986C243.266 202.307 237.354 203.474 231.532 202.307C219.529 199.884 211.736 188.214 214.154 176.186C215.319 170.351 218.633 165.324 223.559 162.093C228.307 158.951 233.95 157.694 239.593 158.681C239.772 158.681 239.952 158.771 240.22 158.771C251.955 161.105 259.658 172.416 257.687 184.265Z" fill="#F49B51"/>
<path d="M231.532 197.011L232.248 192.882C229.919 192.433 227.59 191.266 226.336 190.01L227.77 187.406C229.024 188.663 231.084 189.74 233.323 190.189C236.19 190.728 238.429 189.381 238.877 187.047C239.235 184.803 237.891 183.187 235.115 181.392C231.263 179.058 229.024 176.724 229.561 173.223C230.098 169.812 232.965 167.658 236.817 167.748L237.533 163.619L240.041 164.067L239.325 168.017C241.743 168.556 243.355 169.453 244.341 170.351L242.818 172.864C242.012 172.236 240.489 171.069 237.891 170.62C234.756 170.082 233.234 171.787 232.965 173.403C232.607 175.557 233.95 176.814 237.175 178.879C241.116 181.302 242.818 183.816 242.191 187.406C241.654 190.638 238.877 193.241 234.577 193.241L233.861 197.46L231.532 197.011Z" fill="#FCC659"/>
<path d="M257.687 178.609C257.687 178.43 257.687 178.25 257.598 178.071C256.881 171.787 253.477 166.132 248.282 162.452L248.64 161.913C254.015 165.593 257.419 171.428 258.135 177.891C258.135 178.16 258.225 178.34 258.225 178.52L257.687 178.609Z" fill="#2E4882"/>
<path d="M248.371 162.452C244.161 159.579 239.145 158.143 234.04 158.592L233.95 157.963C239.145 157.515 244.341 158.951 248.64 161.913L248.371 162.452Z" fill="#2E4882"/>
<path d="M253.119 194.947L252.671 194.588C254.552 192.344 255.896 189.83 256.792 187.137L257.329 187.317C256.433 190.099 255 192.703 253.119 194.947Z" fill="#2E4882"/>
<path d="M256.971 163.259C255.179 161.015 253.119 159.13 250.7 157.604L251.059 157.066C253.477 158.681 255.627 160.567 257.419 162.811L256.971 163.259Z" fill="#2E4882"/>
<path d="M247.207 205.988L246.938 205.359C254.91 201.769 260.733 194.408 262.524 185.791C263.599 180.405 263.062 174.929 260.912 169.902L261.539 169.633C263.689 174.749 264.226 180.405 263.151 185.88C261.36 194.767 255.448 202.307 247.207 205.988Z" fill="#2E4882"/>
<path d="M437.497 233.435C451.585 232.873 462.549 220.973 461.986 206.855C461.423 192.737 449.546 181.748 435.458 182.31C421.37 182.872 410.406 194.772 410.969 208.889C411.532 223.007 423.409 233.997 437.497 233.435Z" fill="#6D92F0"/>
<path d="M435.493 220.978L423.759 208.86L425.013 207.603L434.956 217.837L447.765 191.266L449.377 192.074L435.493 220.978Z" fill="white"/>
<path d="M217.916 165.414C220.424 166.671 222.126 168.645 223.38 171.159C224.545 168.735 226.336 166.76 228.844 165.414C226.336 164.157 224.634 162.182 223.38 159.669C222.216 162.182 220.424 164.157 217.916 165.414Z" fill="#FFE6A6"/>
<path d="M239.952 200.602C241.385 201.32 242.46 202.487 243.087 203.923C243.803 202.487 244.789 201.32 246.222 200.602C244.789 199.884 243.714 198.717 243.087 197.281C242.46 198.627 241.474 199.794 239.952 200.602Z" fill="#FFE6A6"/>
</svg>
