<svg width="129" height="79" viewBox="0 0 129 79" fill="none" xmlns="http://www.w3.org/2000/svg">
<rect x="10.0112" y="0.209717" width="108.204" height="74.4328" rx="3" fill="#6D92F0"/>
<rect x="13.0115" y="10.1824" width="102.205" height="60.3008" rx="1" fill="#F4F5F8"/>
<rect x="0.583008" y="73.1238" width="127.771" height="5.62072" rx="2.81036" fill="#6D92F0"/>
<rect x="59.301" y="74.8434" width="9.62512" height="2.18154" rx="1.09077" fill="#F5F5F5"/>
<path fill-rule="evenodd" clip-rule="evenodd" d="M17.3576 5.52403C17.3576 6.14527 16.854 6.64889 16.2328 6.64889C15.6115 6.64889 15.1079 6.14527 15.1079 5.52403C15.1079 4.90279 15.6115 4.39917 16.2328 4.39917C16.854 4.39917 17.3576 4.90279 17.3576 5.52403ZM20.7326 5.52403C20.7326 6.14527 20.229 6.64889 19.6077 6.64889C18.9865 6.64889 18.4829 6.14527 18.4829 5.52403C18.4829 4.90279 18.9865 4.39917 19.6077 4.39917C20.229 4.39917 20.7326 4.90279 20.7326 5.52403ZM22.9818 6.64889C23.603 6.64889 24.1067 6.14527 24.1067 5.52403C24.1067 4.90279 23.603 4.39917 22.9818 4.39917C22.3606 4.39917 21.8569 4.90279 21.8569 5.52403C21.8569 6.14527 22.3606 6.64889 22.9818 6.64889Z" fill="white"/>
<mask id="mask0_570_1965" style="mask-type:alpha" maskUnits="userSpaceOnUse" x="13" y="10" width="103" height="61">
<rect x="13.0115" y="10.1824" width="102.205" height="60.3008" rx="1" fill="#F4F5F8"/>
</mask>
<g mask="url(#mask0_570_1965)">
<path d="M59.8055 62.4611C71.028 62.4611 80.1257 53.3635 80.1257 42.141C80.1257 30.9184 71.028 21.8208 59.8055 21.8208C48.583 21.8208 39.4854 30.9184 39.4854 42.141C39.4854 53.3635 48.583 62.4611 59.8055 62.4611Z" fill="#E1EAFF"/>
<path d="M61.1812 30.2028L64.8869 31.0087L65.1652 31.0423C65.8943 30.0002 66.6525 29.1282 68.2134 28.8498C70.4611 28.4458 75.4613 26.6 78.2191 33.095C78.2191 33.095 75.1612 33.9204 73.5331 34.4718C73.5331 34.4718 73.6555 35.2257 73.5765 36.1367C76.3018 35.0914 79.9685 34.019 81.0052 32.7505C82.0429 31.481 83.8487 30.4162 85.3695 30.0295C86.8914 29.6449 88.3538 29.086 88.3538 29.086C88.3538 29.086 88.2389 24.96 85.5829 21.4092C85.5829 21.4092 80.5232 23.4391 79.0521 24.5874C77.6602 25.6738 75.497 25.7865 73.2504 26.7603C72.9688 26.8827 72.6687 26.9639 72.3643 27.0019C69.1569 27.4005 68.7821 26.9954 67.5841 27.1654C66.3265 27.3442 64.863 28.2898 63.769 28.5769C63.4148 28.67 62.3543 29.2701 61.1812 30.2028Z" fill="#DDB692"/>
<path opacity="0.4" d="M70.4504 28.4124C70.4504 28.4124 65.6311 28.5662 64.4731 30.9189C66.9353 31.6436 69.6239 29.4674 70.4504 28.4124Z" fill="#DDB692"/>
<path d="M69.4614 34.6482C69.4669 34.6515 69.4736 34.6526 69.4813 34.6537C69.4824 34.635 69.4846 34.614 69.4846 34.593C69.478 34.6118 69.4703 34.6294 69.4614 34.6482Z" fill="#DDB692"/>
<path d="M58.0117 38.9098C58.9433 39.9171 60.3287 41.0719 60.8909 40.3678C61.2202 39.9984 61.3924 39.5131 61.2148 39.0257C61.1693 38.8968 61.0989 38.7679 60.996 38.6411C60.9635 38.6454 60.9277 38.6487 60.8942 38.6509C59.9637 38.7494 58.992 38.835 58.0117 38.9098Z" fill="#DDB692"/>
<path d="M69.4614 34.6482C69.4669 34.6515 69.4736 34.6526 69.4813 34.6537C69.4824 34.635 69.4846 34.614 69.4846 34.593C69.478 34.6118 69.4703 34.6294 69.4614 34.6482Z" fill="#DDB692"/>
<path d="M68.6328 39.9453C68.6566 39.9648 68.6826 39.9886 68.7119 40.0125C69.0217 40.267 69.6294 40.6819 70.2284 40.6212C70.796 40.5638 71.4004 40.111 72.0146 39.3983C72.3504 39.0863 72.4642 38.965 72.5985 38.8632C72.7761 38.7267 73.2333 38.1266 73.4683 36.8614C73.4683 36.8592 73.4694 36.857 73.4683 36.856C73.5095 36.6371 73.5431 36.3978 73.568 36.1378C73.5701 36.1378 73.5734 36.1356 73.5766 36.1356C73.6557 35.2246 73.5333 34.4707 73.5333 34.4707C73.4012 34.5162 73.2777 34.5584 73.1683 34.5996C72.8964 34.6982 72.5887 34.7632 72.2605 34.8C71.9962 35.6579 71.2791 37.885 70.7798 38.392C70.4635 38.7148 69.6088 39.3669 68.6328 39.9453Z" fill="#DDB692"/>
<path d="M73.5679 36.1389C73.5441 36.3989 73.5094 36.6393 73.4683 36.8571C73.5224 36.6133 73.556 36.3696 73.5755 36.1367C73.5733 36.1367 73.5701 36.1389 73.5679 36.1389Z" fill="#DDB692"/>
<path opacity="0.4" d="M68.6328 39.9453C68.6566 39.9648 68.6826 39.9887 68.7119 40.0125C69.0217 40.2671 69.6294 40.6819 70.2284 40.6213C70.796 40.5639 71.4004 40.1111 72.0146 39.3983C72.3504 39.0863 72.4642 38.965 72.5985 38.8632C72.7761 38.7267 73.2333 38.1266 73.4683 36.8614C73.4683 36.8592 73.4694 36.8571 73.4683 36.856C73.5225 36.6123 73.5561 36.3685 73.5756 36.1357C76.3009 35.0903 79.9676 34.018 81.0043 32.7495C82.042 31.48 83.8477 30.4152 85.3686 30.0284C86.8905 29.6439 88.3529 29.085 88.3529 29.085C88.3529 29.085 88.3442 28.7697 88.276 28.2357C87.4625 28.5845 86.1821 29.1034 85.2213 29.3471C83.7004 29.7338 81.8947 30.7986 80.857 32.0682C79.8203 33.3366 76.1536 34.409 73.4282 35.4543C73.4076 35.6872 73.3752 35.932 73.321 36.1746C73.3221 36.1757 73.321 36.1768 73.321 36.1801C73.087 37.4453 72.6299 38.0454 72.4512 38.1819C72.3168 38.2837 72.2031 38.405 71.8673 38.717C71.2531 39.4286 70.6487 39.8825 70.0811 39.9399C69.7258 39.9746 69.3651 39.8435 69.0693 39.6767C68.9274 39.7677 68.7823 39.8565 68.6328 39.9453Z" fill="#DDB692"/>
<path d="M65.4858 40.9766C65.5129 41.0036 65.5443 41.0242 65.5833 41.0405C65.6537 41.0697 65.7436 41.0805 65.8585 41.0708C66.3362 41.0275 66.9092 40.8292 67.4952 40.5541C67.4963 40.553 67.4995 40.553 67.5006 40.5519C67.7411 40.4414 67.9827 40.3158 68.2199 40.1847C68.3585 40.1078 68.4972 40.0277 68.6326 39.9453C69.1742 39.6247 69.679 39.2802 70.0733 38.9813C70.122 38.9444 70.1697 38.9087 70.2173 38.8729C70.2498 38.8491 70.2791 38.8242 70.3094 38.7993C70.5141 38.639 70.6745 38.4971 70.7784 38.3931C71.2778 37.8861 71.9949 35.659 72.2592 34.8011C72.1736 34.8119 72.0859 34.8206 71.996 34.8271C71.9299 34.8304 71.8617 34.8358 71.7945 34.8379C71.0135 34.8737 70.1729 34.7816 69.4818 34.6527C69.4287 35.45 69.1655 36.2461 68.7052 36.8614C68.5708 37.0401 68.299 37.2091 67.909 37.3683C67.9101 37.7832 67.5234 38.1645 67.0002 38.6411C66.5441 39.056 66.1152 39.7579 65.5107 40.2291C65.4262 40.2952 65.3374 40.3559 65.2443 40.4133C65.2096 40.4339 65.1923 40.4447 65.2009 40.5227C65.2042 40.7242 65.3862 40.8726 65.4858 40.9766Z" fill="#DDB692"/>
<path d="M69.4614 34.6482C69.4669 34.6515 69.4736 34.6526 69.4813 34.6537C69.4824 34.635 69.4846 34.614 69.4846 34.593C69.478 34.6118 69.4703 34.6294 69.4614 34.6482Z" fill="#DDB692"/>
<path d="M69.4614 34.6482C69.4669 34.6515 69.4736 34.6526 69.4813 34.6537C69.4824 34.635 69.4846 34.614 69.4846 34.593C69.478 34.6118 69.4703 34.6294 69.4614 34.6482Z" fill="#DDB692"/>
<path d="M61.2158 39.0266C61.7878 39.6571 62.7454 40.5226 63.7993 40.6872C64.0344 40.7241 64.2521 40.7241 64.4504 40.6959C64.4514 40.697 64.4514 40.697 64.4525 40.6959C64.5316 40.6861 64.6074 40.671 64.6811 40.6526C64.6822 40.6515 64.6854 40.6515 64.6865 40.6504C64.8891 40.5973 65.0721 40.515 65.2433 40.411C65.3364 40.3547 65.4252 40.294 65.5097 40.2269C66.1142 39.7557 66.5431 39.0548 66.9992 38.6389C67.5224 38.1622 67.9091 37.7809 67.908 37.3661C67.9091 37.2848 67.8939 37.2036 67.8636 37.1191C67.8116 36.9772 67.7163 36.8299 67.5635 36.6717C66.8529 35.9297 65.6051 36.649 65.6051 36.649C65.0169 36.8851 63.8134 38.12 63.6195 38.2966C63.6022 38.3117 63.5664 38.3236 63.5166 38.3366C63.5112 38.3366 63.5058 38.3388 63.5014 38.3399C63.4614 38.3475 63.4159 38.354 63.3617 38.3594C63.3552 38.3605 63.3498 38.3605 63.3422 38.3615C62.6067 38.4645 61.8235 38.5554 61.0111 38.6399C61.0068 38.641 61.0014 38.641 60.9949 38.6421C61.0989 38.7678 61.1704 38.8967 61.2158 39.0266Z" fill="#DDB692"/>
<path opacity="0.4" d="M67.8659 37.1215C67.8963 37.2038 67.9114 37.2861 67.9103 37.3673C67.9114 37.7811 67.5247 38.1624 67.0015 38.6401C66.5455 39.055 66.1176 39.7569 65.5132 40.2281C65.4287 40.2942 65.3388 40.3549 65.2467 40.4112C65.0756 40.5163 64.8914 40.5975 64.6899 40.6506C64.6878 40.6517 64.6856 40.6517 64.6845 40.6528C64.6109 40.6712 64.534 40.6863 64.4549 40.6961C64.4538 40.6983 64.4538 40.6983 64.4527 40.6961C64.2534 40.7242 64.0367 40.7242 63.8017 40.6874C62.7466 40.5228 61.7901 39.6562 61.2171 39.0268C61.1857 38.9348 61.1391 38.8427 61.0774 38.7506C61.658 39.367 62.5647 40.1447 63.5591 40.2985C63.793 40.3354 64.0108 40.3354 64.2101 40.3072C64.2112 40.3094 64.2112 40.3094 64.2122 40.3072C64.2913 40.2975 64.3682 40.2823 64.4419 40.2639C64.443 40.2628 64.4451 40.2628 64.4473 40.2617C64.6499 40.2086 64.8329 40.1263 65.0041 40.0223C65.0961 39.966 65.186 39.9053 65.2705 39.8393C65.875 39.3681 66.3039 38.6672 66.7589 38.2513C67.2832 37.7746 67.6699 37.3933 67.6677 36.9785C67.6699 36.8983 67.6536 36.816 67.6233 36.7347C67.7435 36.8701 67.8204 36.998 67.8659 37.1215Z" fill="#DDB692"/>
<path d="M46.5544 38.7592C46.4634 38.9889 46.6205 39.2391 46.8675 39.2488C49.3481 39.3474 53.7795 39.2293 58.0127 38.9087C58.9931 38.834 59.9647 38.7484 60.8963 38.6509C60.9299 38.6487 60.9656 38.6444 60.9981 38.6411C61.0046 38.6401 61.01 38.6401 61.0144 38.639C61.8279 38.5534 62.6099 38.4624 63.3454 38.3606C63.3519 38.3595 63.3574 38.3595 63.3649 38.3584C63.4115 38.3498 63.4592 38.3454 63.5047 38.3389C63.509 38.3378 63.5144 38.3357 63.5198 38.3357C63.5708 38.3227 63.6065 38.3108 63.6227 38.2956C63.8156 38.119 65.0201 36.8842 65.6083 36.648C65.6083 36.648 66.8562 35.9288 67.5668 36.6708C67.7184 36.8289 67.8148 36.9773 67.8668 37.1181C67.8971 37.2015 67.9123 37.2839 67.9112 37.3651C68.3012 37.2059 68.5731 37.038 68.7074 36.8582C69.1667 36.2429 69.431 35.4467 69.4841 34.6495C69.4765 34.6495 69.4689 34.6473 69.4646 34.6441C68.9619 34.552 68.5427 34.4382 68.2838 34.3386C67.4368 34.0125 66.7229 34.1144 65.9755 34.9235C65.2292 35.7338 62.8634 37.6012 60.6385 37.4648C58.4168 37.3283 58.2261 35.9526 58.5132 35.593C58.8002 35.2355 58.9887 34.8055 60.9645 34.4567C62.0759 34.1544 62.9414 34.0754 64.1633 32.4776C64.5348 31.9891 64.849 31.4984 65.1674 31.0402C64.889 31.0066 64.889 31.0066 64.889 31.0066L61.1833 30.2007L48.0915 27.3496C47.968 27.3226 47.8521 27.4168 47.8543 27.5425C47.8684 28.8878 47.877 35.4142 46.5544 38.7592Z" fill="#4A6B2F"/>
<path d="M73.2571 34.7632C73.2571 34.7632 73.4521 35.6504 73.0101 35.7316C72.5671 35.8129 72.1576 35.5399 72.2063 34.8499C72.67 34.6852 73.2571 34.7632 73.2571 34.7632Z" fill="#F1E4CE"/>
<path opacity="0.6" d="M72.3904 35.5463C72.5431 35.7164 72.7717 35.7749 73.0089 35.7315C73.4519 35.6503 73.2559 34.7621 73.2559 34.7621C73.2559 34.7621 73.2147 34.7556 73.1432 34.7512C73.179 34.983 73.232 35.5593 72.8789 35.6232C72.7023 35.6546 72.5301 35.6308 72.3904 35.5463Z" fill="#F1E4CE"/>
<path d="M67.8508 37.4582C67.8508 37.4582 66.6539 37.0185 66.4296 37.1268C66.2054 37.2351 65.4341 38.1212 65.7916 38.5285C66.2563 39.0571 67.1229 38.6065 67.8508 37.4582Z" fill="#F1E4CE"/>
<path opacity="0.6" d="M65.7916 38.5284C66.2563 39.0581 67.1229 38.6064 67.8519 37.4593C67.8519 37.4593 67.8205 37.4474 67.7641 37.4279C67.0665 38.4255 66.2747 38.7938 65.8392 38.2966C65.7699 38.2175 65.7428 38.1211 65.7472 38.0139C65.6789 38.2067 65.6735 38.393 65.7916 38.5284Z" fill="#F1E4CE"/>
<path opacity="0.4" d="M65.4858 40.9764C65.5129 41.0035 65.5443 41.0241 65.5833 41.0403C65.6537 41.0696 65.7436 41.0804 65.8585 41.0707C66.3362 41.0273 66.9092 40.8291 67.4952 40.554C67.4963 40.5529 67.4995 40.5529 67.5006 40.5518C68.3672 40.1283 69.3356 39.5249 70.0733 38.9811C70.122 38.9443 70.1697 38.9086 70.2174 38.8728C70.2498 38.849 70.2791 38.8241 70.3094 38.7992C71.7046 37.6358 71.9852 34.9364 71.9949 34.8259C71.9949 34.8237 71.9949 34.8237 71.9949 34.8237L71.7934 34.8378C71.814 39.4112 65.4858 40.9764 65.4858 40.9764Z" fill="#DDB692"/>
<path d="M71.762 34.9908C71.762 34.9908 71.7436 36.425 70.9962 36.5268C70.2488 36.6286 70.0462 35.9094 70.1047 35.7263C70.1643 35.5432 70.265 34.8045 70.265 34.8045C70.265 34.8045 71.6385 34.7471 71.762 34.9908Z" fill="#F1E4CE"/>
<path opacity="0.6" d="M70.9973 36.5255C71.7436 36.4237 71.7631 34.9906 71.7631 34.9906C71.7447 34.9538 71.6949 34.9213 71.6245 34.8975C71.6104 35.1683 71.5183 36.2862 70.8619 36.3761C70.5856 36.4129 70.3831 36.3381 70.239 36.2201C70.3755 36.4161 70.6149 36.5765 70.9973 36.5255Z" fill="#F1E4CE"/>
<path opacity="0.4" d="M64.1265 37.8113C64.1265 37.8113 63.3281 38.5652 63.4115 38.9638C63.0281 38.4049 63.0281 38.4049 63.0281 38.4049L63.6228 38.2976L64.1265 37.8113Z" fill="#DDB692"/>
<path opacity="0.4" d="M60.4761 38.6953C60.4761 38.6953 61.2473 38.9986 61.1953 39.8858C61.5019 39.3268 60.9971 38.6422 60.9971 38.6422L60.4761 38.6953Z" fill="#DDB692"/>
<path d="M47.8457 38.1612C53.9074 38.197 60.5584 38.0605 64.2002 37.742C64.6497 37.3195 65.2455 36.7942 65.6084 36.649C65.6084 36.649 66.8562 35.9298 67.5668 36.6718L67.5798 36.6859C68.1279 36.0717 68.5796 35.2008 68.6501 34.4598C68.5071 34.4198 68.3825 34.3786 68.2828 34.3407C67.4358 34.0146 66.7219 34.1165 65.9745 34.9256C65.2282 35.7359 62.8624 37.6034 60.6375 37.4669C58.4158 37.3304 58.2251 35.9547 58.5122 35.5951C58.7992 35.2376 58.9877 34.8076 60.9635 34.4588C62.0749 34.1565 62.9404 34.0775 64.1623 32.4797C64.3323 32.2555 64.4916 32.0302 64.6443 31.807L48.761 28.54C48.761 28.539 49.0134 33.8229 47.8457 38.1612Z" fill="#5B813B"/>
<path d="M60.6363 37.4667C62.8613 37.6032 65.227 35.7358 65.9734 34.9255C66.7197 34.1153 67.4346 34.0145 68.2817 34.3406C68.5406 34.4402 68.9598 34.554 69.4624 34.646C69.4711 34.6276 69.4787 34.6103 69.4852 34.5919C69.4852 34.6125 69.483 34.6319 69.4819 34.6514C70.173 34.7804 71.0136 34.8724 71.7946 34.8367C71.9538 34.8302 72.1087 34.8183 72.2593 34.7998C72.5875 34.7641 72.8952 34.698 73.167 34.5995C73.2775 34.5583 73.401 34.516 73.5321 34.4705C75.1602 33.9192 78.2181 33.0938 78.2181 33.0938C75.4602 26.5977 70.4612 28.4446 68.2124 28.8486C66.6515 29.1281 65.8932 29.999 65.1642 31.0411C64.8457 31.4993 64.5316 31.99 64.16 32.4785C62.9382 34.0763 62.0716 34.1553 60.9613 34.4575C58.9855 34.8063 58.797 35.2375 58.51 35.5938C58.224 35.9546 58.4146 37.3313 60.6363 37.4667Z" fill="#DDB692"/>
<path d="M60.9234 34.8877C60.9234 34.8877 61.2571 36.3804 61.1368 36.4898C61.0166 36.5992 59.5174 37.0867 59.1285 36.7812C58.7397 36.4757 58.4104 35.3091 59.3224 35.0632C60.2367 34.8184 60.9234 34.8877 60.9234 34.8877Z" fill="#F1E4CE"/>
<path opacity="0.4" d="M76.4741 32.3486C76.4741 32.3486 74.3748 34.5909 72.7164 34.7274C71.058 34.8639 69.3454 34.7263 68.1235 34.2854C71.6765 34.4122 71.3104 35.3827 76.4741 32.3486Z" fill="#DDB692"/>
<path opacity="0.6" d="M59.4783 36.8797C60.0643 36.9079 61.0403 36.5786 61.1367 36.4919C61.2569 36.3825 60.9244 34.8909 60.9244 34.8909C60.9244 34.8909 60.906 34.8898 60.8691 34.8866C61.0316 35.4445 61.1692 36.6371 59.4783 36.8797Z" fill="#F1E4CE"/>
<path d="M85.5094 32.0118L86.819 31.4789L82.5771 21.0464L81.2675 21.5793C81.1635 21.6216 81.1137 21.7396 81.1559 21.8436L85.2451 31.9003C85.2873 32.0032 85.4054 32.0541 85.5094 32.0118Z" fill="#F1E4CE"/>
<path d="M88.6431 32.2417L118.818 19.4149L113.603 6.5885L83.4274 19.4153C82.7103 19.7066 82.2023 20.1248 82.2933 20.3479L87.1797 32.3652C87.2707 32.5883 87.926 32.5342 88.6431 32.2417Z" fill="#0153C8"/>
<path opacity="0.4" d="M58.5133 35.5841C58.3184 35.829 58.3444 36.5428 59.0799 37.0194C57.1702 36.949 55.6504 35.7954 55.6504 34.3829C55.6504 32.9248 57.2698 31.743 59.2662 31.743C60.9853 31.743 62.4238 32.6183 62.791 33.7925C62.1855 34.1684 61.6179 34.2702 60.9647 34.4478C58.9889 34.7966 58.8004 35.2267 58.5133 35.5841Z" fill="#5B813B"/>
<path d="M59.3386 54.456C60.3666 54.5177 61.2462 54.5318 61.7856 54.5361C62.35 54.0769 62.4919 53.4616 62.4594 52.8896C61.3881 53.3955 60.3384 53.9209 59.3386 54.456Z" fill="#F4C198"/>
<path d="M55.5776 56.7255C57.2826 57.0255 58.9291 57.1815 60.0481 57.2649C60.0513 57.2649 60.0513 57.2649 60.0513 57.2649C61.0652 56.993 61.4888 55.9542 61.4487 54.7605C61.5213 54.7204 61.5938 54.6771 61.6545 54.6338C61.1118 54.6847 60.2463 54.7172 59.0483 54.6154H59.045C57.7896 55.3 56.6164 56.0051 55.5776 56.7255Z" fill="#F4C198"/>
<path d="M51.4518 58.4704C52.874 59.545 56.4941 60.0086 58.0908 60.1678C59.7265 59.9545 59.6398 58.3946 59.3538 57.424C58.3291 57.4024 57.1462 57.2616 55.4228 56.8337C54.7242 57.3255 54.0872 57.8259 53.5337 58.3253C53.3311 58.0209 53.1459 57.7425 52.9726 57.4815C52.8166 57.6006 52.6617 57.7165 52.509 57.8357C51.9771 57.4305 51.286 56.6994 50.6231 55.9465C50.4671 56.0549 50.3079 56.1599 50.1378 56.2618C50.1378 56.2618 50.1378 56.2618 50.1346 56.265C50.1346 56.2683 50.1313 56.2683 50.1313 56.2683C50.0836 56.3527 49.6959 57.1424 51.4518 58.4704Z" fill="#F4C198"/>
<path d="M37.9678 51.3213V62.3149L42.5357 62.2716C42.5357 62.2716 43.9407 62.6767 47.017 63.1295C49.2539 63.4588 51.4149 63.0461 53.3701 62.8836C51.2925 62.3442 50.0219 60.6359 50.1703 59.8137C50.3295 58.9266 51.2849 58.9093 51.3575 58.9093C51.3141 58.9277 50.5862 59.2277 50.427 59.7531C50.2212 61.2956 52.6671 62.4427 53.7027 62.8587C54.6201 63.2584 55.1022 63.305 55.6665 63.2584C57.82 63.0807 57.5178 60.8461 57.0216 60.155C56.0446 60.0315 54.8855 59.8874 54.0894 59.7823C52.4602 59.5722 50.6978 58.5626 50.1833 57.6246C49.7088 56.7666 50.0674 56.3355 50.1291 56.2705C48.3884 57.3126 46.0139 57.852 42.9874 56.7049C39.8125 55.4993 39.6933 53.4 40.4971 51.4816C39.0976 51.6257 37.9678 51.3213 37.9678 51.3213Z" fill="#F4C198"/>
<path d="M59.0493 54.6153C60.2474 54.7171 61.1129 54.6835 61.6555 54.6337C61.7021 54.6012 61.7465 54.5687 61.7855 54.5362C61.2461 54.533 60.3665 54.5178 59.3385 54.4561C59.2411 54.507 59.1468 54.5611 59.0493 54.6153Z" fill="#CB9672"/>
<path d="M59.3539 57.4243C59.343 57.395 59.3322 57.3669 59.3246 57.3376C59.5965 57.3517 59.8316 57.33 60.0482 57.265C58.9292 57.1816 57.2827 57.0256 55.5778 56.7256H55.5745C55.5203 56.7613 55.4727 56.7982 55.4229 56.8339C57.1452 57.2618 58.3291 57.4026 59.3539 57.4243Z" fill="#CB9672"/>
<path d="M50.1843 57.6234C50.6988 58.5604 52.4612 59.5711 54.0904 59.7812C54.8865 59.8863 56.0445 60.0314 57.0226 60.1538C57.0194 60.1506 57.0194 60.1463 57.0151 60.143C57.4386 60.2048 57.7928 60.208 58.0896 60.1679C56.4929 60.0087 52.8739 59.5451 51.4506 58.4705C49.6947 57.1425 50.0824 56.3528 50.129 56.2694C50.0684 56.3344 49.7109 56.7655 50.1843 57.6234Z" fill="#CB9672"/>
<path d="M53.37 62.8824C53.37 62.8824 53.37 62.8824 53.3733 62.8824C53.4859 62.8716 53.5942 62.864 53.7026 62.8575C52.667 62.4415 50.22 61.2933 50.4269 59.7519C50.5861 59.2265 51.3141 58.9265 51.3574 58.9081C51.2848 58.9081 50.3294 58.9265 50.1702 59.8126C50.0218 60.6347 51.2924 62.3441 53.37 62.8824Z" fill="#CB9672"/>
<path d="M50.623 55.9477C51.2849 56.7005 51.9771 57.4317 52.5089 57.8368C52.6606 57.7176 52.8166 57.6017 52.9726 57.4826C53.3961 57.1641 53.8337 56.8489 54.2897 56.538C54.3114 56.5196 54.3331 56.5055 54.3547 56.4914C55.3827 55.7895 56.48 55.1049 57.6196 54.4496C57.6813 54.4095 57.7431 54.3737 57.8081 54.3412C59.2487 53.5126 60.7544 52.7272 62.2753 51.9885C69.7495 48.3467 76.6442 46.2127 76.6442 46.2127C76.6442 46.2127 75.3162 44.3409 72.4196 42.35C70.9714 42.5894 68.663 43.8687 63.1321 46.4131C62.5677 46.6742 62.0023 46.9342 61.4379 47.1985C61.7022 47.1985 61.9915 47.2743 62.3099 47.466C63.7582 48.3348 62.0814 50.0972 61.7196 50.4156C61.6687 50.459 61.5647 50.4341 61.5495 50.4882C60.6407 50.8825 59.8261 51.3537 58.979 51.7296C57.6217 52.1022 55.8593 52.3524 53.7124 52.178C53.5965 52.5908 52.8653 53.9881 51.5156 55.2219C51.5124 55.2251 51.5124 55.2252 51.5124 55.2252C51.2416 55.4765 50.9448 55.7191 50.623 55.9477Z" fill="#4A6B2F"/>
<path d="M75.1742 45.6777C75.1742 45.6777 68.2806 47.8116 60.8052 51.4534C59.2855 52.1911 57.7787 52.9775 56.3391 53.8062C56.273 53.8376 56.2124 53.8755 56.1506 53.9145C55.0111 54.5699 53.9138 55.2545 52.8858 55.9564C52.8641 55.9705 52.8425 55.9856 52.8208 56.003C52.3724 56.3095 51.9402 56.6193 51.5231 56.9324C51.2274 56.6269 50.9187 56.2879 50.6165 55.9445C50.9382 55.7159 51.2361 55.4733 51.5069 55.223C51.5069 55.223 51.5069 55.223 51.5112 55.2198C52.8609 53.9849 53.5921 52.5876 53.708 52.1749C55.8538 52.3493 57.6162 52.099 58.9735 51.7264C59.8206 51.3505 60.6352 50.8793 61.544 50.485C61.5592 50.4309 61.6632 50.4569 61.7141 50.4135C62.0748 50.0951 63.7516 48.3316 62.3033 47.4628C61.9849 47.2711 61.6946 47.1953 61.4303 47.1953C61.9957 46.931 62.5601 46.6699 63.1244 46.4089C68.0043 44.1644 70.3755 42.9046 71.8606 42.4746C74.1256 44.2013 75.1742 45.6777 75.1742 45.6777Z" fill="#7CA857"/>
<path d="M52.9714 57.4826C53.1448 57.7436 53.33 58.022 53.5325 58.3264C54.0861 57.827 54.723 57.3277 55.4217 56.8348C55.4726 56.799 55.5192 56.7622 55.5733 56.7265H55.5766C56.6154 56.0061 57.7885 55.2999 59.044 54.6164H59.0472C59.1447 54.5622 59.239 54.508 59.3364 54.4571C60.3352 53.9209 61.3848 53.3966 62.4561 52.8897C70.5749 49.0659 76.4438 47.4974 76.4438 47.4974L75.6476 46.5269C73.8744 47.0847 69.7495 48.3456 62.2752 51.9863C60.7555 52.725 59.2487 53.5104 57.808 54.339C57.743 54.3715 57.6813 54.4084 57.6195 54.4474C56.4789 55.1027 55.3827 55.7862 54.3547 56.4892C54.333 56.5033 54.3114 56.5185 54.2897 56.5358C53.8337 56.8489 53.395 57.1641 52.9714 57.4826Z" fill="#3D5A25"/>
<path d="M42.9883 56.7037C46.0149 57.8508 48.3893 57.3114 50.13 56.2693C50.13 56.2693 50.1333 56.2693 50.1333 56.266C50.1365 56.2628 50.1365 56.2628 50.1365 56.2628C50.3066 56.161 50.4658 56.057 50.6218 55.9476C50.9435 55.719 51.2403 55.4775 51.5122 55.2272C51.5122 55.2272 51.5122 55.2272 51.5155 55.224C52.8652 53.9902 53.5963 52.5928 53.7122 52.1801C55.8592 52.3534 57.6216 52.1043 58.9789 51.7317C59.8259 51.3547 60.4488 51.0763 61.3565 50.682C61.3706 50.6279 61.6674 50.4611 61.7183 50.4177C62.0801 50.0993 63.7559 48.3369 62.3087 47.4681C61.9902 47.2764 61.701 47.2006 61.4367 47.2006H61.4334C61.35 47.2006 61.271 47.2081 61.1908 47.2222C60.7272 47.3056 60.3437 47.6057 60.0144 47.8592C60.0112 47.8624 60.0068 47.8624 60.0068 47.8667C59.801 48.026 59.6125 48.1711 59.4349 48.2285C59.41 48.2361 59.3883 48.2426 59.3667 48.247C59.3017 48.261 59.2291 48.2686 59.1424 48.2686C58.3354 48.3152 56.6738 48.0227 55.5656 48.0661C54.3459 48.1094 53.4848 47.9285 52.2174 47.5234C50.95 47.1139 45.34 49.1049 43.0772 50.5997C42.2377 51.1532 41.3213 51.3959 40.4958 51.4825C39.6943 53.3988 39.8145 55.4991 42.9883 56.7037Z" fill="#F4C198"/>
<path d="M59.4373 48.2264C59.5889 48.4907 59.9182 48.8059 60.2811 48.9392C60.8389 49.1526 61.8008 48.2329 61.8008 47.9437C61.634 47.4584 61.3849 47.2818 61.1932 47.2201C60.7295 47.3035 60.3461 47.6036 60.0168 47.857C60.0135 47.8603 60.0092 47.8603 60.0092 47.8646C59.8023 48.0238 59.6138 48.169 59.4373 48.2264Z" fill="#FFF4E3"/>
<path opacity="0.5" d="M61.8008 47.9437C61.8008 48.234 60.8379 49.1526 60.2811 48.9392C59.9182 48.8059 59.5889 48.4907 59.4373 48.2264C59.4979 48.2058 59.5607 48.1766 59.6247 48.1376C59.7958 48.3261 60.0298 48.5048 60.2811 48.598C60.7512 48.7778 61.5095 48.1517 61.7358 47.778C61.7586 47.8289 61.7803 47.8852 61.8008 47.9437Z" fill="#EADECE"/>
<path d="M53.7136 52.1792C53.7136 52.1792 51.6998 57.6137 45.2915 57.539C46.2892 57.0754 50.3177 57.3169 53.7136 52.1792Z" fill="#CB9672"/>
<path d="M51.5458 59.2223C51.4451 59.2038 51.3422 59.2385 51.2739 59.3143C51.0519 59.557 50.6067 60.1289 50.8558 60.5687C51.1797 61.1417 51.8502 61.2923 52.0745 61.067C52.2987 60.8428 52.733 60.1322 52.5976 59.7335C52.4947 59.4302 51.8502 59.2786 51.5458 59.2223Z" fill="#FFF4E3"/>
<path opacity="0.5" d="M52.6203 59.9923C52.5759 60.3877 52.2575 60.886 52.0766 61.068C51.8513 61.2911 51.1818 61.1416 50.8579 60.5697C50.7453 60.3704 50.7756 60.144 50.8634 59.9338C50.8536 60.0497 50.8731 60.1646 50.9327 60.2707C51.2566 60.8437 51.9271 60.9932 52.1502 60.769C52.2889 60.6304 52.5044 60.3108 52.6203 59.9923Z" fill="#EADECE"/>
<path d="M50.7663 56.1091C50.7663 56.1091 50.255 56.6172 50.3547 56.8912C50.4543 57.1653 50.9483 57.865 51.4866 57.5401C51.8539 57.2595 51.8539 57.2595 51.8539 57.2595L50.7663 56.1091Z" fill="#FFF4E3"/>
<path opacity="0.5" d="M51.8525 57.2595C51.8525 57.2595 51.8525 57.2595 51.4853 57.54C50.9469 57.865 50.4529 57.1652 50.3533 56.8912C50.3316 56.8327 50.3381 56.7623 50.3619 56.6886C50.4811 56.9778 50.9621 57.6278 51.4853 57.3115C51.5957 57.228 51.6726 57.1685 51.7268 57.1273L51.8525 57.2595Z" fill="#EADECE"/>
<path opacity="0.3" d="M65.7902 46.5508C65.7902 48.3554 64.3278 49.8167 62.5243 49.8167C62.4409 49.8167 62.3575 49.8134 62.2762 49.8069C62.8048 49.1256 63.3356 48.0694 62.3152 47.4585C61.9967 47.2668 61.7064 47.1909 61.4421 47.1909C62.0076 46.9266 62.5719 46.6656 63.1363 46.4045C64.0148 46.0005 64.8131 45.6289 65.5378 45.2877C65.7014 45.6766 65.7902 46.1034 65.7902 46.5508Z" fill="#7CA857"/>
<path d="M38.4009 63.253H36.6895V50.549H38.4009C38.7411 50.549 39.0173 50.8252 39.0173 51.1653V62.6366C39.0173 62.9778 38.7411 63.253 38.4009 63.253Z" fill="#F1E4CE"/>
<path d="M36.508 63.9137H11.8308V49.8513H36.508C36.7453 49.8513 36.9376 50.0409 36.9376 50.2749V63.4912C36.9376 63.7241 36.7453 63.9137 36.508 63.9137Z" fill="#0153C8"/>
</g>
</svg>
