<svg width="129" height="106" viewBox="0 0 129 106" fill="none" xmlns="http://www.w3.org/2000/svg">
<path d="M122.947 105.879H0.843611C0.504436 105.879 0.226929 105.602 0.226929 105.263C0.226929 104.924 0.504436 104.647 0.843611 104.647H122.957C123.296 104.647 123.574 104.924 123.574 105.263C123.563 105.602 123.286 105.879 122.947 105.879Z" fill="#547EE9"/>
<path d="M75.4416 1.15049H75.4313C75.308 1.1094 75.1846 1.0683 75.0613 1.02721C75.0202 1.01693 74.9791 1.00666 74.938 0.986111C74.8968 0.975838 74.8455 0.965565 74.8043 0.955292C74.7632 0.945018 74.7118 0.934746 74.6604 0.924472C74.6193 0.914199 74.5679 0.903926 74.5268 0.893653C74.4754 0.883379 74.424 0.873107 74.3727 0.862833C74.3315 0.85256 74.2904 0.852558 74.2493 0.842285C74.1979 0.832011 74.1363 0.83201 74.0849 0.821736C74.0438 0.821736 74.0026 0.811465 73.9615 0.811465C73.8999 0.801192 73.8382 0.801188 73.7765 0.801188C73.7457 0.801188 73.7149 0.801191 73.6738 0.790917C73.5813 0.790917 73.4785 0.78064 73.386 0.78064H28.6149C28.5121 0.78064 28.4093 0.780643 28.3065 0.790917C28.101 0.801191 27.8954 0.821735 27.7001 0.852556C27.5973 0.862829 27.5048 0.883377 27.4021 0.903924C24.8428 1.42788 22.8797 3.57505 22.6125 6.21536C22.5919 6.42083 22.5817 6.6263 22.5817 6.83178V81.572V98.6261C22.5817 101.246 24.2467 103.475 26.5695 104.318C26.5798 104.318 26.5901 104.328 26.6004 104.328C26.7134 104.369 26.8368 104.41 26.9498 104.441C26.9909 104.451 27.032 104.462 27.0732 104.482C27.1143 104.492 27.1657 104.503 27.2068 104.513C27.2479 104.523 27.2993 104.533 27.3507 104.544C27.3918 104.554 27.4432 104.564 27.4843 104.575C27.5357 104.585 27.5871 104.595 27.6385 104.605C27.6796 104.616 27.7207 104.616 27.7618 104.626C27.8132 104.636 27.8749 104.636 27.9262 104.646C27.9674 104.646 28.0085 104.657 28.0496 104.657C28.1112 104.667 28.1729 104.667 28.2346 104.667C28.2654 104.667 28.2963 104.667 28.3374 104.677C28.4299 104.677 28.5326 104.688 28.6251 104.688H73.4065C73.6121 104.688 73.8177 104.677 74.0232 104.657C76.86 104.369 79.1211 102.099 79.4089 99.2528C79.4295 99.0474 79.4397 98.8419 79.4397 98.6364V23.8962V6.84205C79.4295 4.22229 77.7644 1.99292 75.4416 1.15049Z" fill="#6D92F0"/>
<path d="M76.6749 9.04077H25.5006V96.4278H76.6749V9.04077Z" fill="#F7F7F7"/>
<path d="M61.8952 6.29761H40.1777C40.1469 6.29761 40.1263 6.27707 40.1263 6.24625V5.25999C40.1263 5.22917 40.1469 5.20862 40.1777 5.20862H61.8952C61.9261 5.20862 61.9466 5.22917 61.9466 5.25999V6.24625C61.9569 6.26679 61.9261 6.29761 61.8952 6.29761Z" fill="#0153C8"/>
<path opacity="0.2" d="M76.5002 92.7703H25.5006V96.4379H76.5002V92.7703Z" fill="#BDBDBD"/>
<path opacity="0.2" d="M76.6749 9.04077H25.5006V13.6742H76.6749V9.04077Z" fill="#3CB4C5"/>
<path d="M63.3158 67.8497C70.071 61.0975 70.071 50.1499 63.3158 43.3976C56.5606 36.6453 45.6083 36.6453 38.8531 43.3976C32.0979 50.1499 32.0979 61.0975 38.8531 67.8497C45.6083 74.602 56.5606 74.602 63.3158 67.8497Z" fill="#FF9ECD"/>
<path d="M39.4274 50.361L42.9322 60.9737C43.1172 61.4051 43.5489 61.6825 44.0217 61.6825H55.7181C56.2833 61.6825 56.7664 61.2819 56.8795 60.7374L57.7017 50.2686C57.7531 50.0015 57.5476 49.7446 57.2803 49.7446H39.8282C39.5096 49.7549 39.304 50.0734 39.4274 50.361ZM54.0016 51.5425C54.0016 51.0802 54.3819 50.7001 54.8444 50.7001C55.3069 50.7001 55.6872 51.0802 55.6872 51.5425V59.9052C55.6872 60.3675 55.3069 60.7476 54.8444 60.7476C54.3819 60.7476 54.0016 60.3675 54.0016 59.9052V51.5425ZM50.4249 51.5425C50.4249 51.0802 50.8052 50.7001 51.2677 50.7001C51.7302 50.7001 52.1105 51.0802 52.1105 51.5425L52.3777 59.9052C52.3777 60.3675 51.9974 60.7476 51.5349 60.7476C51.0724 60.7476 50.6921 60.3675 50.6921 59.9052L50.4249 51.5425ZM46.5501 51.5425C46.5501 51.0802 46.9303 50.7001 47.3928 50.7001C47.8554 50.7001 48.2357 51.0802 48.2357 51.5425L49.0784 59.9052C49.0784 60.3675 48.6982 60.7476 48.2357 60.7476C47.7731 60.7476 47.3928 60.3675 47.3928 59.9052L46.5501 51.5425ZM42.0688 51.5425C42.0688 51.0802 42.4491 50.7001 42.9116 50.7001C43.3741 50.7001 43.7544 51.0802 43.7544 51.5425L45.7689 59.9052C45.7689 60.3675 45.3886 60.7476 44.9261 60.7476C44.4636 60.7476 44.0833 60.3675 44.0833 59.9052L42.0688 51.5425Z" fill="#F7F7F7"/>
<path d="M42.0071 62.8538C42.0071 63.2031 42.2846 63.4805 42.634 63.4805H56.4477C57.4138 63.4805 58.2669 62.7922 58.4725 61.847L60.1375 47.9263C60.2197 47.5359 60.5898 47.2585 60.9906 47.2791L62.1109 47.351C62.4604 47.3716 62.7584 47.1044 62.779 46.7551C62.7995 46.4058 62.5323 46.1079 62.1828 46.0874L60.5178 45.9846C59.8086 45.9435 59.1714 46.4264 59.0172 47.1147L57.2288 61.5696C57.1466 61.9395 56.8177 62.2066 56.4374 62.2066H42.6238C42.2846 62.2271 42.0071 62.5045 42.0071 62.8538Z" fill="#F7F7F7"/>
<path d="M45.2883 67.301C46.2827 67.0663 46.8984 66.0703 46.6636 65.0764C46.4288 64.0824 45.4324 63.4669 44.438 63.7016C43.4437 63.9363 42.8279 64.9323 43.0627 65.9263C43.2975 66.9202 44.2939 67.5357 45.2883 67.301Z" fill="#F7F7F7"/>
<path d="M56.336 66.8185C57.0585 66.0963 57.0585 64.9254 56.336 64.2033C55.6135 63.4811 54.4421 63.4811 53.7197 64.2033C52.9972 64.9254 52.9972 66.0963 53.7197 66.8185C54.4421 67.5406 55.6135 67.5406 56.336 66.8185Z" fill="#F7F7F7"/>
<path d="M59.6032 23.8964H58.9043C56.8384 23.8964 55.1733 22.2218 55.1733 20.1671V17.835H63.3341V20.1671C63.3341 22.2321 61.6588 23.8964 59.6032 23.8964Z" fill="#346BE9"/>
<path d="M51.4423 23.8964H50.7434C48.6775 23.8964 47.0125 22.2218 47.0125 20.1671V17.835H55.1732V20.1671C55.1732 22.2321 53.5082 23.8964 51.4423 23.8964Z" fill="#F87FBA"/>
<path d="M43.2816 23.8964H42.5827C40.5169 23.8964 38.8518 22.2218 38.8518 20.1671V17.835H47.0126V20.1671C47.0126 22.2321 45.3475 23.8964 43.2816 23.8964Z" fill="#346BE9"/>
<path d="M35.1311 23.8964H34.4322C32.3663 23.8964 30.7013 22.2218 30.7013 20.1671V17.835H38.862V20.1671C38.862 22.2321 37.1867 23.8964 35.1311 23.8964Z" fill="#F87FBA"/>
<path d="M26.9704 23.8964H26.2714C24.2056 23.8964 22.5405 22.2218 22.5405 20.1671V17.835H30.7013V20.1671C30.7013 22.2321 29.026 23.8964 26.9704 23.8964Z" fill="#346BE9"/>
<path d="M84.0546 23.8964H83.3557C81.2898 23.8964 79.6248 22.2218 79.6248 20.1671V17.835H87.7855V20.1671C87.7958 22.2321 86.1205 23.8964 84.0546 23.8964Z" fill="#F87FBA"/>
<path d="M75.9042 23.8964H75.2053C73.1394 23.8964 71.4744 22.2218 71.4744 20.1671V17.835H79.6351V20.1671C79.6351 22.2321 77.9598 23.8964 75.9042 23.8964Z" fill="#346BE9"/>
<path d="M67.7639 23.8964H67.065C64.9991 23.8964 63.3341 22.2218 63.3341 20.1671V17.835H71.4949V20.1671C71.4949 22.2321 69.8195 23.8964 67.7639 23.8964Z" fill="#F87FBA"/>
<path d="M18.8096 23.8964H18.1107C16.0448 23.8964 14.3798 22.2218 14.3798 20.1671V17.835H22.5405V20.1671C22.5405 22.2321 20.8755 23.8964 18.8096 23.8964Z" fill="#F87FBA"/>
<path d="M54.0015 9.04077H48.1944L47.0125 17.8452H55.1732L54.0015 9.04077Z" fill="#FF9ECD"/>
<path d="M48.1945 9.04077H42.3977L38.8621 17.8452H47.0125L48.1945 9.04077Z" fill="#6A94FF"/>
<path d="M42.3977 9.04077H36.5906L30.7013 17.8452H38.862L42.3977 9.04077Z" fill="#FF9ECD"/>
<path d="M36.5906 9.04077H30.7938L22.5405 17.8452H30.7013L36.5906 9.04077Z" fill="#6A94FF"/>
<path d="M30.7938 9.04077H24.997L14.3798 17.8452H22.5405L30.7938 9.04077Z" fill="#FF9ECD"/>
<path d="M77.1579 9.04077H71.3611L79.6349 17.8452H87.7957L77.1579 9.04077Z" fill="#FF9ECD"/>
<path d="M71.392 9.04077H65.585L71.4743 17.8452H79.635L71.392 9.04077Z" fill="#6A94FF"/>
<path d="M65.5849 9.04077H59.7881L63.334 17.8452H71.4948L65.5849 9.04077Z" fill="#FF9ECD"/>
<path d="M59.7881 9.04077H53.9913L55.1733 17.8452H63.3341L59.7881 9.04077Z" fill="#6A94FF"/>
<path d="M124.863 104.888L125.631 104.743L122.32 87.2805L121.553 87.4259L124.863 104.888Z" fill="#6D92F0"/>
<path d="M89.5432 104.883H88.6284L92.0407 87.1915L92.8116 87.3354L89.5432 104.883Z" fill="#6D92F0"/>
<path d="M116.317 104.883H115.403L118.825 87.1915L119.586 87.3354L116.317 104.883Z" fill="#6D92F0"/>
<path d="M97.8993 104.883L98.6496 104.893L95.3709 87.2738L94.6104 87.4176L97.8993 104.883Z" fill="#6D92F0"/>
<path d="M111.096 48.8508C115.166 49.2823 120.439 49.7446 125.722 58.7135C131.498 68.5144 128.456 83.1646 123.892 87.2329C119.329 91.3012 104.426 96.325 91.8968 88.8048C91.8968 88.8048 84.3322 84.2433 88.2173 76.6819C94.1888 65.042 93.346 62.6071 96.0183 58.0457C98.7009 53.4842 102.452 47.9262 111.096 48.8508Z" fill="#F7F7F7"/>
<path d="M125.732 58.7136C122.124 52.5906 118.517 50.4331 115.31 49.5393C116.554 50.8235 117.818 52.4775 119.082 54.6247C124.858 64.4257 121.816 79.0758 117.253 83.1442C113.203 86.7502 101.034 91.1165 89.5842 86.8118C90.7559 88.1166 91.9173 88.8049 91.9173 88.8049C104.446 96.3252 119.349 91.3014 123.913 87.233C128.466 83.175 131.508 68.5249 125.732 58.7136Z" fill="#DFF7F6"/>
<path d="M98.0327 63.7577L96.9844 66.8911L100.171 65.6378L98.0327 63.7577Z" fill="#F79C8D"/>
<path d="M101.311 54.4191C101.096 54.4293 100.52 54.6245 99.667 56.2272C98.5775 58.2717 96.9844 64.4666 96.9844 64.4666L101.733 66.2234L102.339 64.9289L103.346 54.9841C103.346 54.9841 101.373 54.4191 101.311 54.4191Z" fill="#346BE9"/>
<path d="M107.591 53.5253C106.235 53.5253 102.874 53.9259 101.322 54.4191C101.322 54.4191 100.181 64.2201 102.35 71.6684C102.833 73.3327 101.949 78.5825 101.949 78.5825L116.009 78.3976C116.009 78.3976 114.344 65.72 114.971 63.6653C115.598 61.6208 115.619 54.4807 115.619 54.4807C115.619 54.4807 115.526 54.4704 112.463 53.9362C111.024 53.6999 109.041 53.5253 107.591 53.5253Z" fill="#6A94FF"/>
<path d="M109.637 97.1162C109.637 97.1162 109.328 100.691 108.753 101.688C108.177 102.674 108.784 104.359 108.815 104.595C108.845 104.821 110.017 105.16 111.888 104.955C113.758 104.76 113.727 104.328 113.573 103.63C113.419 102.941 112.432 102.048 112.371 101.38C112.309 100.722 112.946 98.3388 112.946 98.3388L109.637 97.1162Z" fill="#F7A491"/>
<path d="M103.532 75.634C103.532 75.634 93.8188 75.0998 91.6604 76.4045C89.4917 77.7093 92.051 80.4009 92.051 80.4009C92.051 80.4009 99.9548 83.822 113.183 84.5823C116.317 84.7672 116.585 76.4456 115.999 75.7573C115.413 75.0587 103.532 75.634 103.532 75.634Z" fill="#547EE9"/>
<path d="M112.114 105.232C114.036 105.027 113.799 104.092 113.645 103.373C113.553 102.921 112.998 102.397 112.669 101.903C112.494 102.037 112.216 102.284 111.384 102.53C110.521 102.787 109.328 102.284 108.568 101.965C108.301 102.962 108.29 104.246 108.311 104.431C108.342 104.667 110.192 105.438 112.114 105.232Z" fill="#F7F7F7"/>
<path d="M110.644 82.5482C110.253 85.4761 108.331 100.024 108.331 100.024L112.792 100.578C112.792 100.578 118.27 81.5824 117.993 78.675C117.715 75.7676 115.66 75.521 115.66 75.521C115.66 75.521 111.672 74.8122 110.644 82.5482Z" fill="#6D92F0"/>
<path d="M115.762 55.5696C114.447 55.0764 113.799 66.8808 113.624 71.7402C111.291 71.9662 107.242 71.7402 106.224 71.6682C105.752 71.6374 104.652 71.2368 104.179 71.1751C103.696 71.1135 103.254 71.0827 103.018 71.1237C102.925 71.134 100.499 72.1305 100.294 72.3463C100.037 72.6134 99.338 73.2915 99.4613 73.5894C99.5744 73.8873 100.797 72.7675 100.797 72.7675L101.394 72.4388C100.654 73.1579 99.2352 74.1134 99.4408 74.4627C99.6361 74.8017 100.921 73.836 101.825 73.1785C101.044 73.8771 100.068 75.1407 100.294 75.3359C100.499 75.5106 101.599 74.0517 102.781 73.6408C103.223 73.4867 103.655 73.9182 103.994 73.9695C104.251 74.0106 104.641 74.0928 104.888 74.0209L106.163 73.6613C106.594 73.7024 106.605 73.9593 107.047 74.0517C107.56 74.1647 108.393 74.2777 109.04 74.4318C112.782 75.3462 114.036 75.7674 115.176 75.7674C118.671 75.7366 118.877 56.7305 115.762 55.5696Z" fill="#F7A491"/>
<path d="M118.26 66.6547C118.507 61.6822 118.466 55.5489 115.67 54.501C114.57 54.0901 112.617 56.566 112.967 66.7574C114.467 66.8807 116.657 66.9731 118.26 66.6547Z" fill="#346BE9"/>
<path d="M96.2034 99.8385C96.2034 99.8385 96.5939 101.082 95.895 101.903C95.1961 102.725 92.308 103.527 91.9277 103.979C91.5474 104.421 91.5782 104.801 91.5782 104.801L99.6979 104.575L99.6054 102.129L99.2354 100.373L96.2034 99.8385Z" fill="#F7A491"/>
<path d="M95.381 102.314C95.381 102.314 97.4675 103.157 98.4747 102.653C99.482 102.15 99.4511 102.016 99.7389 102.201C100.027 102.386 100.14 104.883 100.14 104.883L91.0129 104.944C90.3756 104.934 90.057 104.461 90.5709 104.061C90.9204 103.783 91.3315 103.609 91.5679 103.475C92.2873 103.064 95.381 102.314 95.381 102.314Z" fill="#F7F7F7"/>
<path d="M96.5014 77.925C95.8744 76.61 94.4458 74.8943 91.938 75.932C89.5432 76.9182 88.8957 79.3325 89.6562 81.8085C90.4168 84.2844 95.3914 98.842 95.5558 100.845L99.5231 100.876C99.5231 100.876 98.8037 89.3492 98.6289 86.5651C98.4645 83.8734 97.5909 80.1955 96.5014 77.925Z" fill="#6D92F0"/>
<path d="M90.057 64.5177H103.336C103.686 64.5177 104.004 64.7334 104.138 65.0519L108.229 75.0173H115.546C115.752 75.0173 115.916 75.1817 115.916 75.3871C115.916 75.5926 115.752 75.757 115.546 75.757H94.7129C94.1373 75.757 93.6234 75.418 93.387 74.894L89.2655 65.73C89.0086 65.1649 89.43 64.5177 90.057 64.5177Z" fill="#F87FBA"/>
<path d="M97.2106 70.3226C97.3031 70.7746 97.6937 71.0726 98.0842 70.9904C98.4748 70.9082 98.7215 70.487 98.629 70.0349C98.5365 69.5829 98.1459 69.285 97.7554 69.3671C97.3648 69.4493 97.1181 69.8706 97.2106 70.3226Z" fill="#0153C8"/>
<path d="M109.205 49.3234L109.852 53.6075C109.852 53.6075 107.478 58.7032 106.06 58.2614C104.868 57.8916 105.608 53.3815 105.608 53.3815C105.608 53.3815 106.255 50.9569 106.06 49.7446C105.865 48.5323 109.205 49.3234 109.205 49.3234Z" fill="#F7A491"/>
<path opacity="0.2" d="M106.06 49.7446C105.865 48.5323 109.205 49.3234 109.205 49.3234L109.256 49.683C109.154 49.9193 109.041 50.1247 108.897 50.2789C108.146 51.0802 106.985 51.563 105.978 51.5939C106.081 50.9364 106.142 50.2378 106.06 49.7446Z" fill="#F47458"/>
<path d="M109.75 43.272C109.842 43.2412 110.51 48.1519 109.246 49.4978C107.992 50.8436 105.546 51.2956 104.662 50.2272C103.696 49.0457 103.737 43.7754 105.69 42.3884C107.653 40.9912 109.75 43.272 109.75 43.272Z" fill="#F7A491"/>
<path d="M106.44 39.7586C107.951 40.0668 108.927 40.9914 109.287 41.3818C109.976 41.464 110.901 41.8441 111.867 43.4365C113.049 45.3885 112.175 47.5665 110.798 48.6247C109.421 49.6931 109.441 50.9157 109.441 50.9157L109.226 50.2787C109.061 49.7959 108.999 49.2822 109.051 48.7788C109.082 48.4808 109.143 48.1521 109.277 47.8747C109.606 47.1658 108.568 46.6932 108.27 46.0974C108.044 45.6453 108.033 44.5974 107.684 43.8475L107.262 43.2721C107.262 43.2721 106.286 42.5119 105.33 42.7276C104.374 42.9434 104.508 39.3579 106.44 39.7586Z" fill="#6D92F0"/>
<path d="M108.342 46.9809C108.331 47.5767 108.609 48.0699 108.948 48.0801C109.297 48.0904 109.585 47.6076 109.596 47.0014C109.606 46.4055 109.328 45.9124 108.989 45.9021C108.64 45.8919 108.352 46.3747 108.342 46.9809Z" fill="#F7A491"/>
<path d="M106.646 48.6351L104.755 48.5323C104.755 48.5323 104.765 49.2515 105.587 49.3234C106.605 49.4056 106.646 48.6351 106.646 48.6351Z" fill="#0153C8"/>
</svg>
