<svg width="24" height="24" viewBox="0 0 24 24" fill="none" xmlns="http://www.w3.org/2000/svg">
<g clip-path="url(#clip0_2137_109)">
<path fill-rule="evenodd" clip-rule="evenodd" d="M5.5 1C4.83696 1 4.20107 1.26339 3.73223 1.73223C3.26339 2.20107 3 2.83696 3 3.5V19.5C3 20.163 3.26339 20.7989 3.73223 21.2678C4.20107 21.7366 4.83696 22 5.5 22H7V21H5.5C5.10218 21 4.72064 20.842 4.43934 20.5607C4.15804 20.2794 4 19.8978 4 19.5V3.5C4 3.10218 4.15804 2.72064 4.43934 2.43934C4.72064 2.15804 5.10218 2 5.5 2H14V7V7.5H14.5H19V13.5H20V7C20 6.87562 19.9536 6.7557 19.87 6.66366L14.87 1.16366C14.7752 1.05943 14.6409 1 14.5 1H5.5ZM18.3697 6.5L15 2.7933V6.5H18.3697ZM14.5 13C13.5335 13 12.75 13.7835 12.75 14.75V19.5L12.15 18.7L11.75 19L12.15 18.7C11.8195 18.2594 11.3008 18 10.75 18H10.5113C9.67663 18 9 18.6766 9 19.5112C9 19.7458 9.0546 19.9773 9.15955 20.1871L9.15958 20.1872L10.9278 23.7236C11.0513 23.9706 11.3516 24.0707 11.5986 23.9472C11.8456 23.8237 11.9457 23.5234 11.8222 23.2764L10.054 19.7399L10.0539 19.7398C10.0185 19.669 10 19.5907 10 19.5112C10 19.2289 10.2289 19 10.5113 19H10.75C10.9861 19 11.2084 19.1111 11.35 19.3L12.85 21.3C12.9791 21.4722 13.2039 21.5424 13.4081 21.4743C13.6123 21.4063 13.75 21.2152 13.75 21V14.75C13.75 14.3358 14.0858 14 14.5 14C14.914 14 15.25 14.336 15.25 14.7504V14.7581V14.7657V14.7734V14.781V14.7886V14.7963V14.8039V14.8115V14.8191V14.8267V14.8343V14.8419V14.8495V14.8571V14.8647V14.8722V14.8798V14.8874V14.8949V14.9025V14.91V14.9176V14.9251V14.9326V14.9401V14.9476V14.9551V14.9626V14.9701V14.9776V14.9851V14.9926V15.0001V15.0075V15.015V15.0225V15.0299V15.0374V15.0448V15.0523V15.0597V15.0671V15.0745V15.082V15.0894V15.0968V15.1042V15.1116V15.119V15.1264V15.1337V15.1411V15.1485V15.1559V15.1632V15.1706V15.178V15.1853V15.1927V15.2V15.2073V15.2147V15.222V15.2293V15.2366V15.2439V15.2513V15.2586V15.2659V15.2732V15.2805V15.2877V15.295V15.3023V15.3096V15.3169V15.3241V15.3314V15.3387V15.3459V15.3532V15.3604V15.3677V15.3749V15.3821V15.3894V15.3966V15.4038V15.411V15.4183V15.4255V15.4327V15.4399V15.4471V15.4543V15.4615V15.4687V15.4759V15.4831V15.4902V15.4974V15.5046V15.5118V15.5189V15.5261V15.5333V15.5404V15.5476V15.5547V15.5619V15.569V15.5762V15.5833V15.5905V15.5976V15.6047V15.6119V15.619V15.6261V15.6332V15.6403V15.6475V15.6546V15.6617V15.6688V15.6759V15.683V15.6901V15.6972V15.7043V15.7114V15.7185V15.7255V15.7326V15.7397V15.7468V15.7539V15.7609V15.768V15.7751V15.7821V15.7892V15.7963V15.8033V15.8104V15.8175V15.8245V15.8316V15.8386V15.8457V15.8527V15.8598V15.8668V15.8738V15.8809V15.8879V15.895V15.902V15.909V15.916V15.9231V15.9301V15.9371V15.9442V15.9512V15.9582V15.9652V15.9722V15.9793V15.9863V15.9933V16.0003V16.0073V16.0143V16.0213V16.0283V16.0353V16.0424V16.0494V16.0564V16.0634V16.0704V16.0774V16.0844V16.0914V16.0984V16.1054V16.1124V16.1193V16.1263V16.1333V16.1403V16.1473V16.1543V16.1613V16.1683V16.1753V16.1823V16.1893V16.1962V16.2032V16.2102V16.2172V16.2242V16.2312V16.2382V16.2451V16.2521V16.2591V16.2661V16.2731V16.2801V16.2871V16.294V16.301V16.308V16.315V16.322V16.329V16.3359V16.3429V16.3499V16.3569V16.3639V16.3709V16.3778V16.3848V16.3918V16.3988V16.4058V16.4128V16.4198V16.4267V16.4337V16.4407V16.4477V16.4547V16.4617V16.4687V16.4757V16.4827V16.4897V16.4967V16.5036V16.5106V16.5176V16.5246V16.5316V16.5386V16.5456V16.5526V16.5596V16.5666V16.5736V16.5806V16.5876V16.5946V16.6017V16.6087V16.6157V16.6227V16.6297V16.6367V16.6437V16.6507V16.6578V16.6648V16.6718V16.6788V16.6859V16.6929V16.6999V16.7069V16.714V16.721V16.728V16.7351V16.7421V16.7491V16.7562V16.7632V16.7703V16.7773V16.7844V16.7914V16.7985V16.8055V16.8126V16.8196V16.8267V16.8338V16.8408V16.8479V16.855V16.862V16.8691V16.8762V16.8833V16.8903V16.8974V16.9045V16.9116V16.9187V16.9258V16.9329V16.94V16.9471V16.9542V16.9613V16.9684V16.9755V16.9826V16.9897V16.9969V17.004V17.0111V17.0182V17.0254V17.0325V17.0396V17.0468V17.0539V17.0611V17.0682V17.0754V17.0825V17.0897V17.0968V17.104V17.1112V17.1183V17.1255V17.1327V17.1399V17.1471V17.1543V17.1614V17.1686V17.1758V17.183V17.1902V17.1975V17.2047V17.2119V17.2191V17.2263V17.2336V17.2408V17.248V17.2553V17.2625V17.2698V17.277V17.2843V17.2915V17.2988V17.3061V17.3133V17.3206V17.3279V17.3352V17.3424V17.3497V17.357V17.3643V17.3716V17.379V17.3863V17.3936V17.4009V17.4082V17.4156V17.4229V17.4302V17.4376V17.4449V17.4523V17.4596V17.467V17.4744V17.4818V17.4891V17.4965V17.5039V17.5113V17.5187V17.5261V17.5335V17.5409V17.5483V17.5557V17.5632V17.5706V17.578V17.5855V17.5929V17.6004V17.6078V17.6153V17.6228V17.6303V17.6377V17.6452V17.6527V17.6602V17.6677V17.6752V17.6827V17.6902V17.6978V17.7053V17.7128V17.7204V17.7279V17.7355V17.743V17.7506V17.7581V17.7657V17.7733V17.7809V17.7885V17.7961V17.8037V17.8113V17.8189V17.8265V17.8342V17.8418V17.8494V17.8571V17.8647V17.8724V17.8801V17.8877V17.8954V17.9031V17.9108V17.9185V17.9262V17.9339V17.9416V17.9493V17.9571V17.9648V17.9725V17.9803V17.9881V17.9958V18.0036V18.0114V18.0191V18.0269V18.0347V18.0425V18.0503V18.0582V18.066V18.0738V18.0817V18.0895V18.0974V18.1052V18.1131V18.121V18.1288V18.1367V18.1446V18.1525V18.1604V18.1684V18.1763V18.1842V18.1922V18.2001V18.2081V18.216V18.224V18.232V18.24V18.248V18.256V18.264V18.272V18.28V18.288V18.2961V18.3041V18.3122V18.3202V18.3283V18.3364V18.3445V18.3526V18.3607V18.3688V18.3769V18.385V18.3932V18.4013V18.4095V18.4176V18.4258V18.434V18.4422V18.4503V18.4585V18.4668V18.475V18.4832V18.4914V18.4997C15.25 19.1207 15.7533 19.625 16.375 19.625H17C18.1045 19.625 19 20.5205 19 21.625V23.5C19 23.7761 19.2239 24 19.5 24C19.7761 24 20 23.7761 20 23.5V21.625C20 19.9682 18.6568 18.625 17 18.625H16.375C16.3063 18.625 16.25 18.5691 16.25 18.4997V18.4914V18.4832V18.475V18.4668V18.4585V18.4503V18.4422V18.434V18.4258V18.4176V18.4095V18.4013V18.3932V18.385V18.3769V18.3688V18.3607V18.3526V18.3445V18.3364V18.3283V18.3202V18.3122V18.3041V18.2961V18.288V18.28V18.272V18.264V18.256V18.248V18.24V18.232V18.224V18.216V18.2081V18.2001V18.1922V18.1842V18.1763V18.1684V18.1604V18.1525V18.1446V18.1367V18.1288V18.121V18.1131V18.1052V18.0974V18.0895V18.0817V18.0738V18.066V18.0582V18.0503V18.0425V18.0347V18.0269V18.0191V18.0114V18.0036V17.9958V17.9881V17.9803V17.9725V17.9648V17.9571V17.9493V17.9416V17.9339V17.9262V17.9185V17.9108V17.9031V17.8954V17.8877V17.8801V17.8724V17.8647V17.8571V17.8494V17.8418V17.8342V17.8265V17.8189V17.8113V17.8037V17.7961V17.7885V17.7809V17.7733V17.7657V17.7581V17.7506V17.743V17.7355V17.7279V17.7204V17.7128V17.7053V17.6978V17.6902V17.6827V17.6752V17.6677V17.6602V17.6527V17.6452V17.6377V17.6303V17.6228V17.6153V17.6078V17.6004V17.5929V17.5855V17.578V17.5706V17.5632V17.5557V17.5483V17.5409V17.5335V17.5261V17.5187V17.5113V17.5039V17.4965V17.4891V17.4818V17.4744V17.467V17.4596V17.4523V17.4449V17.4376V17.4302V17.4229V17.4156V17.4082V17.4009V17.3936V17.3863V17.379V17.3716V17.3643V17.357V17.3497V17.3424V17.3352V17.3279V17.3206V17.3133V17.3061V17.2988V17.2915V17.2843V17.277V17.2698V17.2625V17.2553V17.248V17.2408V17.2336V17.2263V17.2191V17.2119V17.2047V17.1975V17.1902V17.183V17.1758V17.1686V17.1614V17.1543V17.1471V17.1399V17.1327V17.1255V17.1183V17.1112V17.104V17.0968V17.0897V17.0825V17.0754V17.0682V17.0611V17.0539V17.0468V17.0396V17.0325V17.0254V17.0182V17.0111V17.004V16.9969V16.9897V16.9826V16.9755V16.9684V16.9613V16.9542V16.9471V16.94V16.9329V16.9258V16.9187V16.9116V16.9045V16.8974V16.8903V16.8833V16.8762V16.8691V16.862V16.855V16.8479V16.8408V16.8338V16.8267V16.8196V16.8126V16.8055V16.7985V16.7914V16.7844V16.7773V16.7703V16.7632V16.7562V16.7491V16.7421V16.7351V16.728V16.721V16.714V16.7069V16.6999V16.6929V16.6859V16.6788V16.6718V16.6648V16.6578V16.6507V16.6437V16.6367V16.6297V16.6227V16.6157V16.6087V16.6017V16.5946V16.5876V16.5806V16.5736V16.5666V16.5596V16.5526V16.5456V16.5386V16.5316V16.5246V16.5176V16.5106V16.5036V16.4967V16.4897V16.4827V16.4757V16.4687V16.4617V16.4547V16.4477V16.4407V16.4337V16.4267V16.4198V16.4128V16.4058V16.3988V16.3918V16.3848V16.3778V16.3709V16.3639V16.3569V16.3499V16.3429V16.3359V16.329V16.322V16.315V16.308V16.301V16.294V16.2871V16.2801V16.2731V16.2661V16.2591V16.2521V16.2451V16.2382V16.2312V16.2242V16.2172V16.2102V16.2032V16.1962V16.1893V16.1823V16.1753V16.1683V16.1613V16.1543V16.1473V16.1403V16.1333V16.1263V16.1193V16.1124V16.1054V16.0984V16.0914V16.0844V16.0774V16.0704V16.0634V16.0564V16.0494V16.0424V16.0353V16.0283V16.0213V16.0143V16.0073V16.0003V15.9933V15.9863V15.9793V15.9722V15.9652V15.9582V15.9512V15.9442V15.9371V15.9301V15.9231V15.916V15.909V15.902V15.895V15.8879V15.8809V15.8738V15.8668V15.8598V15.8527V15.8457V15.8386V15.8316V15.8245V15.8175V15.8104V15.8033V15.7963V15.7892V15.7821V15.7751V15.768V15.7609V15.7539V15.7468V15.7397V15.7326V15.7255V15.7185V15.7114V15.7043V15.6972V15.6901V15.683V15.6759V15.6688V15.6617V15.6546V15.6475V15.6403V15.6332V15.6261V15.619V15.6119V15.6047V15.5976V15.5905V15.5833V15.5762V15.569V15.5619V15.5547V15.5476V15.5404V15.5333V15.5261V15.5189V15.5118V15.5046V15.4974V15.4902V15.4831V15.4759V15.4687V15.4615V15.4543V15.4471V15.4399V15.4327V15.4255V15.4183V15.411V15.4038V15.3966V15.3894V15.3821V15.3749V15.3677V15.3604V15.3532V15.3459V15.3387V15.3314V15.3241V15.3169V15.3096V15.3023V15.295V15.2877V15.2805V15.2732V15.2659V15.2586V15.2513V15.2439V15.2366V15.2293V15.222V15.2147V15.2073V15.2V15.1927V15.1853V15.178V15.1706V15.1632V15.1559V15.1485V15.1411V15.1337V15.1264V15.119V15.1116V15.1042V15.0968V15.0894V15.082V15.0745V15.0671V15.0597V15.0523V15.0448V15.0374V15.0299V15.0225V15.015V15.0075V15.0001V14.9926V14.9851V14.9776V14.9701V14.9626V14.9551V14.9476V14.9401V14.9326V14.9251V14.9176V14.91V14.9025V14.8949V14.8874V14.8798V14.8722V14.8647V14.8571V14.8495V14.8419V14.8343V14.8267V14.8191V14.8115V14.8039V14.7963V14.7886V14.781V14.7734V14.7657V14.7581V14.7504C16.25 13.7841 15.4667 13 14.5 13Z" fill="black"/>
<path d="M6.5 4.5H8.54545C9.30527 4.5 10.0335 4.79625 10.5707 5.32375C11.1075 5.85125 11.4091 6.56688 11.4091 7.3125C11.4091 8.05812 11.1075 8.77375 10.5707 9.30125C10.0335 9.82875 9.30527 10.125 8.54545 10.125H6.5L10.9727 14.5M6.5 7.3125H12.5M8.68182 4.5H12.5" stroke="black" stroke-miterlimit="10" stroke-linecap="round"/>
</g>
<defs>
<clipPath id="clip0_2137_109">
<rect width="24" height="24" fill="white"/>
</clipPath>
</defs>
</svg>
