<svg width="30" height="31" viewBox="0 0 30 31" fill="none" xmlns="http://www.w3.org/2000/svg">
<g filter="url(#filter0_ii_702_1103)">
<path fill-rule="evenodd" clip-rule="evenodd" d="M7.25742 3.01831C5.94164 3.01831 4.875 4.08495 4.875 5.40073V25.6359C4.875 26.9517 5.94164 28.0183 7.25742 28.0183H22.7426C24.0584 28.0183 25.125 26.9517 25.125 25.6359V5.40073C25.125 5.3884 25.1249 5.37609 25.1247 5.3638V9.26835L18.8747 3.01835H22.7569C22.7521 3.01832 22.7474 3.01831 22.7426 3.01831H7.25742Z" fill="#32BD7A"/>
</g>
<g filter="url(#filter1_dd_702_1103)">
<path d="M12.1938 21.7683L14.993 17.7505L17.8067 21.7683H19.1406L15.6402 16.8971L18.8886 12.3933H17.5547L14.993 16.0435L12.4438 12.3933H11.1103L14.3327 16.8971L10.8594 21.7683H12.1938Z" fill="white"/>
<path d="M14.7393 16.6061L12.0829 12.8933H12.1831L14.583 16.3298L14.9787 16.8963L14.5827 17.4647L11.9327 21.2683H11.83L14.7398 17.1873L14.9471 16.8966L14.7393 16.6061ZM15.4025 17.4637L15.0052 16.8964L15.4022 16.3307L17.8146 12.8933H17.9115L15.2346 16.6046L15.0241 16.8965L15.2341 17.1888L18.1656 21.2683H18.067L15.4025 17.4637Z" stroke="white"/>
</g>
<path d="M24.5367 8.68237L19.459 8.68237L25.123 14.3464L25.123 9.26831L24.5367 8.68237Z" fill="url(#paint0_linear_702_1103)"/>
<path d="M21.2574 9.26831L25.125 9.26831L18.875 3.01831L18.875 6.88589C18.875 8.20167 19.9416 9.26831 21.2574 9.26831Z" fill="#EBFFEC"/>
<defs>
<filter id="filter0_ii_702_1103" x="4.875" y="2.86941" width="20.25" height="25.2978" filterUnits="userSpaceOnUse" color-interpolation-filters="sRGB">
<feFlood flood-opacity="0" result="BackgroundImageFix"/>
<feBlend mode="normal" in="SourceGraphic" in2="BackgroundImageFix" result="shape"/>
<feColorMatrix in="SourceAlpha" type="matrix" values="0 0 0 0 0 0 0 0 0 0 0 0 0 0 0 0 0 0 127 0" result="hardAlpha"/>
<feOffset dy="-0.297802"/>
<feGaussianBlur stdDeviation="0.0744505"/>
<feComposite in2="hardAlpha" operator="arithmetic" k2="-1" k3="1"/>
<feColorMatrix type="matrix" values="0 0 0 0 0 0 0 0 0 0 0 0 0 0 0 0 0 0 0.3 0"/>
<feBlend mode="normal" in2="shape" result="effect1_innerShadow_702_1103"/>
<feColorMatrix in="SourceAlpha" type="matrix" values="0 0 0 0 0 0 0 0 0 0 0 0 0 0 0 0 0 0 127 0" result="hardAlpha"/>
<feOffset dy="0.297802"/>
<feGaussianBlur stdDeviation="0.0744505"/>
<feComposite in2="hardAlpha" operator="arithmetic" k2="-1" k3="1"/>
<feColorMatrix type="matrix" values="0 0 0 0 1 0 0 0 0 1 0 0 0 0 1 0 0 0 0.3 0"/>
<feBlend mode="normal" in2="effect1_innerShadow_702_1103" result="effect2_innerShadow_702_1103"/>
</filter>
<filter id="filter1_dd_702_1103" x="10.7105" y="12.2444" width="9.62136" height="11.0129" filterUnits="userSpaceOnUse" color-interpolation-filters="sRGB">
<feFlood flood-opacity="0" result="BackgroundImageFix"/>
<feColorMatrix in="SourceAlpha" type="matrix" values="0 0 0 0 0 0 0 0 0 0 0 0 0 0 0 0 0 0 127 0" result="hardAlpha"/>
<feOffset dx="0.595604" dy="0.893406"/>
<feGaussianBlur stdDeviation="0.297802"/>
<feColorMatrix type="matrix" values="0 0 0 0 0 0 0 0 0 0 0 0 0 0 0 0 0 0 0.1 0"/>
<feBlend mode="normal" in2="BackgroundImageFix" result="effect1_dropShadow_702_1103"/>
<feColorMatrix in="SourceAlpha" type="matrix" values="0 0 0 0 0 0 0 0 0 0 0 0 0 0 0 0 0 0 127 0" result="hardAlpha"/>
<feOffset/>
<feGaussianBlur stdDeviation="0.0744505"/>
<feColorMatrix type="matrix" values="0 0 0 0 0 0 0 0 0 0 0 0 0 0 0 0 0 0 0.4 0"/>
<feBlend mode="normal" in2="effect1_dropShadow_702_1103" result="effect2_dropShadow_702_1103"/>
<feBlend mode="normal" in="SourceGraphic" in2="effect2_dropShadow_702_1103" result="shape"/>
</filter>
<linearGradient id="paint0_linear_702_1103" x1="20.7285" y1="7.41284" x2="26.3926" y2="13.0769" gradientUnits="userSpaceOnUse">
<stop stop-opacity="0.2"/>
<stop offset="1" stop-opacity="0"/>
</linearGradient>
</defs>
</svg>
