<svg width="30" height="31" viewBox="0 0 30 31" fill="none" xmlns="http://www.w3.org/2000/svg">
<g filter="url(#filter0_ii_702_1135)">
<path fill-rule="evenodd" clip-rule="evenodd" d="M7.25742 3.01831C5.94164 3.01831 4.875 4.08495 4.875 5.40073V25.6359C4.875 26.9517 5.94164 28.0183 7.25742 28.0183H22.7426C24.0584 28.0183 25.125 26.9517 25.125 25.6359V5.40073C25.125 5.38663 25.1249 5.37257 25.1246 5.35853V9.26831L18.8746 3.01831H7.25742Z" fill="#2B4A9B"/>
</g>
<path d="M24.5386 8.68237L19.4609 8.68237L25.125 14.3464L25.125 9.26831L24.5386 8.68237Z" fill="url(#paint0_linear_702_1135)"/>
<path d="M21.2594 9.26831L25.127 9.26831L18.877 3.01831L18.877 6.88589C18.877 8.20167 19.9436 9.26831 21.2594 9.26831Z" fill="#97A3B9"/>
<defs>
<filter id="filter0_ii_702_1135" x="4.875" y="2.86941" width="20.25" height="25.2978" filterUnits="userSpaceOnUse" color-interpolation-filters="sRGB">
<feFlood flood-opacity="0" result="BackgroundImageFix"/>
<feBlend mode="normal" in="SourceGraphic" in2="BackgroundImageFix" result="shape"/>
<feColorMatrix in="SourceAlpha" type="matrix" values="0 0 0 0 0 0 0 0 0 0 0 0 0 0 0 0 0 0 127 0" result="hardAlpha"/>
<feOffset dy="-0.297802"/>
<feGaussianBlur stdDeviation="0.0744505"/>
<feComposite in2="hardAlpha" operator="arithmetic" k2="-1" k3="1"/>
<feColorMatrix type="matrix" values="0 0 0 0 0 0 0 0 0 0 0 0 0 0 0 0 0 0 0.3 0"/>
<feBlend mode="normal" in2="shape" result="effect1_innerShadow_702_1135"/>
<feColorMatrix in="SourceAlpha" type="matrix" values="0 0 0 0 0 0 0 0 0 0 0 0 0 0 0 0 0 0 127 0" result="hardAlpha"/>
<feOffset dy="0.297802"/>
<feGaussianBlur stdDeviation="0.0744505"/>
<feComposite in2="hardAlpha" operator="arithmetic" k2="-1" k3="1"/>
<feColorMatrix type="matrix" values="0 0 0 0 1 0 0 0 0 1 0 0 0 0 1 0 0 0 0.3 0"/>
<feBlend mode="normal" in2="effect1_innerShadow_702_1135" result="effect2_innerShadow_702_1135"/>
</filter>
<linearGradient id="paint0_linear_702_1135" x1="20.7305" y1="7.41284" x2="26.3945" y2="13.0769" gradientUnits="userSpaceOnUse">
<stop stop-opacity="0.2"/>
<stop offset="1" stop-opacity="0"/>
</linearGradient>
</defs>
</svg>
