<svg width="26" height="26" viewBox="0 0 26 26" fill="none" xmlns="http://www.w3.org/2000/svg">
<path d="M8.65148 9.54283C7.74703 8.8645 6.81836 9.69627 6.81836 9.69627L2.19922 13.8309V21.9386C2.19922 21.9386 5.55052 21.9386 7.31096 21.9386C8.24771 21.9386 8.93412 21.6479 9.37826 21.3814C9.75781 21.1472 9.95162 20.9211 9.95162 20.9211C9.95162 20.9211 11.2598 19.8632 12.5034 18.6923C13.3675 17.8767 14.1993 17.0045 14.5465 16.3908C15.4025 14.8807 14.4092 13.8632 13.1172 14.162C12.4469 14.3235 10.8318 15.0745 9.45094 15.7609C8.1831 16.3908 7.09292 16.9641 7.09292 16.9641" stroke="#F4F5F8" stroke-width="1.645" stroke-miterlimit="10"/>
<path d="M13.4531 19.1364L12.1206 21.8659C12.1206 21.8659 11.5957 22.7461 10.5298 22.8027C9.56881 22.8511 9.39923 21.6398 9.375 21.3895C9.375 21.3572 9.375 21.341 9.375 21.341" stroke="#F4F5F8" stroke-width="1.645" stroke-miterlimit="10"/>
<path d="M11.8477 22.2212C11.8477 22.2212 11.9284 23.7313 13.0024 23.6748C14.0765 23.6183 14.5933 22.7381 14.5933 22.7381L16.0792 19.629" stroke="#F4F5F8" stroke-width="1.645" stroke-miterlimit="10"/>
<path d="M15.0977 21.7852C15.8164 23.1338 16.745 22.8027 17.1569 22.3343C17.4395 22.0113 18.5055 20.1862 19.1273 19.0961" stroke="#F4F5F8" stroke-width="1.645" stroke-miterlimit="10"/>
<path d="M21.5968 17.5456C19.255 19.7906 15.3788 20.2751 12.5039 18.7004" stroke="#F4F5F8" stroke-width="1.645" stroke-miterlimit="10"/>
<path d="M11.6211 5.30325C14.1164 3.51859 17.4838 3.35708 20.1649 4.85103C22.2241 6.00581 23.6454 8.12965 24.033 10.4473C24.251 11.7636 24.138 13.1364 23.6777 14.3962" stroke="#F4F5F8" stroke-width="1.645" stroke-miterlimit="10"/>
<path d="M9.45265 15.769C8.36247 14.0489 8.07983 11.909 8.54013 9.93855C8.66934 9.37327 8.86315 8.82414 9.10541 8.30732" stroke="#F4F5F8" stroke-width="1.645" stroke-miterlimit="10"/>
<path d="M15.0549 15.4783C16.1289 15.6721 17.5018 15.3814 18.0428 14.3235C18.5516 13.3221 17.8328 12.4258 16.9445 11.9978C16.2178 11.6425 15.3941 11.4567 14.7319 10.9722C13.8597 10.3423 13.674 9.23598 14.4735 8.44459C15.491 7.45131 17.1545 7.57244 18.3254 8.20233" stroke="#F4F5F8" stroke-width="1.645" stroke-miterlimit="10"/>
<path d="M16.0781 5.75521L16.0944 7.73395" stroke="#F4F5F8" stroke-width="1.645" stroke-miterlimit="10"/>
<path d="M16.0938 15.5025L16.0775 17.8409" stroke="#F4F5F8" stroke-width="1.645" stroke-miterlimit="10"/>
<path d="M21.7539 20.1793L22.1098 16.7988L18.8227 16.3408" stroke="#F4F5F8" stroke-width="1.645"/>
<path d="M11.6211 2.26964L10.9061 5.59271L14.1255 6.39918" stroke="#F4F5F8" stroke-width="1.645"/>
</svg>
