<svg width="23" height="19" viewBox="0 0 23 19" fill="none" xmlns="http://www.w3.org/2000/svg">
<path d="M8.76953 15.9067C8.77484 15.9067 8.7775 15.9067 8.78281 15.9067C10.2492 15.9067 11.4605 14.8228 11.6624 13.4149" stroke="#F4F5F8" stroke-width="1.645" stroke-miterlimit="10"/>
<path d="M8.77182 12.7933V16.2413C8.77182 17.1313 8.04926 17.8538 7.15935 17.8538C6.26943 17.8538 5.54688 17.1313 5.54688 16.2413V12.1292" stroke="#F4F5F8" stroke-width="1.645" stroke-miterlimit="10"/>
<path d="M13.7664 13.8639C13.7531 13.8612 13.7398 13.8586 13.7265 13.8559L11.6651 13.4149L5.87671 12.1744L4.3466 11.8476C4.10751 11.7972 3.9375 11.5873 3.9375 11.3429V5.32868C3.9375 5.08429 4.11017 4.87177 4.35191 4.82396L5.87671 4.51581L11.6944 3.34431L13.7319 2.93256C13.7425 2.9299 13.7558 2.92725 13.7664 2.92725" stroke="#F4F5F8" stroke-width="1.645" stroke-miterlimit="10"/>
<path d="M3.93535 10.376H1.94035C1.67736 10.376 1.46484 10.1635 1.46484 9.90046V6.89335C1.46484 6.63036 1.67736 6.41785 1.94035 6.41785H3.93535V10.376Z" stroke="#F4F5F8" stroke-width="1.645" stroke-miterlimit="10"/>
<path d="M18.8867 8.39685H22.0346" stroke="#F4F5F8" stroke-width="1.645" stroke-miterlimit="10"/>
<path d="M19.0859 4.3006L21.3094 2.07715" stroke="#F4F5F8" stroke-width="1.645" stroke-miterlimit="10"/>
<path d="M19.0859 12.4904L21.3094 14.7138" stroke="#F4F5F8" stroke-width="1.645" stroke-miterlimit="10"/>
<path d="M15.2293 15.6224C14.4218 15.6224 13.7656 14.9689 13.7656 14.1587V2.63229C13.7656 1.82472 14.4191 1.16858 15.2293 1.16858C16.0369 1.16858 16.693 1.82207 16.693 2.63229V14.1587C16.6904 14.9662 16.0369 15.6224 15.2293 15.6224Z" stroke="#F4F5F8" stroke-width="1.645" stroke-miterlimit="10"/>
</svg>
