<svg width="21" height="21" viewBox="0 0 21 21" fill="none" xmlns="http://www.w3.org/2000/svg">
<g clip-path="url(#clip0_164_1571)">
<path d="M8.24219 6.23437C8.44418 6.03237 8.67143 5.83037 8.89868 5.65362C11.7519 3.40641 15.9181 3.9114 18.1653 6.76461C20.4125 9.61781 19.9075 13.784 17.0543 16.0312C14.6556 17.9249 11.3226 17.8744 8.99968 16.107" stroke="white" stroke-width="1.645" stroke-miterlimit="10"/>
<path d="M3.46875 11.1581V14.2385C3.46875 14.7183 3.87274 15.1223 4.35249 15.1223H13.9221C14.4018 15.1223 14.8058 14.7183 14.8058 14.2385V8.30488C14.8058 7.82514 14.4018 7.42114 13.9221 7.42114H4.35249C3.87274 7.42114 3.46875 7.82514 3.46875 8.30488V9.18861" stroke="white" stroke-width="1.645" stroke-miterlimit="10"/>
<path d="M1.47656 10.1733H8.95045" stroke="white" stroke-width="1.645" stroke-miterlimit="10"/>
<path d="M5.13672 12.9255H8.26767" stroke="white" stroke-width="1.645" stroke-miterlimit="10"/>
</g>
<defs>
<clipPath id="clip0_164_1571">
<rect width="19.74" height="19.74" fill="white" transform="translate(0.523438 0.845337)"/>
</clipPath>
</defs>
</svg>
