<svg width="24" height="24" viewBox="0 0 24 24" fill="none" xmlns="http://www.w3.org/2000/svg">
<g clip-path="url(#clip0_2137_110)">
<path fill-rule="evenodd" clip-rule="evenodd" d="M5.5 1C4.83696 1 4.20107 1.26339 3.73223 1.73223C3.26339 2.20107 3 2.83696 3 3.5V19.5C3 20.163 3.26339 20.7989 3.73223 21.2678C4.20107 21.7366 4.83696 22 5.5 22H7V21H5.5C5.10218 21 4.72064 20.842 4.43934 20.5607C4.15804 20.2794 4 19.8978 4 19.5V3.5C4 3.10218 4.15804 2.72064 4.43934 2.43934C4.72064 2.15804 5.10218 2 5.5 2H14V7.5H19V13.5H20V7C20 6.87562 19.9536 6.7557 19.87 6.66366L14.87 1.16366C14.7752 1.05943 14.6409 1 14.5 1H5.5ZM18.3697 6.5L15 2.7933V6.5H18.3697Z" fill="white"/>
<path d="M14.5 13C13.5335 13 12.75 13.7835 12.75 14.75V19.5L12.15 18.7C11.8195 18.2594 11.3008 18 10.75 18H10.5113C9.67663 18 9 18.6766 9 19.5112C9 19.7458 9.0546 19.9773 9.15955 20.1871L10.9278 23.7236C11.0513 23.9706 11.3516 24.0707 11.5986 23.9472C11.8456 23.8237 11.9457 23.5234 11.8222 23.2764L10.054 19.7399C10.0185 19.669 10 19.5907 10 19.5112C10 19.2289 10.2289 19 10.5113 19H10.75C10.9861 19 11.2084 19.1111 11.35 19.3L12.85 21.3C12.9791 21.4722 13.2039 21.5424 13.4081 21.4743C13.6123 21.4063 13.75 21.2152 13.75 21V14.75C13.75 14.3358 14.0858 14 14.5 14C14.914 14 15.25 14.336 15.25 14.7504V18.4997C15.25 19.1207 15.7533 19.625 16.375 19.625H17C18.1045 19.625 19 20.5205 19 21.625V23.5C19 23.7761 19.2239 24 19.5 24C19.7761 24 20 23.7761 20 23.5V21.625C20 19.9682 18.6568 18.625 17 18.625H16.375C16.3063 18.625 16.25 18.5691 16.25 18.4997V14.7504C16.25 13.7841 15.4667 13 14.5 13Z" fill="white"/>
<path d="M6.5 4.5H8.54545C9.30527 4.5 10.0335 4.79625 10.5707 5.32375C11.1075 5.85125 11.4091 6.56688 11.4091 7.3125C11.4091 8.05812 11.1075 8.77375 10.5707 9.30125C10.0335 9.82875 9.30527 10.125 8.54545 10.125H6.5L10.9727 14.5M6.5 7.3125H12.5M8.68182 4.5H12.5" stroke="white" stroke-miterlimit="10" stroke-linecap="round"/>
</g>
<defs>
<clipPath id="clip0_2137_110">
<rect width="24" height="24" fill="white"/>
</clipPath>
</defs>
</svg>
