<svg width="22" height="22" viewBox="0 0 22 22" fill="none" xmlns="http://www.w3.org/2000/svg">
<path d="M11.9722 16.5063L11.051 17.4274C9.27438 19.204 6.44498 19.204 4.66839 17.4274C2.89179 15.6508 2.89179 12.8215 4.66839 11.0449L5.58959 10.1237L11.9722 16.5063Z" stroke="#F4F5F8" stroke-width="1.645" stroke-miterlimit="10"/>
<path d="M7.10156 11.6371L10.589 8.14966" stroke="white" stroke-width="1.645" stroke-miterlimit="10"/>
<path d="M10.457 14.9928L13.9444 11.5054" stroke="white" stroke-width="1.645" stroke-miterlimit="10"/>
<path d="M1.57422 20.52L3.21922 18.875" stroke="white" stroke-width="1.645" stroke-miterlimit="10"/>
<path d="M5.6526 18.4473L5.192 18.9079C4.6327 19.4672 3.7444 19.4672 3.1851 18.9079C2.6258 18.3486 2.6258 17.4603 3.1851 16.901L3.6457 16.4404L5.6526 18.4473Z" stroke="#F4F5F8" stroke-width="1.645" stroke-miterlimit="10"/>
<path d="M10.918 4.79381L11.8392 3.87261C13.6158 2.09601 16.4452 2.09601 18.2218 3.87261C19.9984 5.64921 19.9984 8.4786 18.2218 10.2552L17.3006 11.1764L10.918 4.79381Z" stroke="white" stroke-width="1.645" stroke-miterlimit="10"/>
<path d="M21.3152 0.780029L19.7031 2.42503" stroke="white" stroke-width="1.645" stroke-miterlimit="10"/>
<path d="M17.2344 2.85273L17.695 2.39213C18.2543 1.83283 19.1426 1.83283 19.7019 2.39213C20.2612 2.95143 20.2612 3.83973 19.7019 4.39903L19.2413 4.85963L17.2344 2.85273Z" stroke="white" stroke-width="1.645" stroke-miterlimit="10"/>
</svg>
