<svg width="21" height="21" viewBox="0 0 21 21" fill="none" xmlns="http://www.w3.org/2000/svg">
<path d="M14.1758 1.72913L17.1066 4.66545L14.1758 7.60177" stroke="white" stroke-width="1.645" stroke-miterlimit="10"/>
<path d="M3.97266 9.0412V7.57304C3.97266 6.79578 4.28873 6.0473 4.83466 5.50034C5.3806 4.95338 6.12767 4.63672 6.90348 4.63672H17.1039" stroke="white" stroke-width="1.645" stroke-miterlimit="10"/>
<path d="M6.87614 19.0016L3.94531 16.0652L6.87614 13.1577" stroke="white" stroke-width="1.645" stroke-miterlimit="10"/>
<path d="M17.1039 11.6896V13.1577C17.1039 13.935 16.7878 14.6835 16.2419 15.2304C15.696 15.7774 14.9489 16.0941 14.1731 16.0941H3.97266" stroke="white" stroke-width="1.645" stroke-miterlimit="10"/>
<path d="M12.1336 8.0048C12.1336 8.0048 10.5533 7.05482 9.49012 8.11996C8.62812 8.98358 9.43266 9.90478 10.4096 10.3366C11.013 10.6245 12.421 11.3441 12.0187 12.4669C11.6164 13.5896 10.0073 13.7911 8.88672 13.0714" stroke="white" stroke-width="1.645" stroke-miterlimit="10"/>
<path d="M10.6406 6.3927V7.63056" stroke="white" stroke-width="1.645" stroke-miterlimit="10"/>
<path d="M10.6406 13.4745V14.7411" stroke="white" stroke-width="1.645" stroke-miterlimit="10"/>
</svg>
