<svg width="21" height="21" viewBox="0 0 21 21" fill="none" xmlns="http://www.w3.org/2000/svg">
<g clip-path="url(#clip0_164_1593)">
<path d="M4.76953 12.2447V7.07361H6.74137C7.12044 7.07361 7.44338 7.14851 7.7102 7.29833C7.97702 7.44646 8.18038 7.65266 8.3203 7.91693C8.46184 8.17953 8.53261 8.48252 8.53261 8.82591C8.53261 9.1693 8.46103 9.47229 8.31786 9.73488C8.17469 9.99747 7.96725 10.202 7.69556 10.3484C7.42549 10.4949 7.09848 10.5681 6.71452 10.5681H5.45772V9.69195H6.54369C6.74706 9.69195 6.91463 9.65576 7.04641 9.58338C7.17982 9.50932 7.27907 9.40748 7.34414 9.27787C7.41085 9.14657 7.4442 8.99592 7.4442 8.82591C7.4442 8.65421 7.41085 8.5044 7.34414 8.37647C7.27907 8.24686 7.17982 8.1467 7.04641 8.076C6.91301 8.00362 6.74381 7.96743 6.53881 7.96743H5.82622V12.2447H4.76953Z" fill="#F4F5F8"/>
<path d="M10.1677 12.3179C9.92851 12.3179 9.71539 12.275 9.52829 12.1891C9.34119 12.1016 9.19314 11.9728 9.08414 11.8028C8.97676 11.6311 8.92307 11.4173 8.92307 11.1615C8.92307 10.946 8.96131 10.765 9.03777 10.6186C9.11424 10.4722 9.21836 10.3543 9.35014 10.2651C9.48192 10.1759 9.6316 10.1086 9.79917 10.0631C9.96837 10.0177 10.1457 9.98569 10.3312 9.96717C10.5492 9.94361 10.7249 9.92172 10.8583 9.90152C10.9917 9.87964 11.0885 9.84766 11.1487 9.80558C11.2089 9.76349 11.239 9.70121 11.239 9.61873V9.60358C11.239 9.44367 11.1902 9.31995 11.0926 9.23242C10.9966 9.14489 10.8599 9.10112 10.6826 9.10112C10.4955 9.10112 10.3466 9.14405 10.236 9.22989C10.1254 9.31406 10.0522 9.4201 10.0164 9.54803L9.05485 9.46724C9.10366 9.23158 9.19965 9.0279 9.34282 8.85621C9.48599 8.68283 9.67065 8.54985 9.89679 8.45727C10.1246 8.363 10.3881 8.31587 10.6875 8.31587C10.8957 8.31587 11.095 8.34112 11.2854 8.39162C11.4773 8.44212 11.6474 8.52039 11.7954 8.62644C11.9451 8.73248 12.063 8.86883 12.1493 9.03547C12.2355 9.20044 12.2786 9.39822 12.2786 9.62883V12.2447H11.2927V11.7068H11.2634C11.2032 11.828 11.1227 11.9349 11.0218 12.0275C10.9209 12.1184 10.7997 12.1899 10.6582 12.2421C10.5166 12.2926 10.3531 12.3179 10.1677 12.3179ZM10.4654 11.5755C10.6183 11.5755 10.7534 11.5444 10.8705 11.4821C10.9876 11.4182 11.0796 11.3323 11.1463 11.2246C11.213 11.1169 11.2463 10.9948 11.2463 10.8585V10.4469C11.2138 10.4688 11.169 10.489 11.1121 10.5075C11.0568 10.5243 10.9942 10.5403 10.9242 10.5555C10.8542 10.5689 10.7843 10.5816 10.7143 10.5934C10.6444 10.6035 10.5809 10.6127 10.524 10.6211C10.4019 10.6396 10.2954 10.6691 10.2043 10.7095C10.1132 10.7499 10.0424 10.8046 9.99196 10.8736C9.94153 10.941 9.91631 11.0251 9.91631 11.1261C9.91631 11.2726 9.96756 11.3845 10.0701 11.4619C10.1742 11.5377 10.306 11.5755 10.4654 11.5755Z" fill="#F4F5F8"/>
<path d="M13.5928 13.699C13.461 13.699 13.3373 13.6881 13.2218 13.6662C13.1079 13.646 13.0136 13.6199 12.9387 13.5879L13.173 12.785C13.295 12.8237 13.4048 12.8447 13.5025 12.8481C13.6017 12.8515 13.6871 12.8279 13.7587 12.7774C13.8319 12.7269 13.8913 12.6411 13.9369 12.5199L13.9979 12.3558L12.6532 8.36637H13.7465L14.5225 11.2145H14.5616L15.345 8.36637H16.4456L14.9887 12.6638C14.9187 12.8725 14.8235 13.0543 14.7031 13.2092C14.5844 13.3657 14.4339 13.4861 14.2517 13.5702C14.0694 13.6561 13.8498 13.699 13.5928 13.699Z" fill="#F4F5F8"/>
<path d="M17.6117 3.84888H3.60283C2.49756 3.84888 1.60156 4.80021 1.60156 5.97375V14.4732C1.60156 15.6468 2.49756 16.5981 3.60283 16.5981H17.6117C18.717 16.5981 19.613 15.6468 19.613 14.4732V5.97375C19.613 4.80021 18.717 3.84888 17.6117 3.84888Z" stroke="#F4F5F8" stroke-width="1.645" stroke-linecap="round" stroke-linejoin="round"/>
</g>
<defs>
<clipPath id="clip0_164_1593">
<rect width="19.74" height="19.74" fill="white" transform="translate(0.773438 0.908569)"/>
</clipPath>
</defs>
</svg>
