<svg width="21" height="21" viewBox="0 0 21 21" fill="none" xmlns="http://www.w3.org/2000/svg">
<g clip-path="url(#clip0_164_1608)">
<path d="M18.0476 3.89844H3.24265C2.33415 3.89844 1.59766 4.63493 1.59766 5.54344V15.4134C1.59766 16.3219 2.33415 17.0584 3.24265 17.0584H18.0476C18.9561 17.0584 19.6926 16.3219 19.6926 15.4134V5.54344C19.6926 4.63493 18.9561 3.89844 18.0476 3.89844Z" stroke="#F4F5F8" stroke-width="1.645" stroke-linecap="round" stroke-linejoin="round"/>
</g>
<path d="M4.96484 12.7912V7.62012H6.93668C7.31575 7.62012 7.6387 7.69502 7.90551 7.84484C8.17233 7.99296 8.37569 8.19917 8.51561 8.46344C8.65715 8.72603 8.72792 9.02902 8.72792 9.37241C8.72792 9.7158 8.65634 10.0188 8.51317 10.2814C8.37 10.544 8.16257 10.7485 7.89087 10.8949C7.6208 11.0414 7.29379 11.1146 6.90983 11.1146H5.65303V10.2385H6.73901C6.94237 10.2385 7.10995 10.2023 7.24173 10.1299C7.37513 10.0558 7.47438 9.95399 7.53945 9.82438C7.60616 9.69308 7.63951 9.54243 7.63951 9.37241C7.63951 9.20072 7.60616 9.05091 7.53945 8.92298C7.47438 8.79337 7.37513 8.69321 7.24173 8.62251C7.10832 8.55013 6.93912 8.51394 6.73413 8.51394H6.02153V12.7912H4.96484Z" fill="#F4F5F8"/>
<path d="M10.363 12.8644C10.1238 12.8644 9.9107 12.8215 9.7236 12.7356C9.53651 12.6481 9.38846 12.5193 9.27945 12.3493C9.17207 12.1776 9.11839 11.9638 9.11839 11.708C9.11839 11.4925 9.15662 11.3116 9.23308 11.1651C9.30955 11.0187 9.41367 10.9008 9.54545 10.8116C9.67724 10.7224 9.82691 10.6551 9.99449 10.6096C10.1637 10.5642 10.341 10.5322 10.5265 10.5137C10.7445 10.4901 10.9202 10.4682 11.0536 10.448C11.187 10.4261 11.2838 10.3942 11.344 10.3521C11.4042 10.31 11.4343 10.2477 11.4343 10.1652V10.1501C11.4343 9.99018 11.3855 9.86646 11.2879 9.77893C11.1919 9.6914 11.0552 9.64763 10.8779 9.64763C10.6908 9.64763 10.5419 9.69056 10.4313 9.7764C10.3207 9.86057 10.2475 9.96661 10.2117 10.0945L9.25017 10.0137C9.29897 9.77809 9.39496 9.57441 9.53813 9.40271C9.6813 9.22934 9.86596 9.09636 10.0921 9.00378C10.3199 8.90951 10.5834 8.86238 10.8828 8.86238C11.091 8.86238 11.2903 8.88763 11.4807 8.93813C11.6727 8.98863 11.8427 9.0669 11.9907 9.17295C12.1404 9.27899 12.2584 9.41534 12.3446 9.58198C12.4308 9.74695 12.4739 9.94473 12.4739 10.1753V12.7912H11.488V12.2534H11.4587C11.3985 12.3745 11.318 12.4814 11.2171 12.574C11.1163 12.6649 10.995 12.7365 10.8535 12.7886C10.712 12.8391 10.5485 12.8644 10.363 12.8644ZM10.6607 12.1221C10.8136 12.1221 10.9487 12.0909 11.0658 12.0286C11.183 11.9647 11.2749 11.8788 11.3416 11.7711C11.4083 11.6634 11.4416 11.5413 11.4416 11.405V10.9934C11.4091 11.0153 11.3644 11.0355 11.3074 11.054C11.2521 11.0708 11.1895 11.0868 11.1195 11.102C11.0495 11.1155 10.9796 11.1281 10.9096 11.1399C10.8397 11.15 10.7762 11.1592 10.7193 11.1676C10.5973 11.1862 10.4907 11.2156 10.3996 11.256C10.3085 11.2964 10.2377 11.3511 10.1873 11.4201C10.1368 11.4875 10.1116 11.5716 10.1116 11.6726C10.1116 11.8191 10.1629 11.931 10.2654 12.0084C10.3695 12.0842 10.5013 12.1221 10.6607 12.1221Z" fill="#F4F5F8"/>
<path d="M13.7881 14.2455C13.6563 14.2455 13.5326 14.2346 13.4171 14.2127C13.3032 14.1925 13.2089 14.1664 13.134 14.1344L13.3683 13.3315C13.4903 13.3702 13.6002 13.3913 13.6978 13.3946C13.797 13.398 13.8824 13.3744 13.954 13.3239C14.0272 13.2734 14.0866 13.1876 14.1322 13.0664L14.1932 12.9023L12.8485 8.91288H13.9418L14.7179 11.761H14.7569L15.5403 8.91288H16.6409L15.184 13.2103C15.114 13.419 15.0188 13.6008 14.8984 13.7557C14.7797 13.9122 14.6292 14.0326 14.447 14.1167C14.2648 14.2026 14.0451 14.2455 13.7881 14.2455Z" fill="#F4F5F8"/>
<path d="M1.66797 8.56201H4.09982" stroke="#F4F5F8" stroke-width="1.645"/>
<path d="M17.1875 8.56201L19.6194 8.56201" stroke="#F4F5F8" stroke-width="1.645"/>
<defs>
<clipPath id="clip0_164_1608">
<rect width="19.74" height="19.74" fill="white" transform="translate(0.773438 0.608398)"/>
</clipPath>
</defs>
</svg>
