<svg width="26" height="26" viewBox="0 0 26 26" fill="none" xmlns="http://www.w3.org/2000/svg">
<g clip-path="url(#clip0_1486_5199)">
<path d="M6.71246 13.8071C6.71246 13.8071 11.6698 11.1846 13.0233 10.8716C14.3769 10.5586 15.4174 11.6245 14.5207 13.2065C13.6239 14.7884 9.70715 17.9608 9.70715 17.9608C9.70715 17.9608 8.78506 19.0267 6.94087 19.0267C5.09667 19.0267 1.58594 19.0267 1.58594 19.0267V10.5248L6.42483 6.19348C6.42483 6.19348 7.67685 5.06835 8.72584 6.41343" stroke="#F4F5F8" stroke-width="1.645" stroke-miterlimit="10"/>
<path d="M9.10547 18.3837C9.10547 18.3837 9.19007 19.9657 10.3152 19.9065C11.4403 19.8472 11.9817 18.9251 11.9817 18.9251L13.8259 15.1522" stroke="#F4F5F8" stroke-width="1.645" stroke-miterlimit="10"/>
<path d="M11.6953 19.3059C11.6953 19.3059 11.7799 20.8878 12.905 20.8286C14.0302 20.7694 14.5716 19.8473 14.5716 19.8473L16.8218 15.1437" stroke="#F4F5F8" stroke-width="1.645" stroke-miterlimit="10"/>
<path d="M19.8181 15.1606C19.8181 15.1606 17.6863 18.9336 17.2549 19.4243C16.8234 19.9149 15.8421 20.2618 15.0977 18.849" stroke="#F4F5F8" stroke-width="1.645" stroke-miterlimit="10"/>
<path d="M12.8444 15.1606H22.4376C23.3766 15.1606 24.1295 14.4077 24.1295 13.4687V6.80256C24.1295 5.87201 23.3766 5.11064 22.4376 5.11064H10.3911C9.46058 5.11064 8.69922 5.87201 8.69922 6.80256V12.7835" stroke="#F4F5F8" stroke-width="1.645" stroke-miterlimit="10"/>
<path d="M8.64062 8.18994H24.1048" stroke="#F4F5F8" stroke-width="1.645" stroke-miterlimit="10"/>
</g>
<defs>
<clipPath id="clip0_1486_5199">
<rect width="25.4975" height="25.4975" fill="white" transform="translate(0.113281 0.22168)"/>
</clipPath>
</defs>
</svg>
