<svg width="21" height="20" viewBox="0 0 21 20" fill="none" xmlns="http://www.w3.org/2000/svg">
<path d="M11.4366 6.82449C11.4366 6.82449 9.40707 5.57554 8.05403 6.95459C6.93518 8.07345 7.97597 9.24434 9.22493 9.81678C10.0055 10.1811 11.8269 11.1178 11.3065 12.5489C10.7861 13.98 8.70453 14.2402 7.27344 13.3295" stroke="white" stroke-width="1.645" stroke-miterlimit="10"/>
<path d="M9.51172 4.74292V6.35616" stroke="white" stroke-width="1.645" stroke-miterlimit="10"/>
<path d="M9.51172 13.876V15.4892" stroke="white" stroke-width="1.645" stroke-miterlimit="10"/>
<path d="M15.1558 15.6453C13.5165 17.2846 11.1747 18.1692 8.70285 17.857C4.43558 17.3366 1.36524 13.4596 1.88564 9.16634C2.40603 4.89908 6.283 1.82874 10.5763 2.34914C14.8435 2.86953 17.9139 6.7465 17.3935 11.0398" stroke="white" stroke-width="1.645" stroke-miterlimit="10"/>
<path d="M19.2143 9.32239L17.3669 11.1438L15.4414 9.37443" stroke="white" stroke-width="1.645" stroke-miterlimit="10"/>
</svg>
