<svg width="21" height="21" viewBox="0 0 21 21" fill="none" xmlns="http://www.w3.org/2000/svg">
<g clip-path="url(#clip0_164_1577)">
<path d="M13.1367 17.1205C11.9912 17.7714 10.6894 18.1359 9.28343 18.1359C4.96147 18.1359 1.47266 14.6471 1.47266 10.3252C1.47266 6.00321 4.96147 2.5144 9.28343 2.5144C12.7722 2.5144 15.7403 4.80557 16.7297 7.95591M4.44075 7.95592H7.98163V9.43995M10.7154 7.95592H14.2563M5.29995 12.382H10.4551M14.1001 11.2364L17.7451 14.8815M17.7451 11.2364L14.1001 14.8815M19.5676 13.0589C19.5676 15.072 17.9357 16.704 15.9226 16.704C13.9095 16.704 12.2776 15.072 12.2776 13.0589C12.2776 11.0459 13.9095 9.41392 15.9226 9.41392C17.9357 9.41392 19.5676 11.0459 19.5676 13.0589Z" stroke="#F4F5F8" stroke-width="1.645" stroke-miterlimit="10"/>
</g>
<defs>
<clipPath id="clip0_164_1577">
<rect width="19.74" height="19.74" fill="white" transform="translate(0.523438 0.325195)"/>
</clipPath>
</defs>
</svg>
