<svg width="21" height="21" viewBox="0 0 21 21" fill="none" xmlns="http://www.w3.org/2000/svg">
<g clip-path="url(#clip0_164_1583)">
<path d="M11.7702 13.3048C11.038 14.0371 9.97752 14.4411 8.84129 14.3148C6.89706 14.0876 5.50833 12.3201 5.76083 10.3759C5.98807 8.43165 7.75555 7.04291 9.69978 7.29541C11.644 7.52266 13.0327 9.29014 12.7802 11.2344M13.5882 10.4264L12.755 11.2596L11.8965 10.4516M8.94231 8.9114V11.0829L10.7855 11.8656M13.0579 17.3953C11.947 18.0265 10.6845 18.38 9.32099 18.38C5.12955 18.38 1.74609 14.9966 1.74609 10.8051C1.74609 6.61368 5.12955 3.23022 9.32099 3.23022C12.7044 3.23022 15.5829 5.4522 16.5424 8.50741M14.7497 12.4464L17.7797 15.4763M17.7797 12.4464L14.7497 15.4763M19.2947 13.9613C19.2947 15.6347 17.9381 16.9913 16.2647 16.9913C14.5913 16.9913 13.2348 15.6347 13.2348 13.9613C13.2348 12.2879 14.5913 10.9314 16.2647 10.9314C17.9381 10.9314 19.2947 12.2879 19.2947 13.9613Z" stroke="#F4F5F8" stroke-width="1.645" stroke-miterlimit="10"/>
</g>
<defs>
<clipPath id="clip0_164_1583">
<rect width="19.74" height="19.74" fill="white" transform="translate(0.523438 0.805176)"/>
</clipPath>
</defs>
</svg>
