<svg width="21" height="20" viewBox="0 0 21 20" fill="none" xmlns="http://www.w3.org/2000/svg">
<g clip-path="url(#clip0_164_1580)">
<path d="M13.3386 12.993C12.5054 13.8261 11.2988 14.2858 10.006 14.1421C7.7939 13.8836 6.21382 11.8726 6.50111 9.66044C6.75967 7.44832 8.77068 5.86823 10.9828 6.15552C13.1949 6.41408 14.775 8.4251 14.4877 10.6372M15.407 9.7179L14.459 10.6659L13.4822 9.74662M16.6136 16.1819C14.8037 17.9918 12.2181 18.9686 9.48888 18.6238C4.77736 18.0493 1.38736 13.7687 1.96194 9.02841C2.53651 4.31689 6.8171 0.926911 11.5573 1.50149C16.2976 2.07606 19.6589 6.35664 19.0843 11.0969M10.121 7.99417V10.4648L12.2182 11.3554" stroke="#F4F5F8" stroke-width="1.645" stroke-miterlimit="10"/>
</g>
<defs>
<clipPath id="clip0_164_1580">
<rect width="19.74" height="19.74" fill="white" transform="translate(0.523438 0.0651855)"/>
</clipPath>
</defs>
</svg>
