<svg width="21" height="20" viewBox="0 0 21 20" fill="none" xmlns="http://www.w3.org/2000/svg">
<g clip-path="url(#clip0_182_529)">
<path d="M13.7196 0.994873L16.7887 4.06974L13.7196 7.14461M3.03788 8.6519V7.11447C3.03788 6.30053 3.36887 5.51674 3.94056 4.94397C4.51226 4.3712 5.29459 4.0396 6.107 4.0396H16.7887M6.07693 19.0824L3.00781 16.0075L6.07693 12.9628M16.7887 11.4253V12.9628C16.7887 13.7767 16.4577 14.5605 15.886 15.1332C15.3143 15.706 14.532 16.0376 13.7196 16.0376H3.03788" stroke="#E3E7ED" stroke-width="1.35301" stroke-miterlimit="10"/>
<path d="M9.80009 6.59406L10.0049 7.15219C10.3112 7.98692 11.2254 8.42717 12.069 8.14621L12.6331 7.95835L12.3244 8.46647C11.8628 9.2264 12.0885 10.2156 12.8342 10.7L13.3327 11.0239L12.743 11.0994C11.8611 11.2122 11.2284 12.0055 11.3146 12.8905L11.3723 13.4822L10.9456 13.0682C10.3074 12.4491 9.29276 12.4491 8.6546 13.0682L8.22791 13.4822L8.28554 12.8905C8.37174 12.0055 7.73911 11.2122 6.85714 11.0994L6.26743 11.0239L6.76599 10.7C7.51163 10.2156 7.73742 9.2264 7.27578 8.46647L6.96712 7.95835L7.53118 8.14621C8.37478 8.42717 9.28896 7.98692 9.59527 7.15219L8.82312 6.86884L9.59527 7.15219L9.80009 6.59406Z" stroke="#F4F5F8" stroke-width="1.645"/>
</g>
<defs>
<clipPath id="clip0_182_529">
<rect width="19.74" height="19.74" fill="white" transform="translate(0.308594 0.168579)"/>
</clipPath>
</defs>
</svg>
