<svg width="21" height="20" viewBox="0 0 21 20" fill="none" xmlns="http://www.w3.org/2000/svg">
<path d="M3.76582 9.9377V17.107M3.76582 17.107H2.45935M3.76582 17.107H17.56M17.56 9.9377V17.107M17.56 17.107H18.7576M6.83627 14.728H14.3807C14.7326 14.728 15.0178 14.4428 15.0178 14.091V10.5747C15.0178 10.2229 14.7326 9.9377 14.3807 9.9377H6.83627C6.48444 9.9377 6.19924 10.2229 6.19924 10.5747V14.091C6.19924 14.4428 6.48444 14.728 6.83627 14.728ZM3.12799 7.7603H17.8475C18.9516 7.7603 19.5331 6.45155 18.7929 5.6322L16.7674 3.38998C16.5258 3.12257 16.1823 2.96997 15.822 2.96997H4.89524C4.50496 2.96997 4.13621 3.14885 3.89462 3.45537L2.12737 5.69759C1.46874 6.53324 2.06398 7.7603 3.12799 7.7603Z" stroke="#F4F5F8" stroke-width="1.645" stroke-linecap="round"/>
</svg>
