<svg width="21" height="21" viewBox="0 0 21 21" fill="none" xmlns="http://www.w3.org/2000/svg">
<path d="M10.8987 15.1775H11.7212V14.355H10.8987V15.1775ZM10.8987 18.1935H10.0762V19.673L11.3328 18.8921L10.8987 18.1935ZM15.7517 15.1775V14.355H15.517L15.3176 14.4789L15.7517 15.1775ZM2.74437 5.72165C2.74437 4.81314 3.48087 4.07665 4.38937 4.07665V2.43165C2.57236 2.43165 1.09938 3.90464 1.09938 5.72165H2.74437ZM2.74437 12.71V5.72165H1.09938V12.71H2.74437ZM4.38937 14.355C3.48086 14.355 2.74437 13.6185 2.74437 12.71H1.09938C1.09938 14.527 2.57236 16 4.38937 16V14.355ZM10.8987 14.355H4.38937V16H10.8987V14.355ZM11.7212 18.1935V15.1775H10.0762V18.1935H11.7212ZM15.3176 14.4789L10.4645 17.4949L11.3328 18.8921L16.1859 15.8761L15.3176 14.4789ZM16.2873 14.355H15.7517V16H16.2873V14.355ZM17.9323 12.71C17.9323 13.6185 17.1958 14.355 16.2873 14.355V16C18.1044 16 19.5773 14.527 19.5773 12.71H17.9323ZM17.9323 5.72165V12.71H19.5773V5.72165H17.9323ZM16.2873 4.07665C17.1958 4.07665 17.9323 4.81314 17.9323 5.72165H19.5773C19.5773 3.90463 18.1044 2.43165 16.2873 2.43165V4.07665ZM4.38937 4.07665H16.2873V2.43165H4.38937V4.07665Z" fill="#F4F5F8"/>
<path d="M6.40069 8.18041C6.3836 8.00811 6.31027 7.87426 6.18069 7.77886C6.05111 7.68345 5.87525 7.63575 5.65312 7.63575C5.50218 7.63575 5.37474 7.65711 5.27079 7.69983C5.16684 7.74112 5.0871 7.79879 5.03157 7.87284C4.97746 7.94688 4.9504 8.03089 4.9504 8.12487C4.94756 8.20319 4.96393 8.27154 4.99953 8.32992C5.03655 8.3883 5.0871 8.43885 5.15118 8.48157C5.21526 8.52287 5.2893 8.55918 5.37331 8.5905C5.45733 8.62041 5.54704 8.64604 5.64244 8.6674L6.03545 8.76138C6.22626 8.80409 6.4014 8.86105 6.56088 8.93225C6.72036 9.00345 6.85849 9.09102 6.97525 9.19497C7.09201 9.29891 7.18243 9.42137 7.24651 9.56234C7.31201 9.70331 7.34547 9.86493 7.3469 10.0472C7.34547 10.3149 7.27713 10.547 7.14185 10.7435C7.008 10.9386 6.81434 11.0902 6.56088 11.1985C6.30884 11.3052 6.00483 11.3586 5.64885 11.3586C5.29571 11.3586 4.98814 11.3045 4.72613 11.1963C4.46555 11.0881 4.26193 10.9279 4.11526 10.7157C3.97002 10.5021 3.89384 10.238 3.88672 9.92331H4.78167C4.79163 10.07 4.83364 10.1924 4.90769 10.2907C4.98315 10.3875 5.08354 10.4609 5.20885 10.5107C5.33558 10.5591 5.47869 10.5833 5.63817 10.5833C5.7948 10.5833 5.93079 10.5605 6.04613 10.515C6.16289 10.4694 6.25331 10.406 6.31739 10.3249C6.38147 10.2437 6.4135 10.1504 6.4135 10.0451C6.4135 9.94681 6.38431 9.86422 6.32593 9.79729C6.26897 9.73037 6.18496 9.67341 6.07389 9.62642C5.96425 9.57943 5.82969 9.53671 5.67021 9.49827L5.1939 9.37865C4.8251 9.28895 4.5339 9.14869 4.32031 8.95788C4.10672 8.76707 4.00063 8.51005 4.00206 8.18681C4.00063 7.92196 4.07112 7.69057 4.21351 7.49264C4.35733 7.29472 4.55455 7.14022 4.80516 7.02915C5.05578 6.91808 5.34056 6.86255 5.65953 6.86255C5.98419 6.86255 6.26755 6.91808 6.50962 7.02915C6.75311 7.14022 6.9425 7.29472 7.07777 7.49264C7.21305 7.69057 7.28282 7.91983 7.28709 8.18041H6.40069Z" fill="#F4F5F8"/>
<path d="M7.96898 6.92235H9.10956L10.3142 9.86137H10.3655L11.5701 6.92235H12.7107V11.2967H11.8136V8.44953H11.7773L10.6453 11.2753H10.0344L8.90238 8.43885H8.86607V11.2967H7.96898V6.92235Z" fill="#F4F5F8"/>
<path d="M15.8457 8.18041C15.8286 8.00811 15.7553 7.87426 15.6257 7.77886C15.4961 7.68345 15.3203 7.63575 15.0981 7.63575C14.9472 7.63575 14.8197 7.65711 14.7158 7.69983C14.6119 7.74112 14.5321 7.79879 14.4766 7.87284C14.4225 7.94688 14.3954 8.03089 14.3954 8.12487C14.3926 8.20319 14.4089 8.27154 14.4445 8.32992C14.4816 8.3883 14.5321 8.43885 14.5962 8.48157C14.6603 8.52287 14.7343 8.55918 14.8183 8.5905C14.9023 8.62041 14.992 8.64604 15.0874 8.6674L15.4805 8.76138C15.6713 8.80409 15.8464 8.86105 16.0059 8.93225C16.1654 9.00345 16.3035 9.09102 16.4203 9.19497C16.537 9.29891 16.6274 9.42137 16.6915 9.56234C16.757 9.70331 16.7905 9.86493 16.7919 10.0472C16.7905 10.3149 16.7221 10.547 16.5869 10.7435C16.453 10.9386 16.2594 11.0902 16.0059 11.1985C15.7539 11.3052 15.4498 11.3586 15.0939 11.3586C14.7407 11.3586 14.4331 11.3045 14.1711 11.1963C13.9106 11.0881 13.7069 10.9279 13.5603 10.7157C13.415 10.5021 13.3388 10.238 13.3317 9.92331H14.2267C14.2366 10.07 14.2786 10.1924 14.3527 10.2907C14.4282 10.3875 14.5286 10.4609 14.6539 10.5107C14.7806 10.5591 14.9237 10.5833 15.0832 10.5833C15.2398 10.5833 15.3758 10.5605 15.4911 10.515C15.6079 10.4694 15.6983 10.406 15.7624 10.3249C15.8265 10.2437 15.8585 10.1504 15.8585 10.0451C15.8585 9.94681 15.8293 9.86422 15.7709 9.79729C15.714 9.73037 15.63 9.67341 15.5189 9.62642C15.4093 9.57943 15.2747 9.53671 15.1152 9.49827L14.6389 9.37865C14.2701 9.28895 13.9789 9.14869 13.7653 8.95788C13.5517 8.76707 13.4456 8.51005 13.4471 8.18681C13.4456 7.92196 13.5161 7.69057 13.6585 7.49264C13.8023 7.29472 13.9996 7.14022 14.2502 7.02915C14.5008 6.91808 14.7856 6.86255 15.1045 6.86255C15.4292 6.86255 15.7126 6.91808 15.9546 7.02915C16.1981 7.14022 16.3875 7.29472 16.5228 7.49264C16.6581 7.69057 16.7278 7.91983 16.7321 8.18041H15.8457Z" fill="#F4F5F8"/>
</svg>
