<svg width="22" height="20" viewBox="0 0 22 20" fill="none" xmlns="http://www.w3.org/2000/svg">
<path d="M12.4563 13.5205V12.6876C12.4563 12.2458 12.2807 11.8221 11.9683 11.5097C11.6559 11.1973 11.2322 11.0217 10.7904 11.0217H7.45879C7.01699 11.0217 6.59328 11.1973 6.28088 11.5097C5.96847 11.8221 5.79297 12.2458 5.79297 12.6876V13.5205" stroke="#F4F5F8" stroke-width="1.3489" stroke-linecap="round" stroke-linejoin="round"/>
<path d="M9.12285 9.35593C10.0429 9.35593 10.7887 8.61012 10.7887 7.69011C10.7887 6.7701 10.0429 6.02429 9.12285 6.02429C8.20284 6.02429 7.45703 6.7701 7.45703 7.69011C7.45703 8.61012 8.20284 9.35593 9.12285 9.35593Z" stroke="white" stroke-width="1.3489" stroke-linecap="round" stroke-linejoin="round"/>
<path d="M14.9564 13.5205V12.6876C14.9561 12.3185 14.8333 11.9599 14.6071 11.6682C14.381 11.3765 14.0644 11.1682 13.707 11.0759" stroke="white" stroke-width="1.3489" stroke-linecap="round" stroke-linejoin="round"/>
<path d="M12.0391 6.07843C12.3974 6.17018 12.715 6.37857 12.9418 6.67076C13.1686 6.96295 13.2917 7.32231 13.2917 7.6922C13.2917 8.06208 13.1686 8.42144 12.9418 8.71363C12.715 9.00582 12.3974 9.21421 12.0391 9.30596" stroke="white" stroke-width="1.3489" stroke-linecap="round" stroke-linejoin="round"/>
<path d="M3.79688 9.27263V5.52453C3.79688 4.73082 4.13368 3.9665 4.71545 3.40796C5.29721 2.84942 6.0933 2.52606 6.92001 2.52606H12.5424" stroke="#F4F5F8" stroke-width="1.3489" stroke-miterlimit="10"/>
<path d="M18.543 9.77238L18.543 13.5205C18.543 14.3142 18.2062 15.0785 17.6244 15.637C17.0426 16.1956 16.2465 16.519 15.4198 16.519L9.79741 16.519" stroke="white" stroke-width="1.3489" stroke-miterlimit="10"/>
<path d="M6.29824 7.52352L3.7872 10.0223L1.30078 7.52352" stroke="white" stroke-width="1.3489" stroke-miterlimit="10"/>
<path d="M16.0416 11.5215L18.5526 9.02276L21.0391 11.5215" stroke="white" stroke-width="1.3489" stroke-miterlimit="10"/>
</svg>
