<svg width="21" height="21" viewBox="0 0 21 21" fill="none" xmlns="http://www.w3.org/2000/svg">
<path d="M10.177 1.82141C7.6748 1.82141 5.63396 3.86225 5.63396 6.3645C5.63396 7.72337 6.30579 8.87689 7.25649 9.71097L5.89762 12.2259C5.80889 12.2132 5.72523 12.2056 5.63396 12.2056C4.56664 12.2056 3.68692 13.0853 3.68692 14.1526C3.68692 15.22 4.56664 16.0997 5.63396 16.0997C6.70128 16.0997 7.581 15.22 7.581 14.1526C7.581 13.6355 7.36804 13.1639 7.03339 12.8141L8.87902 9.38646L8.39226 9.06196C7.51762 8.4814 6.93199 7.49774 6.93199 6.3645C6.93199 4.5645 8.37705 3.11944 10.177 3.11944C11.977 3.11944 13.4221 4.5645 13.4221 6.3645C13.4221 6.74478 13.3587 7.10224 13.2396 7.43943L14.4565 7.88562C14.6263 7.41154 14.7201 6.89436 14.7201 6.3645C14.7201 3.86225 12.6793 1.82141 10.177 1.82141ZM10.177 4.41746C9.10973 4.41746 8.23001 5.29718 8.23001 6.3645C8.23001 7.43182 9.10973 8.31154 10.177 8.31154C10.2683 8.31154 10.352 8.30393 10.4407 8.29125L12.2255 11.1307L12.55 11.658L13.0976 11.3335C13.5742 11.0572 14.1269 10.9076 14.7201 10.9076C16.5201 10.9076 17.9652 12.3527 17.9652 14.1526C17.9652 15.9526 16.5201 17.3977 14.7201 17.3977C13.7542 17.3977 12.8999 16.987 12.3066 16.3228L11.3331 17.1746C12.1646 18.1025 13.379 18.6957 14.7201 18.6957C17.2224 18.6957 19.2632 16.6549 19.2632 14.1526C19.2632 11.6504 17.2224 9.60956 14.7201 9.60956C14.1218 9.60956 13.6021 9.84534 13.0773 10.0558L11.5968 7.68281C11.9213 7.33548 12.1241 6.87154 12.1241 6.3645C12.1241 5.29718 11.2444 4.41746 10.177 4.41746ZM10.177 5.71549C10.5421 5.71549 10.8261 5.99943 10.8261 6.3645C10.8261 6.72957 10.5421 7.01351 10.177 7.01351C9.81198 7.01351 9.52804 6.72957 9.52804 6.3645C9.52804 5.99943 9.81198 5.71549 10.177 5.71549ZM4.88354 9.67041C4.36382 9.75914 3.84411 9.93914 3.36242 10.218C1.19735 11.4679 0.449465 14.2591 1.69932 16.4242C2.94918 18.5893 5.7379 19.3371 7.9055 18.0873C9.14522 17.3698 9.81451 16.12 10.0148 14.8017H12.8948C13.1661 15.5521 13.881 16.0997 14.7201 16.0997C15.7875 16.0997 16.6672 15.22 16.6672 14.1526C16.6672 13.0853 15.7875 12.2056 14.7201 12.2056C13.881 12.2056 13.1661 12.7532 12.8948 13.5036H8.87902V14.1526C8.87902 15.2732 8.301 16.3684 7.25649 16.9718C5.69734 17.8718 3.71481 17.3343 2.81481 15.7752C1.91481 14.216 2.45228 12.2335 4.01143 11.3335C4.35622 11.1332 4.71622 11.0115 5.08636 10.9482L4.88354 9.67041ZM5.63396 13.5036C5.99903 13.5036 6.28297 13.7876 6.28297 14.1526C6.28297 14.5177 5.99903 14.8017 5.63396 14.8017C5.26889 14.8017 4.98495 14.5177 4.98495 14.1526C4.98495 13.7876 5.26889 13.5036 5.63396 13.5036ZM14.7201 13.5036C15.0852 13.5036 15.3691 13.7876 15.3691 14.1526C15.3691 14.5177 15.0852 14.8017 14.7201 14.8017C14.3551 14.8017 14.0711 14.5177 14.0711 14.1526C14.0711 13.7876 14.3551 13.5036 14.7201 13.5036Z" fill="#F4F5F8"/>
</svg>
